<svg xmlns="http://www.w3.org/2000/svg" xmlns:xlink="http://www.w3.org/1999/xlink" id="Layer_1" x="0px" y="0px" viewBox="0 0 500 500" style="enable-background:new 0 0 500 500;" xml:space="preserve"><style type="text/css">	.st0{fill:#174C30;}	.st1{fill-rule:evenodd;clip-rule:evenodd;fill:#CD8366;}	.st2{fill-rule:evenodd;clip-rule:evenodd;fill:#FFFFFF;}	.st3{fill-rule:evenodd;clip-rule:evenodd;fill:#C4D6C7;}	.st4{fill-rule:evenodd;clip-rule:evenodd;fill:#F1D8C8;}	.st5{fill:#F1D8C8;}	.st6{fill:#FFFFFF;}	.st7{fill:#CD8366;}	.st8{fill:#C4D6C7;}	.st9{fill:#F58D65;}	.st10{fill:#F2E8DF;}	.st11{opacity:0.4;fill:#C4D6C7;enable-background:new    ;}	.st12{fill:#8DCA8B;}	.st13{opacity:0.6;fill:#F1D8C8;enable-background:new    ;}	.st14{opacity:0.5;fill:#844C34;enable-background:new    ;}	.st15{opacity:0.5;fill:#FFFFFF;enable-background:new    ;}	.st16{opacity:0.3;fill:#F7E2D6;enable-background:new    ;}</style><g>	<path class="st0" d="M476.25,225.35c-24.18-53.81-66.76-91.02-126.66-110.36c-0.7-0.23-1.4-0.39-2.18-0.39   c-0.16-0.08-0.23-0.08-0.31-0.08H78.11c-4.21,0-7.57,3.43-7.57,7.57c0,4.21,3.35,7.57,7.57,7.57h261.35l-0.86,81.27   c0,1.17,0.31,2.42,0.86,3.43c5.38,10.84,14.12,23.24,33.07,23.24c0.47,0,1.01,0,1.56-0.08h93.04   c10.92,10.14,16.53,20.82,17.31,32.99v47.18c-2.42,12.56-10.06,16.38-29.79,14.51c-3.35-22.38-22.62-39.62-45.86-39.62   c-23.09,0-42.19,16.85-45.78,38.92H226.84c-3.59-22.07-22.7-38.92-45.7-38.92c-23.48,0-42.82,17.47-45.94,40.09   c-28.23,4.45-32.83-6.79-34.32-12.24v-29.09h17.78c4.13,0,7.57-3.35,7.57-7.57c0-4.13-3.43-7.57-7.57-7.57H31.08   c-4.21,0-7.57,3.43-7.57,7.57c0,4.21,3.35,7.57,7.57,7.57h54.67v30.1c0,0.62,0.08,1.25,0.23,1.87   c3.2,12.32,12.48,25.43,37.51,25.43c3.67,0,7.72-0.39,12.01-0.94c4.13,21.37,23.01,37.67,45.62,37.67   c23.01,0,42.12-16.85,45.7-38.84h136.17c3.59,21.99,22.7,38.84,45.78,38.84c22.7,0,41.65-16.46,45.62-38.06   c2.5,0.23,5.23,0.39,8.03,0.39c15.05,0,32.91-4.52,36.97-28.15c0.08-0.47,0.16-0.86,0.16-1.33v-48.28   C498.48,253.04,490.84,238.46,476.25,225.35z M373.77,222.39c-10.22,0.47-15.36-4.52-19.97-13.18l0.78-76.51   c47.26,17.55,82.05,47.65,103.57,89.69H373.77z M181.13,370.34c-17.31,0-31.35-14.04-31.35-31.27c0-17.31,14.04-31.35,31.35-31.35   c17.24,0,31.27,14.04,31.27,31.35C212.41,356.3,198.37,370.34,181.13,370.34z M408.79,370.34c-17.31,0-31.35-14.04-31.35-31.27   c0-17.31,14.04-31.35,31.35-31.35c17.24,0,31.27,14.04,31.27,31.35C440.06,356.3,426.03,370.34,408.79,370.34z"></path>	<path class="st8" d="M212.41,339.07c0,17.24-14.04,31.27-31.27,31.27c-17.31,0-31.35-14.04-31.35-31.27   c0-17.31,14.04-31.35,31.35-31.35C198.37,307.71,212.41,321.75,212.41,339.07z M440.06,339.07c0,17.24-14.04,31.27-31.27,31.27   c-17.31,0-31.35-14.04-31.35-31.27c0-17.31,14.04-31.35,31.35-31.35C426.03,307.71,440.06,321.75,440.06,339.07z"></path>	<path class="st6" d="M458.16,222.39h-84.39c-10.22,0.47-15.36-4.52-19.97-13.18l0.78-76.51   C401.85,150.25,436.63,180.35,458.16,222.39z"></path>	<path class="st0" d="M298.12,207.26l-62.24-53.58c-2.81-2.42-7.02-2.42-9.83,0l-62.24,53.58c-3.2,2.73-3.51,7.49-0.78,10.61   c2.73,3.2,7.49,3.51,10.61,0.86l3.82-3.28v49.6c0,4.21,3.35,7.57,7.57,7.57h91.87c4.13,0,7.57-3.35,7.57-7.57v-49.6l3.74,3.28   c1.48,1.17,3.2,1.79,4.99,1.79c2.11,0,4.21-0.86,5.69-2.65C301.63,214.75,301.24,209.99,298.12,207.26z M239.39,257.49h-16.85   v-21.06h16.85V257.49z M269.34,257.49h-14.82v-28.62c0-4.21-3.43-7.57-7.57-7.57h-31.98c-4.21,0-7.57,3.35-7.57,7.57v28.62H192.6   v-55.06l38.37-32.99l38.37,32.99V257.49z"></path>	<rect x="222.55" y="236.43" class="st8" width="16.85" height="21.06"></rect>	<path class="st7" d="M269.34,202.43v55.06h-14.82v-28.62c0-4.21-3.43-7.57-7.57-7.57h-31.98c-4.21,0-7.57,3.35-7.57,7.57v28.62   H192.6v-55.06l38.37-32.99L269.34,202.43z"></path>	<path class="st0" d="M30.3,170.45h68.48c4.21,0,7.57-3.35,7.57-7.57s-3.35-7.57-7.57-7.57H30.3c-4.21,0-7.57,3.35-7.57,7.57   S26.09,170.45,30.3,170.45z M50.27,203.83c0,4.21,3.35,7.57,7.57,7.57h68.48c4.21,0,7.57-3.35,7.57-7.57   c0-4.21-3.35-7.57-7.57-7.57H57.83C53.62,196.34,50.27,199.7,50.27,203.83z M84.04,245.01c0-4.21-3.35-7.57-7.57-7.57H7.99   c-4.21,0-7.57,3.43-7.57,7.57c0,4.21,3.35,7.57,7.57,7.57h68.48C80.68,252.57,84.04,249.22,84.04,245.01z"></path></g></svg>