<svg xmlns="http://www.w3.org/2000/svg" xmlns:xlink="http://www.w3.org/1999/xlink" id="Layer_1" x="0px" y="0px" viewBox="0 0 500 500" style="enable-background:new 0 0 500 500;" xml:space="preserve"><style type="text/css">	.st0{fill:#174C30;}	.st1{fill-rule:evenodd;clip-rule:evenodd;fill:#CD8366;}	.st2{fill-rule:evenodd;clip-rule:evenodd;fill:#FFFFFF;}	.st3{fill-rule:evenodd;clip-rule:evenodd;fill:#C4D6C7;}	.st4{fill-rule:evenodd;clip-rule:evenodd;fill:#F1D8C8;}	.st5{fill:#F1D8C8;}	.st6{fill:#FFFFFF;}	.st7{fill:#CD8366;}	.st8{fill:#C4D6C7;}	.st9{fill:#F58D65;}	.st10{fill:#F2E8DF;}	.st11{opacity:0.4;fill:#C4D6C7;enable-background:new    ;}	.st12{fill:#8DCA8B;}	.st13{opacity:0.6;fill:#F1D8C8;enable-background:new    ;}	.st14{opacity:0.5;fill:#844C34;enable-background:new    ;}	.st15{opacity:0.5;fill:#FFFFFF;enable-background:new    ;}	.st16{opacity:0.3;fill:#F7E2D6;enable-background:new    ;}</style><g>	<g id="SvgjsG1127_00000103978150146182051770000013453493488009212095_">		<path class="st5" d="M446.7,339.84H51.39V76.56c0-7.81,6.25-14.84,14.84-14.84h365.62c7.81,0,14.84,6.25,14.84,14.84V339.84z"></path>		<path class="st0" d="M450.61,343.75H47.48V76.56c0-10.16,7.81-17.97,17.97-17.97h366.41c10.16,0,17.97,7.81,17.97,17.97v267.19    H450.61z M55.3,335.94h387.5V76.56c0-5.47-4.69-10.94-10.94-10.94H65.45c-5.47,0-10.16,4.69-10.16,10.94V335.94z"></path>		<path class="st6" d="M427.17,326.56H70.92V89.84c0-7.81,6.25-14.84,14.84-14.84h327.34c7.81,0,14.84,6.25,14.84,14.84v236.72    H427.17z"></path>		<path class="st5" d="M51.39,339.84H446.7l37.5,108.59c7.81,23.44-9.38,47.66-33.59,47.66H49.05c-24.22,0-41.41-24.22-34.38-46.88    L51.39,339.84z"></path>		<path class="st0" d="M450.61,500H49.05c-13.28,0-25-6.25-32.03-16.41c-7.81-10.16-9.38-23.44-5.47-35.94l36.72-111.72h400.78    l39.06,110.94c4.69,12.5,2.34,25.78-5.47,35.94C475.61,493.75,463.89,500,450.61,500z M53.73,343.75L18.58,450    c-3.13,10.16-1.56,20.31,4.69,28.91c6.25,8.59,15.62,13.28,25.78,13.28h401.56c10.16,0,20.31-4.69,25.78-13.28    c6.25-8.59,7.81-19.53,3.91-28.91l-36.72-106.25H53.73z"></path>		<path class="st6" d="M64.67,346.88H434.2l35.16,91.41c7.81,19.53-8.59,40.62-32.03,40.62H63.11c-22.66,0-39.06-20.31-32.03-39.84    L64.67,346.88z"></path>		<polygon class="st6" points="77.95,402.34 69.36,402.34 82.64,389.06 91.23,389.06   "></polygon>		<polygon class="st7" points="79.51,406.25 59.2,406.25 81.08,385.94 99.83,385.94   "></polygon>		<polygon class="st6" points="109.98,402.34 101.39,402.34 112.33,389.06 120.14,389.06   "></polygon>		<polygon class="st7" points="111.55,406.25 92.8,406.25 110.76,385.94 128.73,385.94   "></polygon>		<polygon class="st6" points="142.01,402.34 133.42,402.34 142.01,389.06 149.83,389.06   "></polygon>		<polygon class="st7" points="144.36,406.25 126.39,406.25 139.67,385.94 156.86,385.94   "></polygon>		<polygon class="st6" points="174.05,402.34 165.45,402.34 171.7,389.06 179.51,389.06   "></polygon>		<path class="st7" d="M176.39,406.25H159.2l10.16-21.09h16.41L176.39,406.25z M171.7,398.44L171.7,398.44L171.7,398.44z"></path>		<polygon class="st6" points="206.08,402.34 197.48,402.34 201.39,389.06 209.2,389.06   "></polygon>		<path class="st7" d="M209.2,406.25h-17.19l6.25-21.09h15.62L209.2,406.25z M202.17,398.44L202.17,398.44l1.56-5.47l0,0    L202.17,398.44z"></path>		<polygon class="st6" points="238.11,402.34 229.51,402.34 231.08,389.06 238.89,389.06   "></polygon>		<path class="st7" d="M242.01,406.25h-16.41l2.34-21.09h15.62L242.01,406.25z M233.42,398.44L233.42,398.44l0.78-5.47l0,0    L233.42,398.44z"></path>		<polygon class="st6" points="270.14,402.34 261.55,402.34 259.98,389.06 268.58,389.06   "></polygon>		<path class="st7" d="M274.83,406.25h-17.19l-1.56-21.09h15.62L274.83,406.25z M264.67,398.44L264.67,398.44v-5.47h-0.78    L264.67,398.44z"></path>		<polygon class="st6" points="302.17,402.34 293.58,402.34 289.67,389.06 298.26,389.06   "></polygon>		<path class="st7" d="M307.64,406.25h-17.19l-5.47-21.09h15.62L307.64,406.25z M296.7,398.44L296.7,398.44l-1.56-5.47L296.7,398.44    z"></path>		<polygon class="st6" points="334.2,402.34 325.61,402.34 319.36,389.06 327.17,389.06   "></polygon>		<polygon class="st7" points="340.45,406.25 323.26,406.25 313.11,385.94 329.51,385.94   "></polygon>		<polygon class="st6" points="366.23,402.34 357.64,402.34 349.05,389.06 356.86,389.06   "></polygon>		<polygon class="st7" points="374.05,406.25 355.3,406.25 342.01,385.94 359.2,385.94   "></polygon>		<polygon class="st6" points="398.26,402.34 389.67,402.34 378.73,389.06 386.55,389.06   "></polygon>		<polygon class="st7" points="406.86,406.25 388.11,406.25 370.14,385.94 388.11,385.94   "></polygon>		<polygon class="st6" points="430.3,402.34 421.7,402.34 408.42,389.06 416.23,389.06   "></polygon>		<polygon class="st7" points="440.45,406.25 420.14,406.25 399.05,385.94 417.8,385.94   "></polygon>		<polygon class="st0" points="311.55,471.88 188.11,471.88 198.26,442.19 301.39,442.19   "></polygon>		<path class="st8" d="M159.98,185.94c0-14.06-10.94-25-25-25c-14.06,0-25,10.94-25,25c0,14.06,10.94,25,25,25    C149.05,210.16,159.98,199.22,159.98,185.94z"></path>		<path class="st0" d="M134.98,214.06c-15.62,0-28.91-12.5-28.91-28.91c0-15.62,12.5-28.91,28.91-28.91    c15.62,0,28.91,12.5,28.91,28.91S151.39,214.06,134.98,214.06z M134.98,164.84c-11.72,0-21.09,9.38-21.09,21.09    s9.38,21.09,21.09,21.09s21.09-9.38,21.09-21.09C156.08,174.22,146.7,164.84,134.98,164.84z M284.2,199.22    c-0.78,0-64.84-3.91-78.12-75V21.87h24.22v7.81h-16.41v93.75c11.72,64.84,69.53,67.97,70.31,67.97c2.34,0,58.59-3.91,70.31-68.75    V29.69h-16.41v-7.81h24.22v101.56C348.26,195.31,284.2,199.22,284.2,199.22z"></path>		<path class="st0" d="M232.64,267.19h-44.53c-31.25,0-57.03-25.78-57.03-57.03h7.81c0,27.34,21.88,49.22,49.22,49.22h44.53    c27.34,0,49.22-21.87,49.22-49.22v-14.84h7.81v14.84C289.67,241.41,263.89,267.19,232.64,267.19z M283.42,159.38    c-56.25,0-77.34-61.72-78.13-62.5l7.03-2.34c0,0.78,19.53,57.03,70.31,57.03c44.53,0,70.31-57.03,70.31-57.81l7.03,3.12    C359.98,99.22,332.64,159.38,283.42,159.38z"></path>		<path class="st5" d="M252.17,25.78c0,12.5-10.16,21.88-21.87,21.88V3.91C242.8,3.91,252.17,13.28,252.17,25.78z"></path>		<path class="st0" d="M230.3,51.56h-3.91V0h3.91c14.06,0,25.78,11.72,25.78,25.78S244.36,51.56,230.3,51.56z M234.2,7.81v35.16    c7.81-1.56,14.06-9.38,14.06-17.97C248.26,17.19,242.01,10.16,234.2,7.81z"></path>		<path class="st5" d="M336.55,3.91v43.75c-12.5,0-21.87-10.16-21.87-21.88S324.05,3.91,336.55,3.91z"></path>		<path class="st0" d="M340.45,51.56h-3.91c-14.06,0-25.78-11.72-25.78-25.78S322.48,0,336.55,0h3.91V51.56z M332.64,7.81    c-7.81,1.56-14.06,9.38-14.06,17.97s6.25,15.62,14.06,17.97V7.81z"></path>	</g></g></svg>