<svg xmlns="http://www.w3.org/2000/svg" xmlns:xlink="http://www.w3.org/1999/xlink" id="Layer_1" x="0px" y="0px" viewBox="0 0 500 500" style="enable-background:new 0 0 500 500;" xml:space="preserve"><style type="text/css">	.st0{fill:#174C30;}	.st1{fill-rule:evenodd;clip-rule:evenodd;fill:#CD8366;}	.st2{fill-rule:evenodd;clip-rule:evenodd;fill:#FFFFFF;}	.st3{fill-rule:evenodd;clip-rule:evenodd;fill:#C4D6C7;}	.st4{fill-rule:evenodd;clip-rule:evenodd;fill:#F1D8C8;}	.st5{fill:#F1D8C8;}	.st6{fill:#FFFFFF;}	.st7{fill:#CD8366;}	.st8{fill:#C4D6C7;}	.st9{fill:#F58D65;}	.st10{fill:#F2E8DF;}	.st11{opacity:0.4;fill:#C4D6C7;enable-background:new    ;}	.st12{fill:#8DCA8B;}	.st13{opacity:0.6;fill:#F1D8C8;enable-background:new    ;}	.st14{opacity:0.5;fill:#844C34;enable-background:new    ;}	.st15{opacity:0.5;fill:#FFFFFF;enable-background:new    ;}	.st16{opacity:0.3;fill:#F7E2D6;enable-background:new    ;}</style><g>	<path class="st9" d="M484.36,78.13c0,34.52-27.98,62.5-62.5,62.5s-62.5-27.98-62.5-62.5s27.98-62.5,62.5-62.5   C456.36,15.67,484.31,43.63,484.36,78.13z"></path>	<path class="st10" d="M320.28,148.45v203.14c-0.01,12.94-10.5,23.43-23.44,23.44h-93.76c-12.94-0.01-23.43-10.5-23.44-23.44V148.45   c0.01-12.94,10.5-23.43,23.44-23.44h8.4l0.23,0.66c2.15,6.68,4.84,14.96,16.13,14.96h43.25c10.9,0,14.02-8.44,16.56-15.2   c0.04-0.16,0.12-0.27,0.16-0.43h9.02C309.79,125.02,320.27,135.51,320.28,148.45z"></path>	<path class="st11" d="M223.94,288.34c1.75,1.26,4.19,0.87,5.45-0.87l45.26-62.5c1.27-1.75,0.88-4.19-0.87-5.46   c-1.75-1.27-4.19-0.88-5.46,0.87l-45.26,62.5C221.8,284.63,222.19,287.07,223.94,288.34C223.94,288.34,223.94,288.34,223.94,288.34   z M278.06,243.01l-26.54,36.64c-1.27,1.75-0.88,4.19,0.87,5.46c1.75,1.27,4.19,0.88,5.46-0.87l26.54-36.64   c1.27-1.75,0.88-4.19-0.87-5.46C281.77,240.87,279.32,241.26,278.06,243.01z M248.41,228.6c1.23-1.78,0.78-4.21-1-5.43   c-1.72-1.19-4.07-0.81-5.33,0.86l-26.53,36.65c-1.32,1.71-1.01,4.16,0.7,5.48c1.71,1.32,4.16,1.01,5.48-0.7   c0.05-0.07,0.1-0.14,0.15-0.21L248.41,228.6z"></path>	<path class="st9" d="M140.58,421.9c0.01,13.9-4.66,27.4-13.24,38.32c-1.03,0.28-1.9,0.95-2.42,1.88c-0.27,0.48-0.43,1.01-0.47,1.56   c-23.12,25.55-62.58,27.52-88.13,4.39c-25.55-23.12-27.52-62.58-4.39-88.13c23.12-25.55,62.58-27.52,88.13-4.39   C133.16,387.39,140.62,404.24,140.58,421.9z M140.58,78.13c0,34.52-27.98,62.5-62.5,62.5s-62.5-27.98-62.5-62.5   s27.98-62.5,62.5-62.5C112.58,15.67,140.54,43.63,140.58,78.13z M484.09,427.14c-2.87,34.37-33.06,59.91-67.43,57.05   c-30.34-2.53-54.43-26.56-57.03-56.89h30.71c1.47,0,2.81-0.83,3.48-2.15l4.3-8.59l10.55,10.59c1.52,1.53,3.99,1.54,5.52,0.03   c0.44-0.43,0.77-0.96,0.96-1.55l4.34-13.4l1.99,41.14c0.11,1.79,1.41,3.28,3.16,3.63c0.24,0.05,0.49,0.07,0.74,0.08   c1.51-0.01,2.89-0.87,3.55-2.23l10.59-22.5l3.05,5.59c0.58,1.04,1.6,1.76,2.77,1.95c1.18,0.2,2.38-0.15,3.28-0.94l12.93-11.8   H484.09z"></path>	<path class="st9" d="M484.24,419.33h-24.22c-0.97-0.01-1.91,0.35-2.62,1.02l-10.39,9.45l-4.34-7.93c-0.72-1.26-2.06-2.04-3.52-2.03   c-1.47,0.03-2.81,0.89-3.44,2.23l-7.19,15.31l-2.3-46.92c-0.1-1.88-1.53-3.42-3.4-3.67c-1.87-0.29-3.67,0.84-4.22,2.66l-8.95,27.66   l-9.84-9.92c-1.54-1.53-4.04-1.53-5.57,0.02c-0.29,0.29-0.53,0.63-0.72,1l-5.63,11.29h-28.44c1.29-34.46,30.27-61.34,64.73-60.05   C456.78,360.65,482.94,386.74,484.24,419.33z M484.36,78.13c0,34.52-27.98,62.5-62.5,62.5s-62.5-27.98-62.5-62.5   s27.98-62.5,62.5-62.5C456.36,15.67,484.31,43.63,484.36,78.13z"></path>	<path class="st0" d="M223.94,284.43c1.75,1.26,4.19,0.87,5.45-0.87l45.26-62.5c1.27-1.75,0.88-4.19-0.87-5.46   c-1.75-1.27-4.19-0.88-5.46,0.87l-45.26,62.5C221.8,280.72,222.19,283.17,223.94,284.43C223.94,284.43,223.94,284.43,223.94,284.43   z M278.06,239.1l-26.54,36.64c-1.27,1.75-0.88,4.19,0.87,5.46c1.75,1.27,4.19,0.88,5.46-0.87l26.54-36.64   c1.27-1.75,0.88-4.19-0.87-5.46C281.77,236.97,279.32,237.36,278.06,239.1z M248.41,224.7c1.23-1.78,0.78-4.21-1-5.43   c-1.72-1.19-4.07-0.81-5.33,0.86l-26.53,36.65c-1.32,1.71-1.01,4.16,0.7,5.48c1.71,1.32,4.16,1.01,5.48-0.7   c0.05-0.07,0.1-0.14,0.15-0.21L248.41,224.7z M10.94,312.8c2.16,0,3.91-1.76,3.91-3.92c0-0.31-0.04-0.62-0.11-0.92   c-0.6-2.44-1.16-4.9-1.69-7.38c-0.38-1.8-1.97-3.09-3.82-3.09c-0.27,0-0.55,0.03-0.82,0.09c-2.11,0.45-3.46,2.52-3.01,4.63   c0.12,0.56,0.23,1.11,0.36,1.67v0.01l0.08,0.35v0.02l0.03,0.1v0.02l0.05,0.23l0.02,0.11l0,0.02l0.02,0.09v0.02l0.05,0.23v0.01   l0.03,0.1v0.02l0.02,0.09l0,0.02l0.05,0.23v0.01l0.02,0.1v0.02l0.03,0.1v0.01l0.05,0.23v0.02l0.03,0.1v0.02l0.03,0.11v0.01   l0.05,0.23l0.03,0.11v0.02l0.03,0.11v0.01l0.05,0.23l0,0.02l0.02,0.09l0,0.03l0.02,0.1l0,0.02l0.03,0.11v0.01l0.02,0.09l0.01,0.04   l0.02,0.07l0.01,0.04l0.02,0.07l0.01,0.04l0.02,0.1l0.02,0.06l0.01,0.04l0.02,0.07l0.01,0.04l0.02,0.07v0.02l0.43,1.75   C7.59,311.58,9.15,312.8,10.94,312.8L10.94,312.8z M200.77,487.23c-2.47-0.51-4.94-1.06-7.38-1.64c-0.3-0.07-0.61-0.11-0.91-0.11   c-2.16,0-3.91,1.74-3.92,3.9c0,1.81,1.24,3.39,3,3.81l0.03,0.01l0.05,0.02l0.06,0.01l0.05,0.01l0.11,0.03l0.04,0.01l0.06,0.01   l0.04,0.01l0.07,0.02l0.04,0.01l0.06,0.02l0.02,0l0.15,0.04l0.02,0.01l0.08,0.02l0.02,0.01l0.08,0.02h0.02l0.26,0.06l0,0l0.08,0.02   l0.03,0l0.08,0.02l0.02,0l0.27,0.06h0l0.09,0.02h0.02l0.09,0.02h0.01l0.27,0.07l0.09,0.02h0.01c0.13,0.04,0.24,0.06,0.37,0.09h0   l0.09,0.02h0.01l0.46,0.11h0.01l0.37,0.08l0.1,0.02l0.47,0.1h0c1.14,0.25,2.29,0.5,3.43,0.74c0.26,0.05,0.52,0.08,0.78,0.08   c2.16,0,3.91-1.75,3.91-3.9C203.9,489.2,202.59,487.6,200.77,487.23L200.77,487.23z M13.15,330.38L13.15,330.38l0.09,0.27l0,0.01   l0.02,0.05l0.02,0.05l0.02,0.05l0.02,0.07l0.01,0.03l0.47,1.37c0.71,2.04,2.94,3.12,4.97,2.41c2.04-0.71,3.12-2.94,2.41-4.97   c-0.83-2.38-1.62-4.77-2.38-7.18c-0.65-2.06-2.84-3.21-4.9-2.56c-2.06,0.65-3.21,2.84-2.56,4.9l0.37,1.16l0.01,0.02l0.02,0.09   l0.01,0.03l0.02,0.07l0.01,0.04l0.03,0.08l0.02,0.08l0.01,0.04l0.02,0.07l0.01,0.04l0.02,0.07v0   C12.32,327.91,12.73,329.15,13.15,330.38z M159.81,17.03c-0.49,0-0.97,0.09-1.43,0.27l-0.17,0.07l-0.01,0l-0.08,0.04l-0.01,0   l-0.25,0.1l-0.01,0l-0.08,0.03l-0.02,0.01c-0.11,0.04-0.22,0.09-0.33,0.13l-0.02,0.01l-0.07,0.03l-0.02,0.01l-0.23,0.09l-0.02,0.01   l-0.07,0.03l-0.03,0.01l-0.07,0.03l-0.02,0.01c-0.05,0.02-0.1,0.04-0.16,0.06h0l-0.08,0.03l-0.02,0.01l-0.07,0.03l-0.02,0.01   l-0.23,0.09l-0.02,0.01l-0.07,0.03l-0.03,0.01l-0.07,0.03l-0.01,0.01l-0.24,0.09l-0.03,0.01l-0.07,0.03l-0.02,0.01l-0.23,0.09   l-0.03,0.01l-0.07,0.03l-0.03,0.01l-0.07,0.03l-0.02,0.01l-0.25,0.1l-0.01,0l-0.08,0.04h-0.02l-0.34,0.14l-0.01,0   c-1.15,0.47-2.29,0.96-3.43,1.45c-1.96,0.9-2.81,3.23-1.91,5.18c0.87,1.89,3.08,2.77,5.01,1.98c2.32-0.99,4.65-1.96,7-2.88   c2.01-0.79,2.99-3.06,2.2-5.07C162.85,18.02,161.41,17.04,159.81,17.03L159.81,17.03z M178.79,481.6c-2.42-0.74-4.82-1.52-7.2-2.33   c-0.41-0.14-0.83-0.21-1.27-0.21c-2.16,0-3.9,1.75-3.9,3.91c0,1.67,1.06,3.15,2.64,3.69c1.04,0.35,2.08,0.7,3.12,1.04h0l0.11,0.04   c0.08,0.02,0.15,0.05,0.23,0.08l0.02,0l0.08,0.03l0.03,0.01l0.08,0.02l0.03,0.01l0.1,0.03l0.04,0.02l0.07,0.02l0.05,0.02l0.05,0.02   l0.06,0.02l0.04,0.01l0.23,0.07l0.02,0.01l0.08,0.03l0.01,0c0.98,0.31,1.93,0.61,2.91,0.92h0.02l0.05,0.02   c0.37,0.11,0.75,0.17,1.14,0.17c2.16,0,3.91-1.75,3.91-3.9C181.55,483.62,180.43,482.1,178.79,481.6L178.79,481.6z M174.29,19.67   c0.41,0,0.81-0.06,1.2-0.19c2.4-0.77,4.81-1.51,7.23-2.21c2.07-0.6,3.27-2.76,2.67-4.83c-0.48-1.67-2.01-2.83-3.75-2.83   c-0.36,0-0.72,0.05-1.07,0.15c-2.19,0.63-4.35,1.29-6.51,1.97h-0.02l-0.08,0.03l-0.02,0.01l-0.23,0.07l-0.03,0.01l-0.06,0.02   l-0.05,0.02l-0.05,0.02l-0.06,0.02l-0.04,0.02l-0.11,0.03l-0.03,0.01L173.22,12l-0.04,0.01l-0.08,0.03l-0.02,0.01   c-2.05,0.67-3.17,2.87-2.51,4.92C171.1,18.57,172.6,19.66,174.29,19.67z M157.43,473.92c-2.33-0.96-4.65-1.96-6.95-3   c-1.98-0.85-4.28,0.06-5.13,2.04c-0.83,1.93,0.01,4.17,1.91,5.07l0.06,0.03l0.01,0l0.08,0.04h0c2.33,1.05,4.67,2.06,7.04,3.04   c0.47,0.19,0.97,0.29,1.48,0.29c2.16,0,3.91-1.75,3.91-3.91C159.85,475.95,158.89,474.52,157.43,473.92z M136.91,464.25l-1.99-1.05   c22.84-31.45,15.86-75.46-15.6-98.3s-75.46-15.86-98.3,15.6s-15.86,75.46,15.6,98.3c28.96,21.03,69.09,16.97,93.26-9.42   c0.04,0,0.04,0,0.04,0.04H130c0,0.02,0.02,0.04,0.04,0.04l0,0c0.02,0,0.04,0.02,0.04,0.04l0,0h0.04c0.04,0.04,0.08,0.04,0.12,0.08   h0.04l0.04,0.04h0.04c0.04,0.04,0.04,0.04,0.08,0.04c0,0.04,0,0.04,0.04,0.04c0.02,0.02,0.05,0.03,0.08,0.04h0.04   c0,0.04,0.04,0.04,0.08,0.04v0.04c0.03,0,0.06,0.02,0.08,0.04h0.04c0.08,0.04,0.12,0.08,0.2,0.12c0.04,0.04,0.08,0.04,0.12,0.08   c0.7,0.39,1.45,0.74,2.15,1.13c0.56,0.31,1.19,0.47,1.84,0.47c2.17-0.01,3.92-1.78,3.9-3.95   C138.97,466.25,138.18,464.93,136.91,464.25L136.91,464.25z M127.34,460.23c-1.03,0.28-1.9,0.95-2.42,1.88   c-0.27,0.48-0.43,1.01-0.47,1.56c-23.14,25.59-62.65,27.58-88.24,4.44c-25.59-23.14-27.58-62.65-4.44-88.24   c23.14-25.59,62.65-27.58,88.24-4.44C144.31,397.4,147.51,434.41,127.34,460.23z M22.24,353.36L22.24,353.36l0.05,0.1l0.01,0.02   l0.04,0.09l0.01,0.02l0.04,0.09l0.02,0.05l0.02,0.04l0.03,0.07l0.01,0.02l0.08,0.17c0.95,1.94,3.29,2.73,5.23,1.78   c1.86-0.92,2.68-3.13,1.87-5.04c-1.05-2.29-2.06-4.6-3.04-6.93c-0.61-1.45-2.03-2.4-3.61-2.4c-0.52,0-1.03,0.11-1.51,0.31   c-1.99,0.84-2.92,3.13-2.09,5.11C20.32,349.05,21.27,351.22,22.24,353.36z M474.89,159.98c0.94,2.34,1.84,4.7,2.7,7.07   c0.74,2.03,2.98,3.07,5.01,2.33c2.03-0.74,3.07-2.98,2.33-5.01l0,0c-0.71-1.95-1.45-3.89-2.21-5.82v0   c-0.03-0.07-0.06-0.15-0.09-0.22l-0.01-0.01l-0.04-0.09l-0.02-0.04l-0.02-0.05l-0.02-0.05l-0.01-0.03l-0.09-0.23v-0.01l-0.3-0.74   c-0.84-1.99-3.13-2.92-5.12-2.09C475.07,155.8,474.13,158.01,474.89,159.98z M489.11,191.51c2.08-0.54,3.34-2.67,2.8-4.75   c-0.16-0.61-0.32-1.22-0.49-1.84v-0.01l-0.09-0.34l-0.01-0.04l-0.02-0.06l-0.01-0.04l-0.02-0.07l-0.01-0.04l-0.02-0.09l-0.02-0.06   l-0.02-0.05l-0.02-0.06l-0.01-0.04l-0.02-0.07l-0.01-0.04l-0.03-0.11v0l-0.03-0.11l0-0.02l-0.03-0.09l0-0.02   c-0.4-1.45-0.81-2.89-1.24-4.33c-0.49-1.66-2.01-2.8-3.74-2.8c-0.37,0-0.75,0.05-1.11,0.16c-2.07,0.61-3.25,2.78-2.65,4.84   c0,0,0,0,0,0c0.71,2.42,1.39,4.85,2.03,7.29c0.45,1.72,2,2.92,3.77,2.92C488.46,191.64,488.79,191.59,489.11,191.51L489.11,191.51z    M494.49,221.66c-2.15,0.21-3.72,2.12-3.5,4.27c0,0,0,0,0,0c0.25,2.5,0.46,5.01,0.63,7.54c0.14,2.05,1.84,3.64,3.89,3.64   c0.09,0,0.18,0,0.27-0.01c2.15-0.15,3.77-2,3.63-4.14c-0.01-0.23-0.03-0.45-0.05-0.68v-0.02l0-0.08l0-0.04l0-0.07l0-0.05   l-0.01-0.09l0-0.08l0-0.04l-0.01-0.07v-0.04l0-0.08v-0.03l-0.01-0.11v-0.01l-0.01-0.12v-0.01l-0.01-0.11v-0.02l-0.01-0.1v-0.02   l-0.01-0.11V231l-0.02-0.24v-0.01l-0.01-0.1v-0.02l-0.01-0.1v-0.02l-0.02-0.23v-0.02l-0.01-0.09v-0.04l-0.01-0.08l0-0.04   l-0.01-0.08v-0.03l-0.01-0.11v-0.05l-0.01-0.05l0-0.06v-0.04l-0.01-0.07v-0.04l-0.01-0.08c-0.12-1.42-0.24-2.83-0.38-4.24   c-0.2-1.99-1.88-3.51-3.88-3.51C494.75,221.64,494.63,221.65,494.49,221.66L494.49,221.66z M7.08,290.13   c2.13-0.31,3.61-2.3,3.3-4.43c0,0,0,0,0-0.01c-0.37-2.49-0.7-4.99-0.99-7.5c-0.23-1.97-1.89-3.46-3.88-3.46   c-0.15,0-0.3,0.01-0.46,0.03c-2.14,0.25-3.67,2.18-3.43,4.32c0.19,1.65,0.39,3.29,0.62,4.93v0.01l0.02,0.09v0.02l0.01,0.08l0,0.02   l0.02,0.14l0.01,0.05l0,0.05l0.01,0.06l0,0.04l0.01,0.08l0.01,0.04c0.1,0.72,0.2,1.44,0.31,2.16c0.28,1.91,1.92,3.33,3.86,3.34   C6.69,290.17,6.88,290.16,7.08,290.13z M490.79,198.89c-2.12,0.41-3.5,2.46-3.09,4.58c0.48,2.47,0.92,4.96,1.33,7.45   c0.31,2.13,2.3,3.61,4.43,3.3c2.13-0.31,3.61-2.3,3.3-4.43c-0.01-0.04-0.01-0.08-0.02-0.12l-0.16-0.96l0-0.02l-0.02-0.09l0-0.02   l-0.02-0.1v-0.02l-0.02-0.1l-0.01-0.06l-0.01-0.04l-0.01-0.07l0-0.03l-0.02-0.08c-0.24-1.41-0.49-2.82-0.75-4.23v-0.02l-0.02-0.09   v-0.01l-0.05-0.25l-0.01-0.05l-0.01-0.06l-0.01-0.05l-0.01-0.05l-0.02-0.08l-0.01-0.03l-0.02-0.11v-0.01l-0.02-0.1l-0.01-0.03   l-0.02-0.1v-0.01l-0.16-0.84c-0.36-1.83-1.96-3.16-3.83-3.16C491.29,198.82,491.04,198.85,490.79,198.89L490.79,198.89z    M142.26,28.63c-0.98-1.92-3.33-2.69-5.25-1.72l-0.05,0.02c1.68,1.93,3.26,3.94,4.75,6.02C142.76,31.76,142.98,30.05,142.26,28.63z    M4.42,267.21c2.15-0.12,3.8-1.95,3.69-4.11c-0.13-2.51-0.23-5.03-0.29-7.57c-0.05-2.12-1.78-3.82-3.91-3.82H3.84   c-2.16,0.05-3.87,1.83-3.82,3.99l0.01,0.48v0.02l0,0.09v0.12l0,0.02v0.12l0.01,0.11v0.22l0,0.07v0.03l0.01,0.27v0l0,0.1v0.11   c0.06,2.03,0.15,4.04,0.25,6.05c0.12,2.07,1.82,3.68,3.89,3.69C4.28,267.22,4.35,267.22,4.42,267.21L4.42,267.21z M20.06,173.59   c0.8-2.4,1.63-4.78,2.5-7.15c0.79-2.01-0.2-4.28-2.2-5.07c-2.01-0.79-4.28,0.2-5.07,2.2c-0.02,0.06-0.04,0.11-0.06,0.17l-0.42,1.14   L14.77,165l0,0.01l-0.08,0.22l-0.01,0.02l-0.03,0.08l-0.01,0.04l-0.03,0.07l-0.01,0.03l-0.03,0.08l-0.03,0.07l-0.02,0.05   l-0.02,0.06l-0.02,0.04l-0.02,0.06l-0.02,0.05l-0.08,0.21l-0.01,0.04l-0.02,0.06l-0.02,0.05l-0.02,0.05l-0.02,0.04l-0.04,0.12   l-0.02,0.03l-0.02,0.06l-0.02,0.04l-0.02,0.06l-0.02,0.05l-0.02,0.06l-0.03,0.08l-0.02,0.05l-0.03,0.07l-0.01,0.04l-0.02,0.07   l-0.02,0.04L14,167.17l-0.01,0.03l-0.04,0.1l0,0.02l-0.03,0.08l-0.01,0.03l-0.03,0.09l0,0.02c-0.42,1.18-0.82,2.38-1.22,3.58   c-0.68,2.05,0.43,4.26,2.47,4.94c0.4,0.13,0.82,0.2,1.23,0.2C18.04,176.26,19.53,175.18,20.06,173.59L20.06,173.59z M29.56,140.33   c-1.95-0.93-4.27-0.11-5.21,1.83l-0.03,0.06v0l-0.04,0.08l-0.01,0.02l-0.11,0.22l-0.02,0.03l-0.03,0.06l-0.02,0.04l-0.02,0.05   l-0.03,0.06l-0.03,0.07l-0.03,0.06l-0.02,0.04l-0.03,0.06l-0.02,0.04l-0.03,0.07l-0.02,0.03l-0.04,0.09l-0.02,0.04l-0.03,0.07   l-0.02,0.04l-0.03,0.06l-0.02,0.04l-0.04,0.09l-0.02,0.04l-0.04,0.07l-0.02,0.04l-0.03,0.06l-0.02,0.04l-0.02,0.05l-0.04,0.08   l-0.03,0.06l-0.03,0.05l-0.02,0.04l-0.03,0.06l-0.02,0.04l-0.03,0.07l-0.01,0.01l-0.07,0.16l0,0.01l-0.04,0.08l0,0.01   c-0.73,1.57-1.45,3.15-2.15,4.74c-0.87,1.98,0.03,4.28,2.01,5.15s4.28-0.03,5.15-2.01c1.02-2.31,2.07-4.61,3.16-6.88   C32.33,143.59,31.5,141.26,29.56,140.33C29.56,140.33,29.56,140.33,29.56,140.33L29.56,140.33z M3.89,244.14l0.16,0   c2.1,0,3.82-1.66,3.9-3.75c0.1-2.53,0.24-5.05,0.41-7.56c0.15-2.15-1.47-4.02-3.62-4.17c0,0,0,0,0,0l-0.27-0.01   c-2.05,0-3.75,1.59-3.89,3.63l-0.08,1.09v0.02l0,0.09l0,0.05l0,0.06l0,0.06v0.04c-0.14,2.13-0.25,4.27-0.34,6.4   C0.06,242.24,1.74,244.05,3.89,244.14z M9.25,198.37c2.1,0.49,4.2-0.82,4.69-2.93c0,0,0,0,0,0c0.57-2.46,1.17-4.91,1.81-7.34   c0.61-2.07-0.57-4.24-2.64-4.85c-2.07-0.61-4.24,0.57-4.85,2.64c-0.02,0.07-0.04,0.15-0.06,0.22c-0.39,1.49-0.77,2.99-1.14,4.49v0   L7,190.83l-0.03,0.11l0,0.02l-0.02,0.08l0,0.04l-0.02,0.08l0,0.03l-0.03,0.11l-0.01,0.05l-0.01,0.06l-0.01,0.05l-0.02,0.05   l-0.01,0.06l-0.01,0.04l-0.05,0.24l-0.01,0.02l-0.02,0.08v0.02l-0.41,1.74C5.84,195.8,7.15,197.88,9.25,198.37z M5.5,221.13   c0.17,0.02,0.35,0.03,0.52,0.03c1.96,0,3.61-1.45,3.87-3.39c0.33-2.51,0.7-5.01,1.11-7.49c0.35-2.13-1.09-4.14-3.22-4.49   c0,0,0,0,0,0c-0.21-0.03-0.43-0.05-0.64-0.05c-1.9,0-3.53,1.37-3.85,3.25c-0.13,0.79-0.25,1.57-0.38,2.36v0.01l-0.02,0.09l0,0.02   l-0.04,0.24l0,0.05l-0.01,0.06l-0.01,0.05l-0.01,0.05l-0.01,0.07l0,0.04l-0.02,0.11l0,0.02l-0.01,0.09l-0.01,0.03l-0.01,0.08   l0,0.03l-0.02,0.1v0.02l-0.04,0.23v0.01l-0.02,0.11v0.02l-0.02,0.11c-0.02,0.12-0.03,0.24-0.05,0.36   c-0.17,1.13-0.33,2.26-0.48,3.39C1.86,218.88,3.37,220.84,5.5,221.13L5.5,221.13z M196.54,13.63c0.28,0,0.57-0.03,0.85-0.09   c2.46-0.55,4.93-1.05,7.41-1.52c2.13-0.35,3.57-2.36,3.21-4.49s-2.36-3.57-4.49-3.21c-0.06,0.01-0.11,0.02-0.17,0.03   c-2.57,0.48-5.12,1.01-7.65,1.57c-2.11,0.47-3.43,2.56-2.96,4.66C193.14,12.35,194.72,13.62,196.54,13.63z M495.48,267.75   c-0.11-0.01-0.23-0.01-0.34-0.02c-2.03,0-3.71,1.55-3.89,3.57c-0.22,2.52-0.48,5.03-0.77,7.53c-0.25,2.14,1.28,4.09,3.42,4.34   c0.16,0.02,0.31,0.03,0.47,0.03c1.97-0.01,3.63-1.48,3.87-3.44c0.16-1.35,0.31-2.71,0.45-4.07l0-0.02l0.01-0.08v-0.03l0.01-0.08   v-0.01l0.03-0.27l0-0.04l0.01-0.06v-0.05l0.01-0.06v-0.05l0.01-0.06l0.01-0.1v-0.04l0.01-0.07l0.01-0.05l0-0.07l0.01-0.04   l0.01-0.08v-0.03l0.01-0.12l0.01-0.11v-0.02l0.01-0.1v-0.02l0.01-0.11v-0.01c0.06-0.65,0.12-1.3,0.18-1.95   C499.22,269.83,497.63,267.94,495.48,267.75C495.48,267.75,495.48,267.75,495.48,267.75L495.48,267.75z M499.98,249.24v-0.7   c-0.02-2.14-1.75-3.87-3.89-3.87h-0.02c-2.16,0.02-3.9,1.78-3.89,3.94v1.41c0,2.06-0.03,4.11-0.08,6.16   c-0.06,2.16,1.65,3.95,3.8,4.01c0,0,0,0,0.01,0h0.1c2.12,0,3.86-1.69,3.91-3.81l0.02-0.78v-0.12l0-0.06v-0.09l0-0.05v-0.14l0-0.07   v-0.12l0-0.08v-0.12l0-0.09v-0.1c0.02-0.81,0.03-1.61,0.04-2.42v-0.51l0-0.09v-0.79l0-0.02v-1.43L499.98,249.24z M492.77,290.66   c-0.23-0.04-0.47-0.06-0.7-0.06c-1.89,0-3.5,1.35-3.84,3.2c-0.45,2.49-0.95,4.97-1.48,7.42c-0.45,2.11,0.89,4.19,3,4.64   c0.27,0.06,0.55,0.09,0.83,0.09c1.83,0,3.42-1.28,3.81-3.07c0.44-2.05,0.86-4.11,1.25-6.18v-0.04l0.02-0.05l0.01-0.06l0-0.05   l0.02-0.09v-0.02c0.08-0.4,0.15-0.8,0.22-1.2C496.3,293.08,494.89,291.04,492.77,290.66L492.77,290.66z M476.67,349.88   c1.57,0,2.98-0.94,3.59-2.38l0.52-1.24l0.05-0.11l0-0.02l0.04-0.11l0.05-0.12l0.04-0.1l0.01-0.02l0.04-0.08l0.01-0.03l0.09-0.21   l0.01-0.02l0.04-0.08l0.01-0.04l0.04-0.09l0.01-0.02l0.04-0.11v0l0.04-0.1l0.02-0.03l0.03-0.08l0.01-0.02l0.04-0.1l0.05-0.11   l0-0.01l0.04-0.09l0.01-0.02l0.04-0.1l0,0l0.09-0.23l0.04-0.11l0,0c0.52-1.28,1.03-2.57,1.53-3.86c0.8-2-0.17-4.28-2.18-5.08   c-2-0.8-4.28,0.17-5.08,2.18c-0.01,0.03-0.02,0.05-0.03,0.08c-0.91,2.35-1.86,4.69-2.84,7.01c-0.84,1.98,0.09,4.27,2.07,5.12   C475.63,349.77,476.15,349.88,476.67,349.88L476.67,349.88z M484.66,328.24c1.7,0,3.21-1.1,3.72-2.73   c0.79-2.48,1.53-4.98,2.24-7.49c0.65-2.06-0.5-4.25-2.56-4.9c-2.06-0.65-4.25,0.5-4.9,2.56c-0.02,0.07-0.04,0.14-0.06,0.22   c-0.69,2.44-1.41,4.85-2.17,7.25c-0.65,2.06,0.49,4.25,2.55,4.9C483.86,328.18,484.26,328.24,484.66,328.24z M268.86,491.51   l-0.3,0.01c-2.51,0.19-5.03,0.35-7.56,0.46c-2.16,0.1-3.82,1.92-3.73,4.08c0.09,2.09,1.81,3.73,3.9,3.73l0.18,0   c1.88-0.09,3.74-0.19,5.61-0.31h0.01l0.1-0.01h0.02l0.1,0h0.02l0.11-0.01l0.04,0l0.07,0l0.06,0l0.05,0l0.07,0l0.04,0l1.53-0.11   c2.15-0.17,3.76-2.05,3.59-4.2C272.6,493.07,270.9,491.5,268.86,491.51z M265.75,8.32c2.53,0.16,5.04,0.36,7.54,0.6   c0.12,0.01,0.25,0.02,0.38,0.02c2.16-0.01,3.9-1.77,3.89-3.93c-0.01-2-1.53-3.67-3.52-3.87c-1.98-0.19-3.97-0.36-5.96-0.5   l-0.12-0.01h-0.02l-0.09-0.01h-0.03l-0.09,0h-0.03l-0.11-0.01h-0.06l-0.04-0.01l-0.08-0.01h-0.02l-1.17-0.08l-0.24,0   c-2.16,0-3.91,1.75-3.91,3.91C262.09,6.49,263.7,8.19,265.75,8.32L265.75,8.32z M291.75,488.69c-0.22,0-0.44,0.02-0.66,0.05   c-2.48,0.42-4.97,0.81-7.48,1.16c-2.14,0.3-3.62,2.28-3.32,4.42c0.27,1.92,1.91,3.35,3.85,3.36c0.18,0,0.36-0.01,0.53-0.03   c0.84-0.12,1.66-0.23,2.49-0.36l0.01,0l0.09-0.01l0.01,0l0.27-0.04h0.02l0.07-0.02h0.04l0.06-0.02l0.05-0.01l0.06-0.01l0.1-0.01   l0.03-0.01l0.08-0.01l0.04,0l0.08-0.01l0.04-0.01l0.08-0.01l0.03,0l0.23-0.04h0.02l0.1-0.02h0.01c1.24-0.2,2.49-0.4,3.72-0.61   c2.13-0.36,3.56-2.38,3.2-4.5C295.29,490.07,293.66,488.69,291.75,488.69z M242.27,7.93h0.12c2.51-0.08,5.04-0.12,7.57-0.12h0.65   c2.16,0,3.91-1.74,3.91-3.9S252.79,0,250.64,0h-1.66l-0.07,0h-0.61l-0.08,0h-0.79l-0.07,0.01h-0.64l-0.08,0.01h-0.41   c-1.37,0.02-2.73,0.05-4.09,0.1c-2.16,0.04-3.88,1.82-3.84,3.97C238.34,6.25,240.11,7.97,242.27,7.93L242.27,7.93z M223.19,490.76   c-2.51-0.28-5.02-0.59-7.51-0.95c-2.13-0.34-4.13,1.11-4.47,3.24c-0.34,2.13,1.11,4.13,3.24,4.47c0.04,0.01,0.09,0.01,0.13,0.02   l1.32,0.18c0.04,0.01,0.07,0.01,0.11,0.02l0.02,0l0.11,0.02h0.01l0.12,0.02h0.02l0.09,0.02h0.04l0.07,0.02h0.05l0.05,0.01   l0.06,0.01l0.04,0.01l0.14,0.02h0.02l0.08,0.01l0.03,0l0.08,0.01l0.02,0l0.08,0.01l0.01,0l0.28,0.04h0.02   c0.03,0,0.06,0.01,0.09,0.02h0.01l0.38,0.05h0.01l0.09,0.01l0.02,0l0.08,0.01l0.02,0l0.27,0.04h0.02l0.08,0.01l0.03,0l0.08,0.01   l0.02,0l0.23,0.03l0.05,0.01l0.06,0.01h0.05l0.05,0.01l0.06,0.01h0.05l0.11,0.02h0.01l0.1,0.01l0.04,0.01l0.08,0.01l0.03,0   l0.1,0.01l0.01,0c0.89,0.11,1.78,0.21,2.67,0.3c0.14,0.02,0.29,0.03,0.43,0.03c2.16,0,3.9-1.75,3.9-3.91   C226.67,492.65,225.17,490.98,223.19,490.76L223.19,490.76z M219.27,9.71c0.16,0,0.33-0.01,0.49-0.04c2.49-0.31,5-0.58,7.52-0.81   c2.15-0.16,3.76-2.04,3.6-4.19c-0.16-2.06-1.89-3.64-3.95-3.61c-0.12,0-0.25,0-0.37,0.02l-1.21,0.12h-0.02l-0.11,0.02h-0.01   l-0.23,0.02l-0.04,0l-0.07,0.01l-0.05,0l-0.06,0.01l-0.05,0l-0.05,0l-0.24,0.03l-0.03,0l-0.08,0.01h-0.03l-0.08,0.01h-0.01   l-0.39,0.04l-1.57,0.17h-0.02l-0.09,0.01h0c-0.09,0.01-0.18,0.02-0.27,0.03l-0.02,0l-0.08,0.01l-0.03,0l-0.07,0.01l-0.04,0.01   l-0.06,0l-0.07,0.01l-0.07,0.01l-0.08,0.01l-0.04,0l-0.08,0.01h-0.04l-0.09,0.02h-0.02c-0.12,0.02-0.23,0.03-0.35,0.04l-1.94,0.23   c-2.14,0.25-3.67,2.2-3.42,4.34C215.61,8.23,217.28,9.72,219.27,9.71L219.27,9.71z M245.85,492.19c-2.53-0.04-5.05-0.12-7.57-0.24   l-0.19-0.01c-2.16-0.01-3.91,1.74-3.92,3.9c0,2.09,1.64,3.82,3.73,3.91l1.21,0.05h0.01l0.1,0h0.03l0.09,0h0.03l0.1,0l0.01,0l0.11,0   h0.05l0.05,0l0.06,0h0.04l0.07,0h0.04l0.27,0.01l0.09,0h0.02l0.09,0h0.02l0.09,0l0.4,0.02l0.6,0.02h0.01l0.48,0.02h0.13l0.08,0.01   h0.01c0.09,0,0.18,0,0.27,0.01h0.14l0.07,0.01h0.17l0.08,0.01h0.23l0.08,0.01h0.14l0.24,0.01h0.13l1.95,0.04h0.07   c2.16,0.02,3.92-1.72,3.94-3.88C249.75,493.97,248.01,492.2,245.85,492.19L245.85,492.19z M336.23,476.68   c-0.47,0-0.93,0.09-1.37,0.25c-2.36,0.88-4.74,1.73-7.13,2.54c-2.05,0.66-3.18,2.86-2.52,4.92c0.66,2.05,2.86,3.18,4.92,2.52   c0.03-0.01,0.06-0.02,0.1-0.03c0.79-0.27,1.58-0.54,2.37-0.82h0l0.35-0.12l0.02-0.01l0.08-0.03l0.02-0.01l0.24-0.09l0.02-0.01   l0.07-0.02l0.03-0.01l0.07-0.03l0.02-0.01l0.23-0.08l0.04-0.02l0.06-0.02l0.03-0.01l0.07-0.02l0.02-0.01l0.13-0.05l0.04-0.02   l0.06-0.02l0.04-0.02l0.06-0.02l0.05-0.02l0.05-0.02l0.09-0.04l0.05-0.02l0.05-0.02l0.05-0.02l0.05-0.02l0.05-0.01l0.05-0.02   l0.09-0.03l0.06-0.02l0.05-0.02l0.05-0.02l0.05-0.02l0.05-0.02l0.05-0.01l0.07-0.03l0.08-0.03l0.05-0.02l0.05-0.02l0.05-0.02   l0.05-0.02l0.05-0.02l0.05-0.02l0.09-0.04l0.05-0.02l0.05-0.02l0.05-0.02l0.05-0.02l0.05-0.02l0.04-0.02l0.11-0.04l0.03-0.01   l0.07-0.02l0.04-0.02l0.06-0.02l0.03-0.01l0.23-0.08l0.02-0.01l0.08-0.03l0.02-0.01l0.08-0.03l0.78-0.29c2.02-0.75,3.05-3,2.3-5.03   C339.33,477.69,337.86,476.67,336.23,476.68L336.23,476.68z M288.31,10.83c2.5,0.4,4.98,0.83,7.45,1.3   c0.24,0.05,0.49,0.07,0.74,0.07c2.16-0.01,3.9-1.76,3.9-3.92c-0.01-1.87-1.33-3.47-3.17-3.83c-2.55-0.49-5.12-0.94-7.7-1.35   c-0.2-0.03-0.41-0.05-0.62-0.05c-2.16,0.01-3.9,1.77-3.89,3.92C285.04,8.9,286.43,10.53,288.31,10.83z M342.18,17.56   c-1.96-0.78-3.94-1.53-5.92-2.26h-0.01l-0.1-0.04l-0.01-0.01l-0.22-0.08l-0.02-0.01l-0.08-0.03l-0.04-0.01l-0.07-0.03l-0.03-0.01   l-0.1-0.03l-0.05-0.02L335.47,15l-0.05-0.02l-0.04-0.02l-0.07-0.02l-0.02-0.01l-0.25-0.09l-0.17-0.06c-2.03-0.73-4.27,0.32-5,2.35   c-0.73,2.03,0.32,4.27,2.35,5c2.38,0.86,4.73,1.75,7.07,2.68c2.01,0.8,4.28-0.18,5.07-2.19S344.18,18.35,342.18,17.56z    M314.27,483.74c-0.34,0-0.68,0.04-1.02,0.13c-2.43,0.66-4.88,1.28-7.34,1.86c-2.09,0.53-3.36,2.65-2.83,4.75   c0.52,2.04,2.55,3.3,4.61,2.86c1.49-0.35,2.98-0.72,4.47-1.1l0.01,0l0.08-0.02l0.02-0.01l0.24-0.06l0.04-0.01l0.06-0.01l0.05-0.02   l0.05-0.01l0.06-0.02l0.04-0.01l0.11-0.03l0.03-0.01l0.08-0.02l0.04-0.01l0.08-0.02l0.03-0.01l0.22-0.05h0.01l0.11-0.03h0   l1.77-0.47c2.08-0.56,3.32-2.7,2.76-4.78C317.59,484.93,316.04,483.74,314.27,483.74z M310.53,15.45c2.45,0.63,4.88,1.3,7.3,2   c2.07,0.61,4.24-0.58,4.85-2.65s-0.58-4.24-2.65-4.85c0,0,0,0-0.01,0c-2.5-0.73-5.01-1.42-7.54-2.07   c-2.09-0.54-4.22,0.72-4.76,2.81S308.44,14.91,310.53,15.45z M357.42,467.59c-0.59,0-1.17,0.13-1.7,0.39   c-2.27,1.1-4.55,2.17-6.86,3.2c-1.96,0.91-2.81,3.23-1.9,5.19c0.89,1.91,3.13,2.77,5.07,1.95c1.4-0.63,2.8-1.27,4.18-1.91   l0.01-0.01l0.08-0.04l0.02-0.01l0.23-0.1l0.03-0.02l0.06-0.03l0.04-0.02l0.06-0.02l0.04-0.02l0.09-0.04l0.05-0.03l0.05-0.02   l0.06-0.03l0.04-0.02l0.06-0.03l0.04-0.02l0.09-0.04l0.04-0.02l0.06-0.03l0.04-0.02l0.06-0.03l0.04-0.02l0.09-0.04l0.02-0.01   l0.09-0.04l0.03-0.02l0.07-0.04l0.04-0.01l0.08-0.04l0.02-0.01l0.1-0.05l0.02-0.01l0.08-0.04l0.04-0.01l0.06-0.04l0.04-0.02   l0.09-0.05l0.01-0.01l0.09-0.04l0.05-0.02l0.05-0.03l0.05-0.02l0.04-0.02l0.21-0.1l0.02-0.01l0.07-0.04l0.02-0.01l0.17-0.08   c1.44-0.71,2.3-2.22,2.16-3.82c-0.87-1.06-1.66-2.19-2.46-3.3C358.38,467.7,357.9,467.6,357.42,467.59L357.42,467.59z    M473.73,361.67c0.99-1.91,0.23-4.27-1.68-5.25c-1.91-0.99-4.27-0.23-5.25,1.68l0,0c2.16,1.53,4.24,3.17,6.24,4.91   C473.26,362.56,473.5,362.12,473.73,361.67z M78.08,7.81C39.24,7.81,7.76,39.3,7.76,78.13s31.48,70.32,70.32,70.32   s70.32-31.48,70.32-70.32C148.4,39.3,116.91,7.82,78.08,7.81z M78.08,140.63c-34.52,0-62.5-27.98-62.5-62.5s27.98-62.5,62.5-62.5   s62.5,27.98,62.5,62.5C140.54,112.63,112.58,140.59,78.08,140.63z"></path>	<path class="st0" d="M111.83,61.64H94.57V44.38c0-2.93-2.38-5.31-5.31-5.31H66.91c-2.93,0-5.31,2.38-5.31,5.31v17.27H44.33   c-2.93,0-5.31,2.38-5.31,5.31V89.3c0,2.93,2.38,5.31,5.31,5.31h17.27v17.27c0,2.93,2.38,5.31,5.31,5.31h22.35   c2.93,0,5.31-2.38,5.31-5.31V94.62h17.27c2.93,0,5.31-2.38,5.31-5.31V66.96C117.14,64.02,114.77,61.65,111.83,61.64z M109.33,86.8   H86.75v22.58H69.41V86.8H46.83V69.46h22.58V46.88h17.34v22.58h22.58V86.8z"></path>	<path class="st12" d="M109.33,69.46V86.8H86.75v22.58H69.41V86.8H46.83V69.46h22.58V46.88h17.34v22.58H109.33z"></path>	<path class="st0" d="M421.85,351.59c-38.84,0-70.32,31.48-70.32,70.32s31.48,70.32,70.32,70.32s70.32-31.48,70.32-70.32   C492.17,383.07,460.69,351.59,421.85,351.59z M421.85,359.4c33.48,0.06,60.98,26.47,62.39,59.93h-24.22   c-0.97-0.01-1.91,0.35-2.62,1.02l-10.39,9.45l-4.34-7.93c-0.72-1.26-2.06-2.04-3.52-2.03c-1.47,0.03-2.81,0.89-3.44,2.23   l-7.19,15.31l-2.3-46.92c-0.1-1.88-1.53-3.42-3.4-3.67c-1.87-0.29-3.67,0.84-4.22,2.66l-8.95,27.66l-9.84-9.92   c-1.54-1.53-4.04-1.53-5.57,0.02c-0.29,0.29-0.53,0.63-0.72,1l-5.63,11.29h-28.44C360.79,385.97,388.31,359.46,421.85,359.4z    M421.85,484.41c-32.4-0.05-59.41-24.83-62.23-57.11h30.71c1.47,0,2.81-0.83,3.48-2.15l4.3-8.59l10.55,10.59   c1.52,1.53,3.99,1.54,5.52,0.03c0.44-0.43,0.77-0.96,0.96-1.55l4.34-13.4l1.99,41.14c0.11,1.79,1.41,3.28,3.16,3.63   c0.24,0.05,0.49,0.07,0.74,0.08c1.51-0.01,2.89-0.87,3.55-2.23l10.59-22.5l3.05,5.59c0.58,1.04,1.6,1.76,2.77,1.95   c1.18,0.2,2.38-0.15,3.28-0.94l12.93-11.8h22.54C481.36,459.49,454.32,484.37,421.85,484.41z M353.18,30.84   c1.63,0.77,3.24,1.58,4.85,2.38c1.54-2.18,3.2-4.28,4.95-6.29l-0.28-0.14l-0.09-0.04l-0.01,0c-0.09-0.04-0.16-0.08-0.25-0.13   l-0.08-0.04l-0.01,0l-0.33-0.16l-0.01,0l-0.08-0.04l-0.01,0c-1.61-0.8-3.22-1.59-4.84-2.36l-0.01,0l-0.07-0.04l-0.03-0.01   l-0.07-0.03l-0.04-0.02l-0.09-0.04l-0.06-0.03l-0.04-0.02l-0.07-0.04l-0.02,0c-1.95-0.92-4.28-0.08-5.2,1.87   C350.39,27.59,351.23,29.92,353.18,30.84L353.18,30.84z M473.03,137.03c-2.01,1.75-4.1,3.4-6.27,4.94   c0.69,1.38,1.39,2.76,2.06,4.16c0.93,1.95,3.27,2.77,5.21,1.83c1.93-0.93,2.76-3.23,1.85-5.17   C474.96,140.85,474,138.93,473.03,137.03z"></path>	<path class="st0" d="M421.85,7.81c-38.84,0-70.32,31.48-70.32,70.32s31.48,70.32,70.32,70.32s70.32-31.48,70.32-70.32   C492.17,39.3,460.69,7.82,421.85,7.81z M421.85,140.63c-34.52,0-62.5-27.98-62.5-62.5s27.98-62.5,62.5-62.5s62.5,27.98,62.5,62.5   C484.31,112.63,456.36,140.59,421.85,140.63z"></path>	<path class="st0" d="M445.29,66.41c-6.46-0.01-11.7,5.21-11.72,11.67c-0.01,5.03,3.2,9.5,7.97,11.11v4.73   c0.59,7.94-5.38,14.85-13.32,15.44c-7.94,0.59-14.85-5.38-15.44-13.32c-0.05-0.71-0.05-1.41,0-2.12v-8.36   c10.83-2.31,18.5-11.98,18.28-23.05V42.97c-0.01-2.15-1.75-3.9-3.91-3.91h-6.21c-2.16,0-3.91,1.75-3.91,3.91s1.75,3.91,3.91,3.91   h2.3V62.5c0.67,7.94-5.23,14.92-13.17,15.59c-7.94,0.67-14.92-5.23-15.59-13.17c-0.07-0.8-0.07-1.61,0-2.42V46.88h2.15   c2.16,0,3.91-1.75,3.91-3.91s-1.75-3.91-3.91-3.91h-6.06c-2.15,0.01-3.9,1.75-3.91,3.91V62.5c-0.22,11.07,7.45,20.74,18.28,23.05   v8.36c-0.61,12.25,8.83,22.68,21.09,23.29c12.25,0.61,22.68-8.83,23.29-21.09c0.04-0.73,0.04-1.47,0-2.2v-4.84   c6.06-2.23,9.16-8.95,6.93-15.01C454.6,69.46,450.2,66.4,445.29,66.41z M445.29,82.04c-2.16,0-3.91-1.75-3.91-3.91   c0-2.16,1.75-3.91,3.91-3.91s3.91,1.75,3.91,3.91C449.19,80.29,447.45,82.03,445.29,82.04z"></path>	<circle class="st7" cx="445.29" cy="78.13" r="3.91"></circle>	<path class="st7" d="M279.46,125.01c-2.27,5.63-3.95,7.81-8.36,7.81h-43.25c-4.88,0-6.21-2.07-8.13-7.81H279.46z"></path>	<path class="st0" d="M277.31,359.4h-54.69c-2.16,0-3.91,1.75-3.91,3.91c0,2.16,1.75,3.91,3.91,3.91h54.69   c2.16,0,3.91-1.75,3.91-3.91C281.22,361.15,279.47,359.4,277.31,359.4z M107.65,418.78c7.53-7.06,8-18.85,1.05-26.49   c-3.48-3.66-8.31-5.73-13.36-5.7c-4.95,0.03-9.7,1.94-13.28,5.35l-9.41,8.91c-1.29-0.72-2.69-1.21-4.14-1.45v-10h0.47   c2.16,0,3.91-1.75,3.91-3.91c0-2.16-1.75-3.91-3.91-3.91h-23.2c-2.16,0-3.91,1.75-3.91,3.91c0,2.16,1.75,3.91,3.91,3.91h0.47v10   c-6.42,1.01-11.15,6.55-11.13,13.05c0,0,0.31,29.42,0.7,30.12c-0.86,9.96,6.52,18.73,16.48,19.58c0.57,0.05,1.15,0.07,1.72,0.07   c4.94-0.01,9.69-1.91,13.28-5.31l10.51-9.96c3,9.03,11.39,15.16,20.9,15.27h0.08c12.55-0.25,22.51-10.63,22.26-23.18   C120.86,430.27,115.65,422.38,107.65,418.78z M54.06,391.9h6.64v7.03h-6.64V391.9z M42.92,412.45c-0.03-2.97,2.35-5.4,5.32-5.43   c0.01,0,0.02,0,0.03,0h17.81L42.92,428.9V412.45z M61.95,451.2c-2.13,2.05-4.97,3.19-7.93,3.2c-5.72,0.07-10.41-4.51-10.49-10.23   c0-0.24,0-0.48,0.02-0.71c0.16-3,1.48-5.83,3.67-7.89l18.09-17.07l15,15.35L61.95,451.2z M70.97,413.15l16.45-15.55   c2.14-2.03,4.98-3.18,7.93-3.2c2.89-0.03,5.66,1.15,7.66,3.24c4.05,4.55,3.67,11.51-0.86,15.59l-16.13,15.24L70.97,413.15z    M98.75,454.41c-6.56-0.11-12.23-4.61-13.83-10.98h27.74C111.04,449.82,105.33,454.32,98.75,454.41z M89.8,435.62l11.37-10.7   c2.98,0.49,5.72,1.93,7.81,4.1c1.79,1.84,3.07,4.11,3.71,6.6L89.8,435.62z"></path>	<path class="st12" d="M112.65,443.43c-1.8,7.66-9.47,12.41-17.13,10.6c-5.26-1.24-9.37-5.34-10.6-10.6H112.65z M112.69,435.62H89.8   l11.37-10.7c2.98,0.49,5.72,1.93,7.81,4.1C110.78,430.85,112.06,433.13,112.69,435.62z"></path>	<path class="st10" d="M102.14,413.23l-16.13,15.24l-15.04-15.31l16.45-15.55c2.14-2.03,4.98-3.18,7.93-3.2   c2.89-0.03,5.66,1.15,7.66,3.24C107.05,402.19,106.67,409.16,102.14,413.23z"></path>	<path class="st12" d="M80.31,433.86L61.95,451.2c-2.13,2.05-4.97,3.19-7.93,3.2c-5.72,0.07-10.41-4.51-10.49-10.23   c0-0.24,0-0.48,0.02-0.71c0.16-3,1.48-5.83,3.67-7.89l18.09-17.07L80.31,433.86z M54.06,391.9h6.64v7.03h-6.64V391.9z"></path>	<path class="st10" d="M66.09,407.02L42.92,428.9v-16.45c-0.03-2.97,2.35-5.4,5.32-5.43c0.01,0,0.02,0,0.03,0H66.09z"></path>	<path class="st13" d="M140.58,78.13c0,1.33-0.04,2.62-0.12,3.91c-2.15-34.46-31.82-60.65-66.28-58.5   c-31.46,1.96-56.54,27.04-58.5,58.5c-0.08-1.29-0.12-2.58-0.12-3.91c0.06-32.06,24.32-58.9,56.21-62.19   c1.02-0.12,2.03-0.2,3.09-0.23s2.15-0.08,3.2-0.08s2.15,0.04,3.2,0.08s2.07,0.12,3.09,0.23C116.26,19.23,140.52,46.07,140.58,78.13   z"></path>	<path class="st14" d="M140.58,78.13c-0.06,33.25-26.09,60.66-59.3,62.43c-1.05,0.04-2.11,0.08-3.2,0.08c-1.09,0-2.15-0.04-3.2-0.08   c-33.21-1.76-59.24-29.17-59.3-62.43c0-1.33,0.04-2.62,0.12-3.91c2.15,34.46,31.82,60.65,66.28,58.5   c31.46-1.96,56.54-27.04,58.5-58.5C140.55,75.51,140.58,76.8,140.58,78.13z"></path>	<path class="st13" d="M484.36,78.13c0,1.33-0.04,2.62-0.12,3.91c-2.15-34.46-31.82-60.65-66.28-58.5   c-31.46,1.96-56.54,27.04-58.5,58.5c-0.08-1.29-0.12-2.58-0.12-3.91c0.06-32.06,24.32-58.9,56.21-62.19   c1.02-0.12,2.03-0.2,3.09-0.23s2.15-0.08,3.2-0.08s2.15,0.04,3.2,0.08s2.07,0.12,3.09,0.23C460.04,19.23,484.29,46.07,484.36,78.13   z"></path>	<path class="st14" d="M484.36,78.13c-0.06,33.25-26.09,60.66-59.3,62.43c-1.05,0.04-2.11,0.08-3.2,0.08s-2.15-0.04-3.2-0.08   c-33.21-1.76-59.24-29.17-59.3-62.43c0-1.33,0.04-2.62,0.12-3.91c2.15,34.46,31.82,60.65,66.28,58.5   c31.46-1.96,56.54-27.04,58.5-58.5C484.32,75.51,484.36,76.8,484.36,78.13z"></path>	<path class="st13" d="M484.36,78.13c0,1.33-0.04,2.62-0.12,3.91c-2.15-34.46-31.82-60.65-66.28-58.5   c-31.46,1.96-56.54,27.04-58.5,58.5c-0.08-1.29-0.12-2.58-0.12-3.91c0.06-32.06,24.32-58.9,56.21-62.19   c1.02-0.12,2.03-0.2,3.09-0.23s2.15-0.08,3.2-0.08s2.15,0.04,3.2,0.08s2.07,0.12,3.09,0.23C460.04,19.23,484.29,46.07,484.36,78.13   z"></path>	<path class="st14" d="M484.36,78.13c-0.06,33.25-26.09,60.66-59.3,62.43c-1.05,0.04-2.11,0.08-3.2,0.08s-2.15-0.04-3.2-0.08   c-33.21-1.76-59.24-29.17-59.3-62.43c0-1.33,0.04-2.62,0.12-3.91c2.15,34.46,31.82,60.65,66.28,58.5   c31.46-1.96,56.54-27.04,58.5-58.5C484.32,75.51,484.36,76.8,484.36,78.13z"></path>	<path class="st13" d="M140.58,421.9c0,1.33-0.04,2.62-0.12,3.91c-2.15-34.46-31.82-60.65-66.28-58.5   c-31.46,1.96-56.54,27.04-58.5,58.5c-0.08-1.29-0.12-2.58-0.12-3.91c0.06-32.06,24.32-58.9,56.21-62.19   c1.02-0.12,2.03-0.2,3.09-0.23c1.05-0.04,2.15-0.08,3.2-0.08s2.15,0.04,3.2,0.08c1.05,0.04,2.07,0.12,3.09,0.23   C116.26,363.01,140.52,389.84,140.58,421.9z"></path>	<path class="st14" d="M140.58,421.9c-0.06,33.25-26.09,60.66-59.3,62.43c-1.05,0.04-2.11,0.08-3.2,0.08c-1.09,0-2.15-0.04-3.2-0.08   c-33.21-1.76-59.24-29.17-59.3-62.43c0-1.33,0.04-2.62,0.12-3.91c2.15,34.46,31.82,60.65,66.28,58.5   c31.46-1.96,56.54-27.04,58.5-58.5C140.55,419.29,140.58,420.58,140.58,421.9z"></path>	<path class="st13" d="M484.36,421.9c0,1.33-0.04,2.62-0.12,3.91c-2.15-34.46-31.82-60.65-66.28-58.5   c-31.46,1.96-56.54,27.04-58.5,58.5c-0.08-1.29-0.12-2.58-0.12-3.91c0.06-32.06,24.32-58.9,56.21-62.19   c1.02-0.12,2.03-0.2,3.09-0.23c1.05-0.04,2.15-0.08,3.2-0.08s2.15,0.04,3.2,0.08c1.05,0.04,2.07,0.12,3.09,0.23   C460.04,363.01,484.29,389.84,484.36,421.9z"></path>	<path class="st14" d="M484.36,421.9c-0.06,33.25-26.09,60.66-59.3,62.43c-1.05,0.04-2.11,0.08-3.2,0.08s-2.15-0.04-3.2-0.08   c-33.21-1.76-59.24-29.17-59.3-62.43c0-1.33,0.04-2.62,0.12-3.91c2.15,34.46,31.82,60.65,66.28,58.5   c31.46-1.96,56.54-27.04,58.5-58.5C484.32,419.29,484.36,420.58,484.36,421.9z"></path>	<path class="st15" d="M214.54,132.78l-0.04,0.04h-11.41c-12.94,0.01-23.43,10.5-23.44,23.44v-7.81   c0.01-12.02,9.1-22.09,21.06-23.32c0.79-0.08,1.59-0.12,2.38-0.12h8.4l0.23,0.66C212.45,128.12,213.39,130.5,214.54,132.78z    M320.28,148.45v7.81c-0.01-12.94-10.5-23.43-23.44-23.44h-14.77c-0.43-0.23,3.05-0.39,2.58-0.55c1.18-2.2,2.19-4.48,3.01-6.84   c0.04-0.16,0.12-0.27,0.16-0.43h9.02c0.8,0,1.59,0.04,2.38,0.12C311.18,126.36,320.27,136.43,320.28,148.45z"></path>	<path class="st16" d="M286.71,121.1c-2.38,4.73-4.27,7.03-8.06,7.62c-0.77,0.13-1.55,0.19-2.33,0.2h-53.74   c-0.36,0.01-0.71-0.01-1.07-0.04c-0.63-0.04-1.26-0.11-1.89-0.2c-3.74-0.66-5.2-2.89-7.14-7.58L286.71,121.1z"></path>	<path class="st11" d="M320.28,343.77v7.81c-0.01,12.02-9.1,22.09-21.06,23.32c-0.79,0.08-1.59,0.12-2.38,0.12h-93.76   c-0.8,0-1.59-0.04-2.38-0.12c-11.95-1.24-21.04-11.3-21.06-23.32v-7.81c0.01,12.94,10.5,23.43,23.44,23.44h93.76   C309.79,367.2,320.27,356.71,320.28,343.77z"></path>	<path class="st0" d="M296.85,117.2h-93.76c-17.24,0.05-31.2,14.01-31.25,31.25v203.14c0.05,17.24,14.01,31.2,31.25,31.25h93.76   c17.24-0.05,31.2-14.01,31.25-31.25V148.45C328.05,131.21,314.09,117.25,296.85,117.2z M279.46,125.01   c-2.27,5.63-3.95,7.81-8.36,7.81h-43.25c-4.88,0-6.21-2.07-8.13-7.81H279.46z M320.28,351.59c-0.01,12.94-10.5,23.43-23.44,23.44   h-93.76c-12.94-0.01-23.43-10.5-23.44-23.44V148.45c0.01-12.94,10.5-23.43,23.44-23.44h8.4l0.23,0.66   c2.15,6.68,4.84,14.96,16.13,14.96h43.25c10.9,0,14.02-8.44,16.56-15.2c0.04-0.16,0.12-0.27,0.16-0.43h9.02   c12.94,0.01,23.43,10.5,23.44,23.44V351.59z"></path></g></svg>