<svg xmlns="http://www.w3.org/2000/svg" xmlns:xlink="http://www.w3.org/1999/xlink" id="Layer_1" x="0px" y="0px" viewBox="0 0 500 500" style="enable-background:new 0 0 500 500;" xml:space="preserve"><style type="text/css">	.st0{fill:#174C30;}	.st1{fill-rule:evenodd;clip-rule:evenodd;fill:#CD8366;}	.st2{fill-rule:evenodd;clip-rule:evenodd;fill:#FFFFFF;}	.st3{fill-rule:evenodd;clip-rule:evenodd;fill:#C4D6C7;}	.st4{fill-rule:evenodd;clip-rule:evenodd;fill:#F1D8C8;}	.st5{fill:#F1D8C8;}	.st6{fill:#FFFFFF;}	.st7{fill:#CD8366;}	.st8{fill:#C4D6C7;}	.st9{fill:#F58D65;}	.st10{fill:#F2E8DF;}	.st11{opacity:0.4;fill:#C4D6C7;enable-background:new    ;}	.st12{fill:#8DCA8B;}	.st13{opacity:0.6;fill:#F1D8C8;enable-background:new    ;}	.st14{opacity:0.5;fill:#844C34;enable-background:new    ;}	.st15{opacity:0.5;fill:#FFFFFF;enable-background:new    ;}	.st16{opacity:0.3;fill:#F7E2D6;enable-background:new    ;}</style><g>	<path class="st0" d="M249.51,0c41.51,0,75.13,33.91,75.13,75.13v71.33c0,66.07-80.69,100.27-128.05,52.91   c-13.74-13.74-21.93-32.45-21.93-52.91V75.13C174.67,33.91,208.29,0,249.51,0z M249.51,11.69c-34.79,0-63.15,28.65-63.15,63.44   v71.33c0,55.55,67.82,84.78,107.87,44.73c11.69-11.69,18.71-27.48,18.71-44.73V75.13C312.95,40.34,284.59,11.69,249.51,11.69z"></path>	<path class="st0" d="M318.5,75.42c7.31-2.34,3.51-13.45-3.51-11.11c-0.29,0.29-56.13,19.29-80.1-2.92   c-22.51-21.05-46.19,0.58-59.35,20.76c-4.09,6.43,5.55,12.86,9.94,6.43c8.77-13.74,25.43-33.33,41.51-18.42   C255.94,97.06,318.5,75.42,318.5,75.42z M288.69,204.35c-2.92-7.02-13.74-2.34-10.82,4.68c2.05,4.68,12.86,31.57,14.62,33.62   c8.77,12.57-29.82,56.42-42.97,70.45c-13.16-14.03-52.04-58.47-42.39-70.75l0,0c1.17-1.75,10.82-30.4,12.57-34.79   c2.63-7.02-8.48-11.11-11.11-3.8l-11.4,32.45c-14.62,22.22,42.39,83.32,47.94,89.16c2.34,2.92,6.43,2.92,8.77,0.29l0,0   c0,0,63.73-66.36,48.24-89.75L288.69,204.35z"></path>	<path class="st0" d="M298.92,240.6c-7.6,0-7.6,11.69,0,11.69h10.23c64.61,0,117.52,52.91,117.52,117.52v117.52H72.64V369.81   c0-64.61,52.91-117.52,117.52-117.52c6.72,0,15.79,1.46,15.79-5.85c0-7.6-9.06-5.85-15.79-5.85   c-71.04,0-129.22,58.18-129.22,129.22v123.37c0,3.22,2.63,5.85,5.85,5.85h365.72c3.22,0,5.85-2.63,5.85-5.85V369.81   c0-71.04-58.18-129.22-129.22-129.22H298.92z"></path>	<path class="st0" d="M293.95,341.16h99.4c3.22,0,5.85,2.63,5.85,5.85v26.6c0,3.22-2.63,5.85-5.85,5.85h-99.4   c-3.22,0-5.85-2.63-5.85-5.85v-26.6C288.1,343.8,290.73,341.16,293.95,341.16z M387.5,352.86h-87.7v14.91h87.7V352.86z    M249.51,344.67c24.56,0,24.56,37.13,0,37.13C225.25,381.8,225.25,344.67,249.51,344.67z M254.48,358.41   c-6.43-6.43-16.08,3.51-9.65,9.65C251.27,374.49,260.91,364.84,254.48,358.41z M249.51,391.15c24.56,0,24.56,37.13,0,37.13   C225.25,428.28,225.25,391.15,249.51,391.15z M254.48,404.9c-6.43-6.43-16.08,3.22-9.65,9.65S260.91,411.33,254.48,404.9z    M249.51,437.64c24.56,0,24.56,36.84,0,36.84C225.25,474.47,225.25,437.64,249.51,437.64z M254.48,451.09   c-6.43-6.14-16.08,3.51-9.65,9.94C251.27,467.16,260.91,457.52,254.48,451.09z M123.8,493.18c0,7.6,11.69,7.6,11.69,0v-83.61   c0-7.6-11.69-7.6-11.69,0V493.18z M369.96,493.18c0,7.6,11.69,7.6,11.69,0v-83.61c0-7.6-11.69-7.6-11.69,0V493.18z"></path>	<path class="st1" d="M280.79,201.72c4.68-2.92,9.35-6.43,13.45-10.52c11.69-11.69,18.71-27.48,18.71-44.73V77.18   c-15.79,4.39-61.98,14.91-85.95-7.02c-15.49-14.62-31.57,3.51-40.64,16.96v59.35c0,49.41,53.5,78.06,93.84,55.55   C280.21,201.72,280.5,201.72,280.79,201.72z"></path>	<path class="st2" d="M234.89,61.39c20.76,19.29,66.07,7.31,77.47,3.8c-4.97-30.11-31.28-53.5-62.85-53.5   c-32.45,0-59.35,24.85-62.85,56.42C199.81,54.08,217.65,45.61,234.89,61.39z"></path>	<path class="st1" d="M280.21,214.58c-19.29,8.77-42.39,9.65-62.85-0.29c-3.51,9.94-9.35,26.9-10.23,28.06l0,0   c-0.58,0.58-1.17,1.46-1.17,2.34c0,0.58,0,1.17,0,1.75c0,0.88,0,1.75-0.29,2.34c1.75,17.25,32.45,52.04,43.85,64.32   c11.4-12.28,42.68-47.36,44.14-64.32c-0.29-1.17-0.58-2.63-0.29-3.8c0-0.88-0.58-1.75-0.88-2.34   C291.02,241.18,284.3,224.23,280.21,214.58z"></path>	<path class="st3" d="M303.6,252.29c-7.02,28.94-49.7,73.38-49.7,73.38l0,0c-2.34,2.63-6.43,2.63-8.77-0.29   c-4.68-4.68-42.68-45.61-49.41-73.09c-2.05,0-3.8,0-5.55,0c-64.61,0-117.52,52.91-117.52,117.52v117.52h51.16v-77.76   c0-7.6,11.69-7.6,11.69,0v77.76h234.46v-77.76c0-7.6,11.69-7.6,11.69,0v77.76h45.02V369.81c0-64.61-52.91-117.52-117.52-117.52   H303.6z M293.95,341.16h99.4c3.22,0,5.85,2.63,5.85,5.85v26.6c0,3.22-2.63,5.85-5.85,5.85h-99.4c-3.22,0-5.85-2.63-5.85-5.85v-26.6   C288.1,343.8,290.73,341.16,293.95,341.16z M249.51,437.64c24.56,0,24.56,36.84,0,36.84C225.25,474.47,225.25,437.64,249.51,437.64   z M249.51,391.15c24.56,0,24.56,37.13,0,37.13C225.25,428.28,225.25,391.15,249.51,391.15z M249.51,344.67   c24.56,0,24.56,37.13,0,37.13C225.25,381.8,225.25,344.67,249.51,344.67z"></path>	<polygon class="st4" points="387.5,352.86 299.79,352.86 299.79,367.77 387.5,367.77  "></polygon>	<path class="st4" d="M244.83,368.06c6.43,6.43,16.08-3.22,9.65-9.65S238.4,361.92,244.83,368.06z M254.48,404.9   c-6.43-6.43-16.08,3.22-9.65,9.65S260.91,411.33,254.48,404.9z M254.48,451.09c-6.43-6.14-16.08,3.51-9.65,9.94   C251.27,467.16,260.91,457.52,254.48,451.09z"></path></g></svg>