<?xml version="1.0" encoding="UTF-8"?>
<svg width="139px" height="50px" viewBox="0 0 139 50" version="1.1" xmlns="http://www.w3.org/2000/svg" xmlns:xlink="http://www.w3.org/1999/xlink">
    <!-- Generator: Sketch 63.1 (92452) - https://sketch.com -->
    <title>Vesta-Healthcare-logo-Evergreen</title>
    <desc>Created with Sketch.</desc>
    <g id="Site-Design" stroke="none" stroke-width="1" fill="none" fill-rule="evenodd">
        <g id="Footer-Desktop" transform="translate(-1209.000000, -108.000000)" fill="#ffffff" fill-rule="nonzero">
            <g id="Group">
                <g id="Vesta-Healthcare-logo-Evergreen" transform="translate(1209.000000, 108.000000)">
                    <g id="SVGID_7_-link" transform="translate(0.000000, 7.000000)">
                        <path d="M127.736207,32.2900621 L127.736207,27.2956522 L126.111877,27.8031056 C118.735824,30.1534161 116.552299,31.6490683 116.552299,35.1478261 C116.552299,37.8453416 118.389655,39.5813665 121.292146,39.5813665 C124.966858,39.5813665 127.736207,37.4714286 127.736207,32.2900621 Z M127.709579,24.7850932 L127.709579,22.1944099 C127.709579,18.7223602 125.765709,16.9329193 122.19751,16.9329193 C118.868966,16.9329193 116.099617,18.4819876 116.099617,20.2714286 C116.099617,21.2062112 116.392529,22.1142857 116.392529,22.4080745 C116.392529,23.6099379 115.354023,24.5981366 113.969349,24.5981366 C112.478161,24.5981366 111.439655,23.4496894 111.439655,21.8204969 C111.439655,17.7074534 117.537548,14.1819876 124.727203,14.1819876 C130.42567,14.1819876 134.100383,16.0248447 134.100383,22.3279503 L134.100383,36.8838509 C134.100383,37.978882 134.553065,38.5664596 135.245402,38.5664596 C136.09751,38.5664596 137.269157,37.5782609 137.535441,37.5782609 C138.281034,37.5782609 138.920115,38.0857143 138.920115,38.7801242 C138.920115,40.6763975 135.298659,42.4124224 132.52931,42.4124224 C129.94636,42.4124224 128.561686,41.6111801 127.52318,39.421118 C125.1,41.5043478 121.718199,42.4925466 118.442912,42.4925466 C113.090613,42.4925466 109.868582,39.9018634 109.868582,35.5484472 C109.868582,30.7409938 111.812452,29.0850932 124.94023,25.5062112 L127.709579,24.7850932 Z M89.2316092,17.7341615 L87.5007663,17.6807453 C86.4090038,17.6273292 85.9296935,17.3335404 85.9296935,16.5857143 C85.9296935,15.9447205 86.1693487,15.7310559 86.9149425,15.3037267 C89.1783525,13.968323 91.1222222,11.4310559 92.7465517,8.30621118 C93.3323755,7.26459627 93.7850575,6.97080745 94.3708812,6.97080745 C95.3561303,6.97080745 95.6490421,7.37142857 95.6490421,8.8136646 L95.6490421,15.1701863 L103.451149,15.1701863 C104.835824,15.1701863 105.181992,15.410559 105.181992,16.3720497 C105.181992,17.2267081 104.72931,17.7074534 103.504406,17.7074534 L95.6490421,17.7074534 L95.6490421,31.6757764 C95.6490421,36.8838509 96.9272031,38.4863354 99.9894636,38.4863354 C101.613793,38.4863354 102.865326,37.7919255 104.72931,36.0559006 C105.608046,35.2546584 105.954215,34.9608696 106.460153,34.9608696 C107.15249,34.9608696 107.791571,35.6552795 107.791571,36.2962733 C107.791571,36.9372671 107.338889,37.7385093 106.460153,38.6732919 C104.09023,41.1571429 101.214368,42.4925466 98.0722222,42.4925466 C92.5335249,42.4925466 89.2316092,39.7149068 89.2316092,31.9161491 L89.2316092,17.7341615 L89.2316092,17.7341615 Z M75.8375479,24.6248447 C81.8555556,27.1621118 84.5716475,29.2453416 84.5716475,33.7055901 C84.5716475,38.9136646 80.2312261,42.4925466 73.8670498,42.4925466 C69.3402299,42.4925466 65.5856322,41.1571429 64.3074713,39.1807453 C63.6683908,38.1925466 62.7363985,34.2130435 62.7363985,33.5186335 C62.7363985,32.7708075 63.082567,32.4236025 63.7216475,32.4236025 C64.2542146,32.4236025 64.4139847,32.6639752 64.81341,33.4118012 C67.3164751,37.978882 70.032567,39.8484472 74.0800766,39.8484472 C77.4885057,39.8484472 79.9383142,38.0590062 79.9383142,35.6285714 C79.9383142,33.8925466 78.6068966,32.8509317 75.3582375,31.4621118 L72.9350575,30.4204969 C66.5708812,27.8832298 64.2009579,25.9602484 64.2009579,21.847205 C64.2009579,17.2801242 68.0886973,14.2086957 73.7605364,14.2086957 C77.1689655,14.2086957 80.8170498,15.4372671 82.3348659,16.9863354 C82.5745211,17.2801242 83.7195402,18.7223602 83.7195402,21.152795 C83.7195402,21.9006211 83.3201149,22.3813665 82.7342912,22.3813665 C82.3348659,22.3813665 82.1484674,22.1944099 81.7490421,21.6335404 C79.8318008,18.6689441 76.8760536,16.9329193 73.8670498,16.9329193 C71.310728,16.9329193 69.6863985,18.2149068 69.6863985,20.0043478 C69.6863985,21.6335404 70.485249,22.4347826 73.5741379,23.7167702 L75.8375479,24.6248447 Z M43.7503831,20.2447205 C42.5521073,22.1142857 42.152682,23.5565217 41.9929119,27.0552795 L51.8187739,23.9838509 C53.4697318,23.4496894 53.9756705,22.942236 53.9756705,21.9006211 C53.9756705,19.3900621 51.6323755,17.2 48.9429119,17.2 C46.7860153,17.1465839 45.0818008,18.1347826 43.7503831,20.2447205 Z M41.8331418,29.0850932 C42.8716475,35.4416149 46.0404215,38.2993789 50.2743295,38.2993789 C52.804023,38.2993789 55.3070881,37.0708075 57.3840996,34.8807453 L58.316092,33.8925466 C58.6622605,33.5453416 58.9551724,33.3583851 59.2480843,33.3583851 C59.8871648,33.3583851 60.3931034,33.9459627 60.3931034,34.6403727 C60.3931034,35.3347826 59.9936782,36.2161491 59.1681992,37.257764 C56.5586207,40.6763975 52.7507663,42.5192547 48.3038314,42.5192547 C40.5017241,42.5192547 35.0695402,36.9639752 35.0695402,28.8447205 C35.0695402,20.3248447 40.9544061,14.2086957 49.102682,14.2086957 C54.9342912,14.2086957 60.0735632,18.2149068 60.0735632,22.6484472 C60.0735632,23.9838509 59.4344828,24.6782609 57.3042146,25.1857143 L41.8331418,29.0850932 Z M31.5812261,3.36521739 L31.2883142,3.25838509 C30.4362069,3.09813665 29.9036398,2.45714286 29.9036398,1.62919255 C29.9036398,0.640993789 30.595977,0.0801242236 31.9806513,0.0801242236 L40.4484674,0.0801242236 C41.8331418,0.0801242236 42.5254789,0.58757764 42.5254789,1.62919255 C42.5254789,2.37701863 42.0195402,3.01801242 41.1408046,3.25838509 L40.794636,3.31180124 C38.5578544,4.00621118 37.5193487,4.86086957 36.1346743,8.33291925 L23.566092,40.489441 C22.8737548,42.278882 22.2346743,42.8130435 21.0896552,42.8130435 C19.7582375,42.8130435 19.1191571,42.3055901 18.3735632,40.4360248 L5.64521073,8.33291925 C4.3137931,5.04782609 3.32854406,3.76583851 1.83735632,3.36521739 L1.49118774,3.25838509 C0.63908046,3.09813665 0.159770115,2.45714286 0.159770115,1.62919255 C0.159770115,0.640993789 0.905363985,0.0801242236 2.1835249,0.0801242236 L14.0597701,0.0801242236 C15.3911877,0.0801242236 16.0835249,0.667701863 16.0835249,1.62919255 C16.0835249,2.43043478 15.6308429,3.07142857 14.7521073,3.25838509 L14.4059387,3.36521739 C13.0745211,3.76583851 12.6750958,4.16645963 12.6750958,5.26149068 C12.6750958,6.00931677 12.8348659,6.75714286 13.4739464,8.33291925 L23.4329502,33.7055901 L33.391954,8.33291925 C33.9777778,6.94409938 34.1908046,6.30310559 34.1375479,5.5552795 C34.1375479,4.56708075 33.5517241,3.71242236 32.4599617,3.52546584 L31.5812261,3.36521739 Z" id="SVGID_7_"></path>
                    </g>
                    <path d="M124.405286,3.78643216 C122.819383,3.78643216 122.026432,5.1959799 121.947137,6.38442211 L126.863436,6.38442211 C126.837004,5.22361809 126.096916,3.78643216 124.405286,3.78643216 Z M120.731278,6.88190955 C120.731278,4.61557789 122.290749,2.79145729 124.405286,2.79145729 C126.651982,2.79145729 128,4.64321608 128,6.99246231 L128,7.29648241 L121.947137,7.29648241 C122.052863,8.76130653 123.030837,10.0050251 124.643172,10.0050251 C125.488987,10.0050251 126.361233,9.64572864 126.942731,9.01005025 L127.497797,9.81155779 C126.757709,10.5854271 125.753304,11 124.537445,11 C122.317181,11 120.731278,9.34170854 120.731278,6.88190955 Z M115.814978,10.8065327 L115.814978,2.98492462 L116.977974,2.98492462 L116.977974,4.25628141 C117.585903,3.42713568 118.45815,2.81909548 119.462555,2.81909548 L119.462555,4.06281407 C119.330396,4.03517588 119.171806,4.00753769 118.986784,4.00753769 C118.273128,4.00753769 117.295154,4.61557789 116.951542,5.25125628 L116.951542,10.7788945 L115.814978,10.7788945 L115.814978,10.8065327 Z M112.061674,9.14824121 L112.061674,7.68341709 C111.612335,7.04773869 110.819383,6.7160804 110,6.7160804 C108.9163,6.7160804 108.14978,7.43467337 108.14978,8.42964824 C108.14978,9.42462312 108.9163,10.1155779 110,10.1155779 C110.845815,10.1155779 111.612335,9.81155779 112.061674,9.14824121 Z M112.061674,10.8065327 L112.061674,9.92211055 C111.453744,10.6407035 110.581498,11 109.577093,11 C108.30837,11 106.960352,10.1155779 106.960352,8.40201005 C106.960352,6.66080402 108.30837,5.83165829 109.577093,5.83165829 C110.60793,5.83165829 111.453744,6.16331658 112.061674,6.90954774 L112.061674,5.5 C112.061674,4.44974874 111.268722,3.84170854 110.185022,3.84170854 C109.286344,3.84170854 108.572687,4.17336683 107.885463,4.91959799 L107.356828,4.09045226 C108.14978,3.20603015 109.127753,2.79145729 110.343612,2.79145729 C111.929515,2.79145729 113.22467,3.53768844 113.22467,5.41708543 L113.22467,10.7788945 L112.061674,10.7788945 L112.061674,10.8065327 Z M99.0572687,6.88190955 C99.0572687,4.56030151 100.563877,2.79145729 102.784141,2.79145729 C104.15859,2.79145729 104.951542,3.3718593 105.53304,4.14572864 L104.76652,4.8919598 C104.264317,4.17336683 103.629956,3.86934673 102.863436,3.86934673 C101.277533,3.86934673 100.273128,5.14070352 100.273128,6.88190955 C100.273128,8.62311558 101.251101,9.89447236 102.863436,9.89447236 C103.629956,9.89447236 104.264317,9.56281407 104.76652,8.8718593 L105.53304,9.61809045 C104.951542,10.3919598 104.15859,10.9723618 102.784141,10.9723618 C100.563877,11 99.0572687,9.23115578 99.0572687,6.88190955 Z M95.753304,10.8065327 L95.753304,5.66582915 C95.753304,4.2839196 95.0660793,3.89698492 94.061674,3.89698492 C93.1629956,3.89698492 92.2907489,4.47738693 91.8414097,5.11306533 L91.8414097,10.8341709 L90.6784141,10.8341709 L90.6784141,0 L91.8414097,0 L91.8414097,4.11809045 C92.3700441,3.48241206 93.4008811,2.79145729 94.5110132,2.79145729 C96.0704846,2.79145729 96.8898678,3.59296482 96.8898678,5.27889447 L96.8898678,10.8065327 L95.753304,10.8065327 Z M87.7973568,11 C86.6872247,11 86.1321586,10.3366834 86.1321586,9.1758794 L86.1321586,4.06281407 L84.8898678,4.06281407 L84.8898678,2.98492462 L86.1321586,2.98492462 L86.1321586,0.85678392 L87.2951542,0.85678392 L87.2951542,2.98492462 L88.8017621,2.98492462 L88.8017621,4.06281407 L87.2951542,4.06281407 L87.2951542,8.92713568 C87.2951542,9.50753769 87.5330396,9.92211055 88.061674,9.92211055 C88.3788546,9.92211055 88.6960352,9.7839196 88.8546256,9.59045226 L89.1982379,10.5025126 C88.8810573,10.7788945 88.4581498,11 87.7973568,11 Z M82.1674009,10.8065327 L82.1674009,0 L83.3303965,0 L83.3303965,10.8065327 L82.1674009,10.8065327 Z M78.4405286,9.14824121 L78.4405286,7.68341709 C77.9911894,7.04773869 77.1982379,6.7160804 76.3788546,6.7160804 C75.2951542,6.7160804 74.5286344,7.43467337 74.5286344,8.42964824 C74.5286344,9.42462312 75.2951542,10.1155779 76.3788546,10.1155779 C77.1982379,10.1155779 77.9911894,9.81155779 78.4405286,9.14824121 Z M78.4405286,10.8065327 L78.4405286,9.92211055 C77.8325991,10.6407035 76.9603524,11 75.9559471,11 C74.6872247,11 73.339207,10.1155779 73.339207,8.40201005 C73.339207,6.66080402 74.6872247,5.83165829 75.9559471,5.83165829 C76.9867841,5.83165829 77.8325991,6.16331658 78.4405286,6.90954774 L78.4405286,5.5 C78.4405286,4.44974874 77.6475771,3.84170854 76.5638767,3.84170854 C75.6651982,3.84170854 74.9515419,4.17336683 74.2643172,4.91959799 L73.7356828,4.09045226 C74.5286344,3.20603015 75.5066079,2.79145729 76.722467,2.79145729 C78.30837,2.79145729 79.6035242,3.53768844 79.6035242,5.41708543 L79.6035242,10.7788945 L78.4405286,10.7788945 L78.4405286,10.8065327 Z M68.0528634,3.78643216 C66.4669604,3.78643216 65.6740088,5.1959799 65.5947137,6.38442211 L70.5110132,6.38442211 C70.4845815,5.22361809 69.7444934,3.78643216 68.0528634,3.78643216 Z M64.3788546,6.88190955 C64.3788546,4.61557789 65.938326,2.79145729 68.0528634,2.79145729 C70.2995595,2.79145729 71.6475771,4.64321608 71.6475771,6.99246231 L71.6475771,7.29648241 L65.5947137,7.29648241 C65.7004405,8.76130653 66.6784141,10.0050251 68.2907489,10.0050251 C69.1365639,10.0050251 70.0088106,9.64572864 70.5903084,9.01005025 L71.1453744,9.81155779 C70.4052863,10.5854271 69.4008811,11 68.185022,11 C65.9647577,11 64.3788546,9.34170854 64.3788546,6.88190955 Z M61.0748899,10.8065327 L61.0748899,5.66582915 C61.0748899,4.2839196 60.3876652,3.89698492 59.3832599,3.89698492 C58.4845815,3.89698492 57.6123348,4.47738693 57.1629956,5.11306533 L57.1629956,10.8341709 L56,10.8341709 L56,0 L57.1629956,0 L57.1629956,4.11809045 C57.69163,3.48241206 58.722467,2.79145729 59.8325991,2.79145729 C61.3920705,2.79145729 62.2114537,3.59296482 62.2114537,5.27889447 L62.2114537,10.8065327 L61.0748899,10.8065327 Z" id="Shape"></path>
                </g>
            </g>
        </g>
    </g>
</svg>