<svg width="112" height="112" viewBox="0 0 112 112" fill="none" xmlns="http://www.w3.org/2000/svg">
<g clip-path="url(#clip0_3433_1644)">
<rect x="0.75" y="20.75" width="110.5" height="68.5" rx="7.25" fill="#161616" stroke="#161616" stroke-width="1.5"/>
<rect x="4.75" y="0.75" width="102.5" height="52.5" rx="7.25" fill="white" stroke="#161616" stroke-width="1.5"/>
<rect x="0.75" y="16.75" width="110.5" height="70.5" rx="7.25" fill="white" stroke="#161616" stroke-width="1.5"/>
<g filter="url(#filter0_f_3433_1644)">
<rect x="53" y="37" width="45" height="29" fill="#98C292"/>
</g>
<circle cx="6" cy="22" r="1" fill="#161616"/>
<circle cx="10" cy="22" r="1" fill="#161616"/>
<circle cx="14" cy="22" r="1" fill="#161616"/>
<rect x="38" y="53" width="36" height="4.5" rx="2.25" fill="#161616"/>
<rect x="42" y="60" width="28" height="1.5" rx="0.75" fill="#161616"/>
<path d="M95.7843 100.669C95.6016 100.298 95.1522 100.144 94.7804 100.327C94.4087 100.509 94.2553 100.959 94.4379 101.331L95.7843 100.669ZM85.5747 108.754C85.1626 108.712 84.795 109.013 84.7537 109.425C84.7125 109.837 85.0131 110.205 85.4253 110.246L85.5747 108.754ZM99.2065 109.337L98.5334 109.668L99.2065 109.337ZM98.2093 110.773L98.1346 111.519L98.2093 110.773ZM99.8797 109.006L95.7843 100.669L94.4379 101.331L98.5334 109.668L99.8797 109.006ZM98.2841 110.027L85.5747 108.754L85.4253 110.246L98.1346 111.519L98.2841 110.027ZM98.5334 109.668C98.6198 109.844 98.4792 110.046 98.2841 110.027L98.1346 111.519C99.5005 111.656 100.485 110.239 99.8797 109.006L98.5334 109.668Z" fill="#161616"/>
<path d="M66 69C67.9128 73.7821 76.1146 79.1359 84.1529 82.6009C95.41 87.4533 102.258 68.9998 90 68.9999V68.9999C51.1027 69.0002 92.6683 107.159 99 110.5" stroke="#161616" stroke-width="1.5" stroke-linecap="round"/>
<rect x="21.75" y="25.75" width="70.5" height="22.5" rx="3.25" stroke="#161616" stroke-width="1.5"/>
<path d="M65.9862 40.2329L65 41L64 42L67 48H76L71.843 41.2849C70.7491 39.5178 70.2022 38.6343 69.3246 38.4767C68.447 38.319 67.6267 38.957 65.9862 40.2329Z" fill="#161616"/>
<path d="M54.2551 35.5371L32 48H70L59.1407 36.3054C58.1131 35.1987 57.5993 34.6454 56.9154 34.5379C56.2316 34.4303 55.5727 34.7993 54.2551 35.5371Z" fill="#161616"/>
<circle cx="77" cy="32" r="3" fill="#161616"/>
<path d="M22.75 8C22.75 6.75736 23.7574 5.75 25 5.75H78.8996L82.7277 6.79405C84.174 7.18849 85.1882 7.46651 85.8483 7.73498C86.1107 7.84174 86.2752 7.93104 86.3738 8C86.2752 8.06895 86.1107 8.15826 85.8483 8.26502C85.1882 8.53349 84.174 8.81151 82.7277 9.20596L78.8996 10.25H25C23.7574 10.25 22.75 9.24264 22.75 8Z" stroke="#161616" stroke-width="1.5"/>
<path d="M22.75 8C22.75 6.75736 23.7574 5.75 25 5.75H78.8996L82.7277 6.79405C84.174 7.18849 85.1882 7.46651 85.8483 7.73498C86.1107 7.84174 86.2752 7.93104 86.3738 8C86.2752 8.06895 86.1107 8.15826 85.8483 8.26502C85.1882 8.53349 84.174 8.81151 82.7277 9.20596L78.8996 10.25H25C23.7574 10.25 22.75 9.24264 22.75 8Z" stroke="#161616" stroke-width="1.5"/>
<path d="M22.75 8.5C22.75 6.98122 23.9812 5.75 25.5 5.75H78.8836L83.7828 7.30884C85.0359 7.70755 85.9013 7.98457 86.4618 8.24615C86.6902 8.35276 86.8254 8.43819 86.9018 8.5C86.8254 8.5618 86.6902 8.64724 86.4618 8.75385C85.9013 9.01543 85.0359 9.29245 83.7828 9.69116L78.8836 11.25H25.5C23.9812 11.25 22.75 10.0188 22.75 8.5Z" stroke="#161616" stroke-width="1.5"/>
<rect x="28" y="6" width="1.5" height="4" fill="#161616"/>
<path d="M78.7998 6L81.9998 6.5L84.9998 8L81.9998 9.5L78.7998 10V6Z" fill="#161616"/>
<path d="M53.5672 66.0514L61.4922 70.6746C61.549 70.7078 61.5961 70.7553 61.6288 70.8124C61.6615 70.8695 61.6787 70.9342 61.6787 71C61.6787 71.0658 61.6615 71.1305 61.6288 71.1876C61.5961 71.2447 61.549 71.2922 61.4922 71.3254L53.5672 75.9486C53.5097 75.9821 53.4445 75.9998 53.378 76C53.3115 76.0002 53.2462 75.9827 53.1886 75.9495C53.131 75.9163 53.0833 75.8684 53.0501 75.8108C53.017 75.7531 52.9997 75.6878 53 75.6213V66.3772C53 66.3109 53.0175 66.2457 53.0507 66.1882C53.0839 66.1308 53.1317 66.0832 53.1893 66.0501C53.2468 66.0171 53.312 65.9998 53.3784 66C53.4447 66.0002 53.5098 66.018 53.5672 66.0514Z" fill="#161616"/>
<path d="M97 0C99.7911 0 101.187 0 102.322 0.344477C104.879 1.12008 106.88 3.12091 107.656 5.67772C108 6.81331 108 8.20887 108 11H101C99.1144 11 98.1716 11 97.5858 10.4142C97 9.82843 97 8.88562 97 7V0Z" fill="#161616"/>
<rect x="21" y="86" width="16" height="4" fill="white"/>
<path fill-rule="evenodd" clip-rule="evenodd" d="M2.69312 95.2853C5 92.9174 14.1854 83.0472 19.7089 77.5326C18.9446 79.8302 19.8028 83.103 21.4769 86.6152C22.077 87.7453 23.118 86.5964 22.9116 85.6727C20.9281 81.4339 20.3231 77.917 21.5326 75.7273C22.6205 74.7285 23.4551 73.9736 23.8818 73.758C28.1767 71.4275 33.6769 79.0141 35.4074 82.1792C37.0391 85.2926 40.453 94.1076 36.1581 96.4385C35.028 97.0386 29.2886 98.1736 23.0013 99.3975C21.5666 105.611 12.5875 107.181 8.90627 101.991C7.65897 102.216 6.71171 102.347 6.08822 102.46C3.90788 100.753 2.66521 98.0943 2.69339 95.2858L2.69312 95.2853ZM20.8302 99.8286C17.3886 100.41 13.895 101.09 11.077 101.559C13.9561 104.447 19.2684 103.528 20.8302 99.8286ZM23.6288 76.6367C25.8419 71.3335 32.9414 81.1381 33.8507 82.9947C36.8377 88.0728 38.362 99.5373 30.6764 93.1272C27.6427 90.5343 25.842 87.1445 24.5198 83.4403C25.9544 81.1801 28.9601 79.9938 31.1783 81.0298C30.0436 79.2434 26.1048 74.5454 23.629 76.6363L23.6288 76.6367Z" fill="#161616"/>
<path d="M34.9158 76.3387L38.7974 71.0044" stroke="#161616" stroke-width="1.5" stroke-linecap="round"/>
<path d="M38.8869 82.0534L42.699 79.8006" stroke="#161616" stroke-width="1.5" stroke-linecap="round"/>
<path d="M41.4119 87.801L45.7372 87.6116" stroke="white" stroke-width="1.5" stroke-linecap="round"/>
<path d="M41.381 92.9873L48.1034 95.4507" stroke="#161616" stroke-width="1.5" stroke-linecap="round"/>
</g>
<defs>
<filter id="filter0_f_3433_1644" x="29" y="13" width="93" height="77" filterUnits="userSpaceOnUse" color-interpolation-filters="sRGB">
<feFlood flood-opacity="0" result="BackgroundImageFix"/>
<feBlend mode="normal" in="SourceGraphic" in2="BackgroundImageFix" result="shape"/>
<feGaussianBlur stdDeviation="12" result="effect1_foregroundBlur_3433_1644"/>
</filter>
<clipPath id="clip0_3433_1644">
<rect width="112" height="112" fill="white"/>
</clipPath>
</defs>
</svg>
