<svg width="112" height="112" viewBox="0 0 112 112" fill="none" xmlns="http://www.w3.org/2000/svg">
<g clip-path="url(#clip0_3433_1557)">
<rect x="0.75" y="16.75" width="110.5" height="80.5" rx="7.25" fill="#161616" stroke="#161616" stroke-width="1.5"/>
<rect x="0.75" y="16.75" width="110.5" height="78.5" rx="7.25" fill="white" stroke="#161616" stroke-width="1.5"/>
<g filter="url(#filter0_f_3433_1557)">
<rect x="64" y="50" width="45" height="29" fill="#98C292"/>
</g>
<circle cx="6" cy="22" r="1" fill="#161616"/>
<circle cx="10" cy="22" r="1" fill="#161616"/>
<circle cx="14" cy="22" r="1" fill="#161616"/>
<rect x="6" y="34" width="40" height="1.5" rx="0.75" fill="#161616"/>
<rect x="14" y="74" width="8" height="1.5" rx="0.75" fill="#161616"/>
<rect x="44" y="74" width="8" height="1.5" rx="0.75" fill="#161616"/>
<rect x="6" y="38" width="24" height="1.5" rx="0.75" fill="#161616"/>
<path d="M92.7843 99.6693C92.6016 99.2975 92.1522 99.1442 91.7804 99.3268C91.4087 99.5095 91.2553 99.9589 91.4379 100.331L92.7843 99.6693ZM84.9348 110.253C84.5221 110.289 84.2168 110.653 84.2528 111.065C84.2889 111.478 84.6526 111.783 85.0652 111.747L84.9348 110.253ZM96.3564 108.642L95.6832 108.973L96.3564 108.642ZM97.0296 108.312L92.7843 99.6693L91.4379 100.331L95.6832 108.973L97.0296 108.312ZM95.4806 109.332L84.9348 110.253L85.0652 111.747L95.6111 110.826L95.4806 109.332ZM95.6832 108.973C95.7607 109.131 95.6556 109.317 95.4806 109.332L95.6111 110.826C96.8363 110.72 97.5718 109.415 97.0296 108.312L95.6832 108.973Z" fill="#161616"/>
<path d="M55.0001 82.0001C58.0554 86.4095 61.6291 89.1993 65.1626 90.755C73.4274 94.3937 74.7952 76.9413 67 81.5001V81.5001C33.4232 101.137 89.1687 105.659 95.5004 109" stroke="#161616" stroke-width="1.5" stroke-linecap="round"/>
<mask id="path-13-inside-1_3433_1557" fill="white">
<path d="M30 58C30 55.6266 29.2962 53.3065 27.9776 51.3332C26.6591 49.3598 24.7849 47.8217 22.5922 46.9134C20.3995 46.0052 17.9867 45.7676 15.6589 46.2306C13.3311 46.6936 11.1929 47.8365 9.51472 49.5147C7.83649 51.1929 6.6936 53.3311 6.23058 55.6589C5.76755 57.9867 6.00519 60.3995 6.91345 62.5922C7.8217 64.7849 9.35977 66.6591 11.3332 67.9776C13.3065 69.2962 15.6266 70 18 70V68.5C15.9233 68.5 13.8932 67.8842 12.1665 66.7304C10.4398 65.5767 9.09399 63.9368 8.29926 62.0182C7.50454 60.0996 7.29661 57.9884 7.70175 55.9516C8.1069 53.9148 9.10693 52.0438 10.5754 50.5754C12.0438 49.1069 13.9148 48.1069 15.9516 47.7018C17.9884 47.2966 20.0996 47.5045 22.0182 48.2993C23.9368 49.094 25.5767 50.4398 26.7304 52.1665C27.8842 53.8932 28.5 55.9233 28.5 58H30Z"/>
</mask>
<path d="M30 58C30 55.6266 29.2962 53.3065 27.9776 51.3332C26.6591 49.3598 24.7849 47.8217 22.5922 46.9134C20.3995 46.0052 17.9867 45.7676 15.6589 46.2306C13.3311 46.6936 11.1929 47.8365 9.51472 49.5147C7.83649 51.1929 6.6936 53.3311 6.23058 55.6589C5.76755 57.9867 6.00519 60.3995 6.91345 62.5922C7.8217 64.7849 9.35977 66.6591 11.3332 67.9776C13.3065 69.2962 15.6266 70 18 70V68.5C15.9233 68.5 13.8932 67.8842 12.1665 66.7304C10.4398 65.5767 9.09399 63.9368 8.29926 62.0182C7.50454 60.0996 7.29661 57.9884 7.70175 55.9516C8.1069 53.9148 9.10693 52.0438 10.5754 50.5754C12.0438 49.1069 13.9148 48.1069 15.9516 47.7018C17.9884 47.2966 20.0996 47.5045 22.0182 48.2993C23.9368 49.094 25.5767 50.4398 26.7304 52.1665C27.8842 53.8932 28.5 55.9233 28.5 58H30Z" stroke="#161616" stroke-width="3" mask="url(#path-13-inside-1_3433_1557)"/>
<mask id="path-14-inside-2_3433_1557" fill="white">
<path d="M11.5994 53.2008C10.6502 54.4667 10.0977 55.9857 10.0118 57.5656C9.92588 59.1455 10.3104 60.7154 11.1167 62.0768C11.923 63.4382 13.1149 64.5299 14.5417 65.2139C15.9685 65.8979 17.566 66.1434 19.1323 65.9195C20.6987 65.6955 22.1634 65.0121 23.3413 63.9557C24.5192 62.8993 25.3575 61.5173 25.75 59.9845C26.1425 58.4517 26.0716 56.8369 25.5464 55.3444C25.0211 53.8519 24.0651 52.5486 22.7992 51.5994L21.8394 52.8795C22.8521 53.6389 23.6169 54.6815 24.0371 55.8755C24.4573 57.0695 24.514 58.3614 24.2 59.5876C23.886 60.8138 23.2154 61.9194 22.2731 62.7646C21.3307 63.6097 20.1589 64.1564 18.9059 64.3356C17.6528 64.5147 16.3748 64.3183 15.2334 63.7711C14.0919 63.2239 13.1384 62.3505 12.4934 61.2614C11.8483 60.1723 11.5407 58.9164 11.6094 57.6525C11.6782 56.3885 12.1202 55.1734 12.8795 54.1606L11.5994 53.2008Z"/>
</mask>
<path d="M11.5994 53.2008C10.6502 54.4667 10.0977 55.9857 10.0118 57.5656C9.92588 59.1455 10.3104 60.7154 11.1167 62.0768C11.923 63.4382 13.1149 64.5299 14.5417 65.2139C15.9685 65.8979 17.566 66.1434 19.1323 65.9195C20.6987 65.6955 22.1634 65.0121 23.3413 63.9557C24.5192 62.8993 25.3575 61.5173 25.75 59.9845C26.1425 58.4517 26.0716 56.8369 25.5464 55.3444C25.0211 53.8519 24.0651 52.5486 22.7992 51.5994L21.8394 52.8795C22.8521 53.6389 23.6169 54.6815 24.0371 55.8755C24.4573 57.0695 24.514 58.3614 24.2 59.5876C23.886 60.8138 23.2154 61.9194 22.2731 62.7646C21.3307 63.6097 20.1589 64.1564 18.9059 64.3356C17.6528 64.5147 16.3748 64.3183 15.2334 63.7711C14.0919 63.2239 13.1384 62.3505 12.4934 61.2614C11.8483 60.1723 11.5407 58.9164 11.6094 57.6525C11.6782 56.3885 12.1202 55.1734 12.8795 54.1606L11.5994 53.2008Z" stroke="#161616" stroke-width="3" mask="url(#path-14-inside-2_3433_1557)"/>
<mask id="path-15-inside-3_3433_1557" fill="white">
<path d="M48 70C50.7763 70 53.4666 69.0374 55.6127 67.2761C57.7588 65.5149 59.2278 63.064 59.7694 60.3411C60.311 57.6182 59.8918 54.7917 58.5831 52.3432C57.2743 49.8948 55.1571 47.9759 52.5922 46.9134C50.0273 45.851 47.1733 45.7108 44.5166 46.5167C41.8599 47.3226 39.5648 49.0248 38.0224 51.3332C36.48 53.6415 35.7857 56.4133 36.0578 59.1762C36.3299 61.9391 37.5516 64.5222 39.5147 66.4853L40.5754 65.4246C38.8577 63.7069 37.7887 61.4467 37.5506 59.0292C37.3125 56.6116 37.92 54.1863 39.2696 52.1665C40.6192 50.1467 42.6274 48.6573 44.952 47.9521C47.2766 47.247 49.7739 47.3696 52.0182 48.2993C54.2625 49.2289 56.115 50.9079 57.2602 53.0503C58.4053 55.1927 58.7722 57.6659 58.2982 60.0484C57.8243 62.431 56.5389 64.5755 54.6611 66.1166C52.7833 67.6577 50.4292 68.5 48 68.5L48 70Z"/>
</mask>
<path d="M48 70C50.7763 70 53.4666 69.0374 55.6127 67.2761C57.7588 65.5149 59.2278 63.064 59.7694 60.3411C60.311 57.6182 59.8918 54.7917 58.5831 52.3432C57.2743 49.8948 55.1571 47.9759 52.5922 46.9134C50.0273 45.851 47.1733 45.7108 44.5166 46.5167C41.8599 47.3226 39.5648 49.0248 38.0224 51.3332C36.48 53.6415 35.7857 56.4133 36.0578 59.1762C36.3299 61.9391 37.5516 64.5222 39.5147 66.4853L40.5754 65.4246C38.8577 63.7069 37.7887 61.4467 37.5506 59.0292C37.3125 56.6116 37.92 54.1863 39.2696 52.1665C40.6192 50.1467 42.6274 48.6573 44.952 47.9521C47.2766 47.247 49.7739 47.3696 52.0182 48.2993C54.2625 49.2289 56.115 50.9079 57.2602 53.0503C58.4053 55.1927 58.7722 57.6659 58.2982 60.0484C57.8243 62.431 56.5389 64.5755 54.6611 66.1166C52.7833 67.6577 50.4292 68.5 48 68.5L48 70Z" stroke="#161616" stroke-width="3" mask="url(#path-15-inside-3_3433_1557)"/>
<mask id="path-16-inside-4_3433_1557" fill="white">
<path d="M54.7539 53.7122C53.9292 52.4132 52.7474 51.3796 51.3502 50.7353C49.953 50.0909 48.3996 49.8632 46.8762 50.0793C45.3528 50.2955 43.9241 50.9463 42.7612 51.9539C41.5984 52.9615 40.7508 54.283 40.32 55.7601C39.8892 57.2372 39.8935 58.8072 40.3324 60.2819C40.7712 61.7566 41.6261 63.0735 42.7944 64.0747C43.9628 65.0759 45.3951 65.7189 46.9196 65.9267C48.4441 66.1345 49.9963 65.8982 51.3899 65.2463L50.712 63.797C49.597 64.3186 48.3553 64.5076 47.1357 64.3414C45.916 64.1751 44.7702 63.6607 43.8355 62.8598C42.9009 62.0588 42.217 61.0053 41.8659 59.8255C41.5148 58.6458 41.5113 57.3898 41.856 56.2081C42.2006 55.0264 42.8787 53.9692 43.809 53.1631C44.7393 52.3571 45.8822 51.8364 47.1009 51.6635C48.3197 51.4905 49.5624 51.6727 50.6801 52.1882C51.7979 52.7037 52.7433 53.5306 53.4031 54.5697L54.7539 53.7122Z"/>
</mask>
<path d="M54.7539 53.7122C53.9292 52.4132 52.7474 51.3796 51.3502 50.7353C49.953 50.0909 48.3996 49.8632 46.8762 50.0793C45.3528 50.2955 43.9241 50.9463 42.7612 51.9539C41.5984 52.9615 40.7508 54.283 40.32 55.7601C39.8892 57.2372 39.8935 58.8072 40.3324 60.2819C40.7712 61.7566 41.6261 63.0735 42.7944 64.0747C43.9628 65.0759 45.3951 65.7189 46.9196 65.9267C48.4441 66.1345 49.9963 65.8982 51.3899 65.2463L50.712 63.797C49.597 64.3186 48.3553 64.5076 47.1357 64.3414C45.916 64.1751 44.7702 63.6607 43.8355 62.8598C42.9009 62.0588 42.217 61.0053 41.8659 59.8255C41.5148 58.6458 41.5113 57.3898 41.856 56.2081C42.2006 55.0264 42.8787 53.9692 43.809 53.1631C44.7393 52.3571 45.8822 51.8364 47.1009 51.6635C48.3197 51.4905 49.5624 51.6727 50.6801 52.1882C51.7979 52.7037 52.7433 53.5306 53.4031 54.5697L54.7539 53.7122Z" stroke="#161616" stroke-width="3" mask="url(#path-16-inside-4_3433_1557)"/>
<rect x="65" y="16" width="39" height="2" fill="white"/>
<path d="M64.75 17.8958C64.75 16.9356 64.7533 16.5614 64.805 16.2839C65.0947 14.7292 66.4615 13.6086 68.0429 13.6295C68.325 13.6332 68.6926 13.7034 69.6342 13.8917L69.6547 13.8958C72.0766 14.3802 73.3111 14.6271 74.5454 14.8215C80.8098 15.8085 87.1902 15.8085 93.4546 14.8215C94.6889 14.6271 95.9234 14.3802 98.3453 13.8958L98.3658 13.8917C99.3074 13.7034 99.675 13.6332 99.9571 13.6295C101.539 13.6086 102.905 14.7292 103.195 16.2839C103.247 16.5614 103.25 16.9356 103.25 17.8958V27.9201C103.25 29.9859 103.245 30.8907 103.025 31.7514C102.806 32.6121 102.377 33.4091 101.388 35.2226L92.3184 51.85L92.2726 51.934C91.8304 52.7443 91.5449 53.2676 91.3973 53.8463C91.2497 54.425 91.2498 55.0211 91.25 55.9443L91.25 56.04V60C91.25 61.9068 91.2484 63.2615 91.1102 64.2892C90.975 65.2952 90.7213 65.8749 90.2981 66.2981C89.8749 66.7213 89.2952 66.975 88.2892 67.1102C87.2615 67.2484 85.9068 67.25 84 67.25C82.0932 67.25 80.7385 67.2484 79.7108 67.1102C78.7048 66.975 78.1251 66.7213 77.7019 66.2981C77.2787 65.8749 77.025 65.2952 76.8898 64.2892C76.7516 63.2615 76.75 61.9068 76.75 60V56.04L76.75 55.9443C76.7502 55.0211 76.7503 54.425 76.6027 53.8463C76.4551 53.2676 76.1696 52.7443 75.7274 51.934L75.6816 51.85L66.6121 35.2226C65.6229 33.4091 65.1943 32.6121 64.9748 31.7514C64.7553 30.8907 64.75 29.9859 64.75 27.9201V17.8958Z" stroke="#161616" stroke-width="1.5"/>
<path d="M64.75 17.8405C64.75 16.9492 64.7528 16.6016 64.7973 16.3439C65.0725 14.7487 66.4795 13.5992 68.0975 13.6478C68.359 13.6556 68.7001 13.7222 69.5735 13.9L69.5927 13.9039C71.8724 14.368 73.0344 14.6045 74.1955 14.7944C80.6887 15.8563 87.3113 15.8563 93.8045 14.7944C94.9656 14.6045 96.1276 14.368 98.4072 13.9039L98.4265 13.9C99.2999 13.7222 99.641 13.6556 99.9025 13.6478C101.52 13.5992 102.928 14.7487 103.203 16.3439C103.247 16.6016 103.25 16.9492 103.25 17.8405V28.3403C103.25 30.3744 103.245 31.2655 103.032 32.1141C102.819 32.9627 102.402 33.7505 101.442 35.5434L92.2876 52.6255L92.2431 52.7085C91.8136 53.5097 91.5362 54.027 91.393 54.5976C91.2497 55.1682 91.2498 55.7552 91.25 56.6642L91.25 56.7584V61C91.25 62.9068 91.2484 64.2615 91.1102 65.2892C90.975 66.2952 90.7213 66.8749 90.2981 67.2981C89.8749 67.7213 89.2952 67.975 88.2892 68.1102C87.2615 68.2484 85.9068 68.25 84 68.25C82.0932 68.25 80.7385 68.2484 79.7108 68.1102C78.7048 67.975 78.1251 67.7213 77.7019 67.2981C77.2787 66.8749 77.025 66.2952 76.8898 65.2892C76.7516 64.2615 76.75 62.9068 76.75 61V56.7584L76.75 56.6642C76.7502 55.7552 76.7503 55.1682 76.607 54.5976C76.4638 54.027 76.1864 53.5097 75.7569 52.7085L75.7124 52.6255L66.5584 35.5434C65.5976 33.7505 65.1813 32.9627 64.9682 32.1141C64.7552 31.2655 64.75 30.3744 64.75 28.3403V17.8405Z" stroke="#161616" stroke-width="1.5"/>
<path d="M72.2019 12.883L68.5 13.4999L75.4263 14.4235C80.7871 15.1382 86.217 15.1706 91.586 14.5198L100 13.4999L94.8247 12.7158C87.3221 11.579 79.6869 11.6355 72.2019 12.883Z" fill="#161616"/>
<path fill-rule="evenodd" clip-rule="evenodd" d="M73.5958 13.4228L75.5254 13.68C80.8234 14.3864 86.1896 14.4184 91.4957 13.7753L94.4466 13.4176C87.5319 12.3966 80.5064 12.3988 73.5958 13.4228ZM72.0786 12.1432C79.6416 10.8827 87.3563 10.8257 94.937 11.9743L100.09 12.875V14.2445L91.6762 15.2644C86.2443 15.9228 80.7508 15.89 75.3272 15.1669L68.4009 14.2434L68 12.8999L72.0786 12.1432Z" fill="#161616"/>
<path d="M92.3089 75.9303L92.0709 76.5082C91.6764 77.4658 89.9336 77.6556 88.1783 76.9324C86.4542 76.2222 85.3592 74.8954 85.6945 73.9411L85.7142 73.8894L85.9522 73.3115C85.5578 74.2691 86.6611 75.6314 88.4164 76.3546C90.1717 77.0777 91.9144 76.8879 92.3089 75.9303ZM90.0829 72.3094C91.8382 73.0326 92.9415 74.3949 92.547 75.3524C92.1525 76.31 90.4098 76.4998 88.6544 75.7767C86.8991 75.0535 85.7958 73.6912 86.1903 72.7336C86.5848 71.7761 88.3276 71.5863 90.0829 72.3094Z" fill="#161616"/>
<path d="M81.2449 72.2086L81.5378 72.7607C82.0231 73.6755 81.057 75.1383 79.3799 76.028C77.7327 76.9019 76.0124 76.898 75.4919 76.0309L75.4646 75.9827L75.1717 75.4306C75.657 76.3455 77.41 76.3657 79.087 75.4759C80.764 74.5862 81.7302 73.1234 81.2449 72.2086ZM77.0366 71.6111C78.7137 70.7214 80.4666 70.7416 80.952 71.6565C81.4373 72.5713 80.4711 74.0341 78.7941 74.9238C77.1171 75.8135 75.3641 75.7934 74.8787 74.8785C74.3934 73.9637 75.3596 72.5009 77.0366 71.6111Z" fill="#161616"/>
<path d="M88.5188 82.0522L88.5141 82.5522C88.5062 83.3806 87.2686 84.0404 85.7499 84.026C84.2583 84.0118 83.0502 83.3525 83.0151 82.5441L83.0143 82.4999L83.0191 81.9999C83.0112 82.8284 84.236 83.5115 85.7547 83.526C87.2734 83.5404 88.5109 82.8807 88.5188 82.0522ZM85.788 80.0261C87.3066 80.0406 88.5315 80.7238 88.5236 81.5522C88.5157 82.3807 87.2781 83.0404 85.7594 83.026C84.2408 83.0116 83.016 82.3284 83.0238 81.4999C83.0317 80.6715 84.2693 80.0117 85.788 80.0261Z" fill="#161616"/>
<circle cx="78.2489" cy="7.24889" r="5.25" transform="rotate(-31.4442 78.2489 7.24889)" stroke="#161616" stroke-width="1.5"/>
<circle cx="79.8139" cy="9.8084" r="3" transform="rotate(-31.4442 79.8139 9.8084)" fill="#161616"/>
<circle cx="77.893" cy="5.7084" r="1.5" transform="rotate(-31.4442 77.893 5.7084)" fill="#161616"/>
<circle cx="90.8514" cy="22.8514" r="5.25" transform="rotate(22.7125 90.8514 22.8514)" stroke="#161616" stroke-width="1.5"/>
<circle cx="89.6931" cy="25.6188" r="3" transform="rotate(22.7125 89.6931 25.6188)" fill="#161616"/>
<circle cx="91.8917" cy="21.6608" r="1.5" transform="rotate(22.7125 91.8917 21.6608)" fill="#161616"/>
</g>
<defs>
<filter id="filter0_f_3433_1557" x="40" y="26" width="93" height="77" filterUnits="userSpaceOnUse" color-interpolation-filters="sRGB">
<feFlood flood-opacity="0" result="BackgroundImageFix"/>
<feBlend mode="normal" in="SourceGraphic" in2="BackgroundImageFix" result="shape"/>
<feGaussianBlur stdDeviation="12" result="effect1_foregroundBlur_3433_1557"/>
</filter>
<clipPath id="clip0_3433_1557">
<rect width="112" height="112" fill="white"/>
</clipPath>
</defs>
</svg>
