<svg xmlns="http://www.w3.org/2000/svg" width="64" height="48" viewBox="0 0 64 48" fill="none"><path d="M59.8941 31.8164C57.6331 31.8164 55.7881 33.6444 55.7881 35.9081C55.7881 38.1718 57.6224 39.9997 59.8941 39.9997C62.155 39.9997 64.0001 38.1718 64.0001 35.9081C64.0001 33.6444 62.155 31.8164 59.8941 31.8164Z" fill="#EE3124"></path><path d="M4.10599 8.55273C1.84503 8.55273 0 10.3807 0 12.6444C0 14.9081 1.83436 16.7361 4.10599 16.7361C6.37761 16.7361 8.21197 14.9081 8.21197 12.6444C8.21197 10.3807 6.37761 8.55273 4.10599 8.55273Z" fill="#EE3124"></path><path d="M7.25225 19.5527H0.959961V39.841H7.25225V19.5527Z" fill="white"></path><path d="M42.6494 33.7403C40.3884 33.7403 38.5434 31.9123 38.5434 29.6486C38.5434 27.3956 40.3778 25.557 42.6494 25.557C44.921 25.557 46.7554 27.3849 46.7554 29.6486C46.7554 31.9123 44.921 33.7403 42.6494 33.7403ZM50.6694 22.5174C48.9524 20.6895 46.5421 19.5523 43.9079 19.5523C41.9349 19.5523 40.0898 20.19 38.5647 21.2846V8H32.2725V39.8512H38.5647V38.087C40.0898 39.1817 41.9349 39.8193 43.9079 39.8193C46.5421 39.8193 48.9524 38.6822 50.6694 36.8542C52.3971 35.0262 53.4743 32.4756 53.4743 29.6911C53.4743 26.896 52.3971 24.3348 50.6694 22.5174Z" fill="white"></path><path d="M19.7939 33.7406C17.533 33.7406 15.6879 31.9126 15.6879 29.6489C15.6879 27.3959 17.5223 25.5573 19.7939 25.5573C22.0656 25.5573 23.8999 27.3852 23.8999 29.6489C23.8999 31.9126 22.0656 33.7406 19.7939 33.7406ZM23.9106 19.5526V21.2956C22.3855 20.1903 20.5298 19.542 18.5461 19.542C15.9119 19.542 13.5123 20.6792 11.7953 22.5071C10.0675 24.3351 8.99039 26.8857 9.00106 29.6702C9.00106 32.4546 10.0782 35.0159 11.7953 36.8333C13.5123 38.6612 15.9226 39.809 18.5461 39.7984C20.5298 39.7984 22.3748 39.1501 23.8999 38.0554V39.8303H30.1922V19.5526H23.9106Z" fill="white"></path></svg>