<svg width="112" height="112" viewBox="0 0 112 112" fill="none" xmlns="http://www.w3.org/2000/svg">
<g clip-path="url(#clip0_3433_1406)">
<rect x="0.75" y="8.75" width="110.5" height="80.5" rx="7.25" fill="#161616" stroke="#161616" stroke-width="1.5"/>
<rect x="0.75" y="8.75" width="110.5" height="78.5" rx="7.25" fill="white" stroke="#161616" stroke-width="1.5"/>
<g filter="url(#filter0_f_3433_1406)">
<rect x="56" y="53" width="45" height="29" fill="#98C292"/>
</g>
<circle cx="6" cy="14" r="1" fill="#161616"/>
<circle cx="10" cy="14" r="1" fill="#161616"/>
<circle cx="14" cy="14" r="1" fill="#161616"/>
<path d="M108.25 48C108.25 54.347 103.986 59.25 99 59.25C94.0136 59.25 89.75 54.347 89.75 48C89.75 41.653 94.0136 36.75 99 36.75C103.986 36.75 108.25 41.653 108.25 48Z" stroke="#161616" stroke-width="1.5"/>
<path d="M107.25 48C107.25 54.386 103.179 59.25 98.5 59.25C93.8214 59.25 89.75 54.386 89.75 48C89.75 41.614 93.8214 36.75 98.5 36.75C103.179 36.75 107.25 41.614 107.25 48Z" stroke="#161616" stroke-width="1.5"/>
<rect x="36" y="26" width="40" height="1.5" rx="0.75" fill="#161616"/>
<rect x="24" y="30" width="64" height="1.5" rx="0.75" fill="#161616"/>
<rect x="40" y="39" width="32" height="8" rx="4" fill="#161616"/>
<path d="M58.5 43.1039L69.311 52.5895C69.9697 53.1674 70.4197 53.564 70.6942 53.8869C70.9703 54.2116 70.9559 54.3322 70.9426 54.3845C70.9293 54.4368 70.8842 54.5496 70.4864 54.7027C70.0909 54.8549 69.506 54.988 68.6511 55.1804L66.1275 55.7485L65.5324 55.8825L65.7805 56.4397L68.8992 63.4441C69.1459 63.9981 68.8967 64.647 68.3428 64.8936C67.7889 65.1401 67.1401 64.891 66.8935 64.3372L63.7746 57.3323L63.5229 56.767L63.023 57.1318L60.8844 58.693C60.1756 59.2104 59.6895 59.5635 59.314 59.7612C58.9362 59.9601 58.8216 59.9196 58.7735 59.8952L58.5501 60.3349L58.7735 59.8952C58.7254 59.8708 58.6252 59.8021 58.5631 59.3796C58.5013 58.9597 58.5 58.359 58.5 57.4814V43.1039Z" fill="#161616" stroke="white"/>
<path d="M66 43L68 41" stroke="white" stroke-width="1.5" stroke-linecap="round"/>
<path d="M51.0001 42L54.0081 43.992" stroke="white" stroke-width="1.5" stroke-linecap="round"/>
<path d="M59.0561 40.4176L59.0615 39.9916" stroke="white" stroke-width="1.5" stroke-linecap="round"/>
<path d="M59.2155 37.4351L59.2665 36.0004" stroke="#161616" stroke-width="1.5" stroke-linecap="round"/>
<path d="M71.9996 38L73.5027 36.3568" stroke="#161616" stroke-width="1.5" stroke-linecap="round"/>
<path d="M48.5467 37.5275L46.782 34.7049" stroke="#161616" stroke-width="1.5" stroke-linecap="round"/>
<path d="M95 50H100.5C100.633 50 100.76 49.9473 100.854 49.8535C100.947 49.7598 101 49.6326 101 49.5C101 49.3674 100.947 49.2402 100.854 49.1464C100.76 49.0527 100.633 49 100.5 49H96.5C95.837 49 95.2011 48.7366 94.7322 48.2678C94.2634 47.7989 94 47.163 94 46.5C94 45.837 94.2634 45.2011 94.7322 44.7322C95.2011 44.2634 95.837 44 96.5 44H97.5V42H99.5V44H102V46H96.5C96.3674 46 96.2402 46.0527 96.1464 46.1464C96.0527 46.2402 96 46.3674 96 46.5C96 46.6326 96.0527 46.7598 96.1464 46.8535C96.2402 46.9473 96.3674 47 96.5 47H100.5C101.163 47 101.799 47.2634 102.268 47.7322C102.737 48.2011 103 48.837 103 49.5C103 50.163 102.737 50.7989 102.268 51.2678C101.799 51.7366 101.163 52 100.5 52H99.5V54H97.5V52H95V50Z" fill="#161616"/>
<path d="M95.7843 99.6693C95.6016 99.2975 95.1522 99.1442 94.7804 99.3268C94.4087 99.5095 94.2553 99.9589 94.4379 100.331L95.7843 99.6693ZM87.9348 110.253C87.5221 110.289 87.2168 110.653 87.2528 111.065C87.2889 111.478 87.6526 111.783 88.0652 111.747L87.9348 110.253ZM99.3564 108.642L98.6832 108.973L99.3564 108.642ZM100.03 108.312L95.7843 99.6693L94.4379 100.331L98.6832 108.973L100.03 108.312ZM98.4806 109.332L87.9348 110.253L88.0652 111.747L98.6111 110.826L98.4806 109.332ZM98.6832 108.973C98.7607 109.131 98.6556 109.317 98.4806 109.332L98.6111 110.826C99.8363 110.72 100.572 109.415 100.03 108.312L98.6832 108.973Z" fill="#161616"/>
<path d="M57.5949 63.4769C49.9785 65.3153 48.6715 70.3148 51.8014 74.8319C55.1264 79.6304 59.4241 82.9523 63.6402 84.7811C72.9038 88.7993 73.905 68.3084 65.1886 73.406V73.406C31.6118 93.0425 92.6688 105.659 99.0005 109" stroke="#161616" stroke-width="1.5" stroke-linecap="round"/>
</g>
<defs>
<filter id="filter0_f_3433_1406" x="32" y="29" width="93" height="77" filterUnits="userSpaceOnUse" color-interpolation-filters="sRGB">
<feFlood flood-opacity="0" result="BackgroundImageFix"/>
<feBlend mode="normal" in="SourceGraphic" in2="BackgroundImageFix" result="shape"/>
<feGaussianBlur stdDeviation="12" result="effect1_foregroundBlur_3433_1406"/>
</filter>
<clipPath id="clip0_3433_1406">
<rect width="112" height="112" fill="white"/>
</clipPath>
</defs>
</svg>
