<svg xmlns="http://www.w3.org/2000/svg" width="42" height="36" viewBox="0 0 42 36" fill="none"><g filter="url(#filter0_f)"><path d="M38 25C38 28.866 34.866 32 31 32C27.134 32 24 28.866 24 25C24 21.134 27.134 18 31 18C34.866 18 38 21.134 38 25Z" fill="#FEECB3"></path></g><path d="M6.96412 8.84116L6.96411 8.84118C5.27794 11.5367 4.66036 14.1102 4.3182 16.0208L4.20893 16.6308C4.02687 17.6474 5.08622 18.4337 6.00654 17.9651L6.62445 17.6505C7.63015 17.1384 9.06809 16.9133 10.5835 17.0517L10.584 17.0517C10.5906 17.0523 10.5972 17.0529 10.6038 17.0535C14.3294 17.4025 17.25 20.4107 17.25 24.1407C17.25 26.0326 16.4856 27.8433 15.1314 29.1753L15.6574 29.71L15.1314 29.1753C13.7781 30.5065 11.9476 31.25 10.0442 31.25C7.81404 31.25 5.65049 30.2348 4.30344 28.8284C2.00405 26.4261 0.75 23.7747 0.75 19.2241C0.75 11.7067 5.86986 4.75746 13.7254 0.955138L14.3273 1.86874C10.7577 4.02465 8.46026 6.44952 6.96412 8.84116ZM13.6036 0.770231L13.6038 0.770619C13.6038 0.770489 13.6037 0.77036 13.6036 0.77023L13.8178 0.629066L13.6036 0.770231Z" stroke="#161616" stroke-width="1.5"></path><path d="M28.9641 8.84117L28.9641 8.84119C27.278 11.5367 26.6604 14.1102 26.3182 16.0207L26.3182 16.0208L26.2089 16.6309C26.0269 17.6474 27.0862 18.4337 28.0065 17.9651L28.6245 17.6505C29.6302 17.1384 31.0681 16.9133 32.5835 17.0517L32.6079 17.0539C36.3315 17.4046 39.25 20.412 39.25 24.1407C39.25 26.0327 38.4857 27.8433 37.1315 29.1753C35.7781 30.5065 33.9476 31.25 32.0442 31.25C29.814 31.25 27.6505 30.2348 26.3035 28.8284C24.0041 26.4261 22.75 23.7747 22.75 19.2241C22.75 11.7067 27.8699 4.75745 35.7254 0.955129L36.3274 1.86875C32.7577 4.02465 30.4603 6.44952 28.9641 8.84117ZM36.4685 2.08291C36.4684 2.0828 36.4683 2.0827 36.4683 2.08259L36.4685 2.08291Z" stroke="#FE7100" stroke-width="1.5"></path><defs><filter id="filter0_f" x="20" y="14" width="22" height="22" filterUnits="userSpaceOnUse" color-interpolation-filters="sRGB"><feGaussianBlur stdDeviation="2"></feGaussianBlur></filter></defs></svg>