<svg width="112" height="112" viewBox="0 0 112 112" fill="none" xmlns="http://www.w3.org/2000/svg">
<g clip-path="url(#clip0_3433_1784)">
<rect x="0.75" y="8.75" width="110.5" height="80.5" rx="7.25" fill="#161616" stroke="#161616" stroke-width="1.5"/>
<rect x="0.75" y="8.75" width="110.5" height="78.5" rx="7.25" fill="white" stroke="#161616" stroke-width="1.5"/>
<g filter="url(#filter0_f_3433_1784)">
<rect x="56" y="29" width="45" height="29" fill="#98C292"/>
</g>
<circle cx="6" cy="14" r="1" fill="#161616"/>
<circle cx="10" cy="14" r="1" fill="#161616"/>
<circle cx="14" cy="14" r="1" fill="#161616"/>
<rect x="8" y="26" width="36" height="4.5" rx="2.25" fill="#161616"/>
<rect x="8" y="33" width="28" height="1.5" rx="0.75" fill="#161616"/>
<rect x="8" y="45" width="24" height="1.5" rx="0.75" fill="#161616"/>
<rect x="8" y="49" width="40" height="1.5" rx="0.75" fill="#161616"/>
<rect x="8" y="61" width="48" height="1.5" rx="0.75" fill="#161616"/>
<rect x="8" y="65" width="16" height="1.5" rx="0.75" fill="#161616"/>
<path d="M93.7843 98.6693C93.6016 98.2975 93.1522 98.1442 92.7804 98.3268C92.4087 98.5095 92.2553 98.9589 92.4379 99.3307L93.7843 98.6693ZM85.9348 109.253C85.5221 109.289 85.2168 109.653 85.2528 110.065C85.2889 110.478 85.6526 110.783 86.0652 110.747L85.9348 109.253ZM97.3564 107.642L96.6832 107.973L97.3564 107.642ZM98.0296 107.312L93.7843 98.6693L92.4379 99.3307L96.6832 107.973L98.0296 107.312ZM96.4806 108.332L85.9348 109.253L86.0652 110.747L96.6111 109.826L96.4806 108.332ZM96.6832 107.973C96.7607 108.131 96.6556 108.317 96.4806 108.332L96.6111 109.826C97.8363 109.72 98.5718 108.415 98.0296 107.312L96.6832 107.973Z" fill="#161616"/>
<path d="M43.9999 67.5C48.4656 73.9448 56.1113 80.1074 63.6671 83.1966C73.4152 87.1821 74.2795 68.0894 65.1886 73.406V73.406C31.6118 93.0426 90.1682 105.159 96.4999 108.5" stroke="#161616" stroke-width="1.5" stroke-linecap="round"/>
<path d="M56.6153 8H94.6624L96 10H56L56.6153 8Z" fill="white"/>
<circle cx="76" cy="28" r="27.25" stroke="#161616" stroke-width="1.5"/>
<path d="M103.25 28.5C103.25 43.8385 91.0373 56.25 76 56.25C60.9627 56.25 48.75 43.8385 48.75 28.5C48.75 13.1615 60.9627 0.75 76 0.75C91.0373 0.75 103.25 13.1615 103.25 28.5Z" stroke="#161616" stroke-width="1.5"/>
<path d="M62.2805 34.216C61.2845 34.216 60.3185 34.084 59.3825 33.82C58.4585 33.544 57.7145 33.19 57.1505 32.758L58.1405 30.562C58.6805 30.958 59.3225 31.276 60.0665 31.516C60.8105 31.756 61.5545 31.876 62.2985 31.876C63.1265 31.876 63.7385 31.756 64.1345 31.516C64.5305 31.264 64.7285 30.934 64.7285 30.526C64.7285 30.226 64.6085 29.98 64.3685 29.788C64.1405 29.584 63.8405 29.422 63.4685 29.302C63.1085 29.182 62.6165 29.05 61.9925 28.906C61.0325 28.678 60.2465 28.45 59.6345 28.222C59.0225 27.994 58.4945 27.628 58.0505 27.124C57.6185 26.62 57.4025 25.948 57.4025 25.108C57.4025 24.376 57.6005 23.716 57.9965 23.128C58.3925 22.528 58.9865 22.054 59.7785 21.706C60.5825 21.358 61.5605 21.184 62.7125 21.184C63.5165 21.184 64.3025 21.28 65.0705 21.472C65.8385 21.664 66.5105 21.94 67.0865 22.3L66.1865 24.514C65.0225 23.854 63.8585 23.524 62.6945 23.524C61.8785 23.524 61.2725 23.656 60.8765 23.92C60.4925 24.184 60.3005 24.532 60.3005 24.964C60.3005 25.396 60.5225 25.72 60.9665 25.936C61.4225 26.14 62.1125 26.344 63.0365 26.548C63.9965 26.776 64.7825 27.004 65.3945 27.232C66.0065 27.46 66.5285 27.82 66.9605 28.312C67.4045 28.804 67.6265 29.47 67.6265 30.31C67.6265 31.03 67.4225 31.69 67.0145 32.29C66.6185 32.878 66.0185 33.346 65.2145 33.694C64.4105 34.042 63.4325 34.216 62.2805 34.216ZM79.375 31.66V34H69.619V21.4H79.141V23.74H72.517V26.476H78.367V28.744H72.517V31.66H79.375ZM87.762 34.216C86.454 34.216 85.272 33.934 84.216 33.37C83.172 32.806 82.35 32.032 81.75 31.048C81.162 30.052 80.868 28.936 80.868 27.7C80.868 26.464 81.162 25.354 81.75 24.37C82.35 23.374 83.172 22.594 84.216 22.03C85.272 21.466 86.454 21.184 87.762 21.184C89.07 21.184 90.246 21.466 91.29 22.03C92.334 22.594 93.156 23.374 93.756 24.37C94.356 25.354 94.656 26.464 94.656 27.7C94.656 28.936 94.356 30.052 93.756 31.048C93.156 32.032 92.334 32.806 91.29 33.37C90.246 33.934 89.07 34.216 87.762 34.216ZM87.762 31.732C88.506 31.732 89.178 31.564 89.778 31.228C90.378 30.88 90.846 30.4 91.182 29.788C91.53 29.176 91.704 28.48 91.704 27.7C91.704 26.92 91.53 26.224 91.182 25.612C90.846 25 90.378 24.526 89.778 24.19C89.178 23.842 88.506 23.668 87.762 23.668C87.018 23.668 86.346 23.842 85.746 24.19C85.146 24.526 84.672 25 84.324 25.612C83.988 26.224 83.82 26.92 83.82 27.7C83.82 28.48 83.988 29.176 84.324 29.788C84.672 30.4 85.146 30.88 85.746 31.228C86.346 31.564 87.018 31.732 87.762 31.732Z" fill="#161616"/>
<rect x="90" y="59.9282" width="8" height="24" rx="4" transform="rotate(-30 90 59.9282)" fill="#161616"/>
<rect x="88.5981" y="51.5" width="2" height="10" transform="rotate(-30 88.5981 51.5)" fill="#161616"/>
<path d="M61 50.5L65.9072 40.6856C65.9144 40.6712 65.918 40.664 65.9212 40.6577C66.8274 38.861 68.9273 38.0173 70.8247 38.6874C70.8313 38.6898 70.8389 38.6925 70.8541 38.6979L71.9643 39.0944C73.3798 39.5999 74.9418 38.8956 75.5 37.5V37.5" stroke="#161616" stroke-width="1.5" stroke-linecap="round"/>
<path d="M81.542 18.75L85.958 7.75002" stroke="#161616" stroke-width="1.5" stroke-linecap="round"/>
<path d="M89.004 13.9097L86.9033 9.07788C86.4823 8.10943 86.2717 7.6252 85.8425 7.48625C85.4133 7.34731 84.959 7.6163 84.0503 8.15429L79.4 10.9075" stroke="#161616" stroke-width="1.5" stroke-linecap="round"/>
</g>
<defs>
<filter id="filter0_f_3433_1784" x="32" y="5" width="93" height="77" filterUnits="userSpaceOnUse" color-interpolation-filters="sRGB">
<feFlood flood-opacity="0" result="BackgroundImageFix"/>
<feBlend mode="normal" in="SourceGraphic" in2="BackgroundImageFix" result="shape"/>
<feGaussianBlur stdDeviation="12" result="effect1_foregroundBlur_3433_1784"/>
</filter>
<clipPath id="clip0_3433_1784">
<rect width="112" height="112" fill="white"/>
</clipPath>
</defs>
</svg>
