<svg width="112" height="112" viewBox="0 0 112 112" fill="none" xmlns="http://www.w3.org/2000/svg">
<g clip-path="url(#clip0_3433_1332)">
<rect x="13.75" y="0.75" width="82.5" height="100.5" rx="7.25" fill="#161616" stroke="#161616" stroke-width="1.5"/>
<rect x="13.75" y="0.75" width="82.5" height="98.5" rx="7.25" fill="white" stroke="#161616" stroke-width="1.5"/>
<path d="M14 14V14C37.616 34.16 72.384 34.16 96 14V14" stroke="#161616" stroke-width="1.5"/>
<path fill-rule="evenodd" clip-rule="evenodd" d="M56.7758 35.8293C56.1576 35.8599 55.6307 35.8861 54.9039 36.5366L54.9042 36.5365C53.5801 37.7203 52.316 36.3939 51.2415 35.2664C50.8535 34.8593 50.4903 34.4781 50.1579 34.2505C49.8251 34.0225 49.4611 33.8611 49.1004 33.7013C48.4428 33.4098 47.7964 33.1232 47.3707 32.4467C46.8393 31.6025 46.9912 30.7335 47.144 29.8588C47.2071 29.4982 47.2702 29.1366 47.2858 28.7754C47.2971 28.5142 47.3012 28.2422 47.3054 27.9643C47.3311 26.2806 47.36 24.3759 48.9961 23.2878C49.2622 23.1109 49.5211 23.0632 49.7786 23.0158C50.0194 22.9715 50.2588 22.9274 50.5014 22.778C50.9095 22.5267 51.1916 22.2621 51.453 22.0168C51.9438 21.5563 52.3618 21.1641 53.4046 21.057C54.7118 20.9226 56.6257 20.9644 57.6704 21.8733C57.8365 22.0178 57.9454 22.222 58.0528 22.4237C58.1598 22.6244 58.2654 22.8226 58.4248 22.957C58.702 23.1907 58.9711 23.2644 59.2484 23.3405C59.4281 23.3898 59.6113 23.44 59.8025 23.5353C61.7376 24.501 62.4917 27.189 62.7999 29.2502C62.9412 30.1955 62.7505 30.484 62.2618 31.2232C62.2166 31.2915 62.1689 31.3637 62.1186 31.4407C61.8853 31.7979 61.7067 32.1411 61.5358 32.4696C61.1672 33.1779 60.8344 33.8176 60.0652 34.3812C59.5234 34.7782 58.5053 35.518 57.8704 35.6854C57.4519 35.7958 57.1012 35.8131 56.7758 35.8293ZM57.5773 23.0283C58.6272 22.1043 54.7961 21.7637 55.4061 22.071C55.5202 22.1285 55.6884 22.2474 55.8833 22.3852C56.4449 22.7821 57.228 23.3356 57.5773 23.0283ZM62.4209 30.6035C63.0724 30.421 61.5458 23.9223 59.6842 23.9423V23.9424C59.2471 24.289 59.963 25.2851 60.5622 26.1188C60.8658 26.5412 61.1395 26.922 61.2179 27.1554C61.27 27.3103 61.3161 27.6361 61.3717 28.0287C61.5293 29.1406 61.7627 30.788 62.4209 30.6035ZM49.5293 25.9379C52.913 19.2222 63.3274 24.469 59.9438 31.1849C56.5601 37.9004 46.146 32.653 49.5293 25.9379ZM47.6585 29.7121C48.3434 28.6801 48.4772 30.2717 48.5273 30.8677L47.6585 29.7121ZM48.5273 30.8677L48.5281 30.8769L48.5273 30.8677ZM48.5281 30.8769C48.6007 31.7381 49.4105 32.7699 49.6313 33.0513L48.5281 30.8769ZM49.6313 33.0513C49.6674 33.0972 49.6878 33.1231 49.6866 33.1251L49.6313 33.0513ZM49.6866 33.1251C49.2687 33.8434 47.848 32.1821 47.699 31.8953L49.6866 33.1251ZM50.1619 33.741L50.4063 33.9867C50.435 34.0121 50.5027 34.0836 50.5991 34.1853C51.2353 34.8571 53.1207 36.8477 53.2726 35.5989C53.3265 35.1563 50.1592 33.4519 50.1619 33.741ZM59.3989 30.9107C62.4306 24.8936 53.0975 20.2112 50.074 26.2124C47.0528 32.2094 56.3635 36.9351 59.3989 30.9107Z" fill="#161616"/>
<path d="M12.5 74H14.5L16 96H13L12.5 74Z" fill="white"/>
<path d="M13.6031 96.2295L13.5745 96.2273H13.5459C13.156 96.2273 12.7995 96.3575 12.4505 96.6114C12.2812 96.7299 12.106 96.853 11.9258 96.9795C10.844 97.7392 9.5877 98.6216 8.40214 99.3551C7.7101 99.7832 7.06015 100.149 6.49837 100.406C5.9126 100.674 5.51196 100.78 5.28845 100.78C5.1238 100.78 5.03123 100.748 4.98982 100.727C4.97917 100.721 4.97186 100.717 4.96702 100.713C4.96674 100.683 4.97963 100.602 5.08745 100.466L5.08893 100.464C5.22305 100.294 5.40646 100.079 5.62813 99.8184C5.83294 99.5778 6.07042 99.2988 6.33185 98.9818C6.84745 98.3566 7.41855 97.6261 7.82375 96.9521L7.83834 96.9278L7.85106 96.9025C7.97252 96.6609 8.04171 96.348 7.93488 96.0181C7.83132 95.6982 7.60284 95.4887 7.38956 95.3591L7.3724 95.3487L7.3547 95.3392C3.33753 93.1829 0.75 88.8355 0.75 84.9951C0.75 78.9096 6.9195 73.75 14.9935 73.75C23.0685 73.75 29.25 78.9103 29.25 84.9951C29.25 91.3396 23.1278 96.2405 14.0102 96.253L14.0112 97.003V96.253C13.9101 96.253 13.7959 96.2443 13.6307 96.2316L13.6031 96.2295ZM4.95877 100.706C4.95886 100.706 4.95935 100.706 4.96009 100.707C4.95905 100.706 4.95868 100.706 4.95877 100.706ZM4.96775 100.723C4.96855 100.726 4.96874 100.727 4.96863 100.727C4.96853 100.727 4.96813 100.726 4.96775 100.723Z" fill="white" stroke="#161616" stroke-width="1.5"/>
<path d="M14.0957 97.1014L14.0671 97.0992H14.0385C13.6411 97.0992 13.2771 97.2317 12.9193 97.4921C11.7512 98.3083 10.217 99.1323 8.77314 99.7515C8.05162 100.061 7.36395 100.314 6.76637 100.489C6.15615 100.668 5.68689 100.75 5.38498 100.75C5.21092 100.75 5.11054 100.716 5.06303 100.692C5.04163 100.681 5.0306 100.672 5.02551 100.667C5.022 100.642 5.02188 100.549 5.15531 100.381L5.15679 100.379C5.26863 100.237 5.42842 100.046 5.61799 99.8188C6.24613 99.067 7.20128 97.9238 7.82277 96.8899L7.83736 96.8657L7.85008 96.8404C7.97366 96.5945 8.04331 96.2778 7.93537 95.9444C7.8307 95.6211 7.5995 95.4086 7.382 95.2764L7.36484 95.2659L7.34714 95.2564C3.14232 92.9995 0.75 89.3885 0.75 85.4313C0.75 79.1041 7.16202 73.75 15.5388 73.75C23.9164 73.75 30.3409 79.1048 30.3409 85.4313C30.3409 92.0282 23.9762 97.1128 14.5197 97.1259L14.5207 97.8759V97.1259C14.4148 97.1259 14.2955 97.1167 14.1248 97.1036L14.0957 97.1014ZM5.02174 100.662C5.02178 100.662 5.02226 100.663 5.02298 100.664C5.02205 100.663 5.02169 100.662 5.02174 100.662ZM5.0264 100.672C5.02686 100.673 5.02702 100.674 5.02698 100.674L5.0264 100.672Z" stroke="#161616" stroke-width="1.5"/>
<circle cx="28" cy="82" r="4.5" fill="#161616" stroke="white"/>
<g filter="url(#filter0_f_3433_1332)">
<rect x="55" y="43" width="39" height="30" fill="#98C292"/>
</g>
<path fill-rule="evenodd" clip-rule="evenodd" d="M47.3305 63.7681C51.0003 60.7461 65.6817 48.0816 74.444 41.0673C72.9904 44.2313 73.7026 49.0445 75.5434 54.328C76.2235 56.0378 77.8921 54.5592 77.7423 53.2064C75.5735 46.8355 75.2616 41.7133 77.3347 38.7734C79.0467 37.5169 80.3584 36.569 81.0022 36.3278C87.5079 33.6719 94.1772 45.3809 96.1532 50.1772C97.9961 54.8841 101.49 68.021 94.9845 70.6776C93.2747 71.3578 84.8923 72.0778 75.7127 72.8389C72.6852 81.4943 59.6035 82.3279 55.1575 74.3298C53.3392 74.4556 51.9645 74.4941 51.0556 74.557C48.2073 71.7744 46.849 67.7789 47.3308 63.7687L47.3305 63.7681ZM72.5416 73.1137C67.5307 73.4038 62.4301 73.8266 58.3282 74.0538C61.9895 78.6352 69.7276 78.1564 72.5416 73.1137ZM80.188 40.4029C84.1853 33.1704 92.7919 48.3013 93.7998 51.0982C97.2712 58.8264 97.6476 75.4536 87.6694 65.0826C83.7407 60.8993 81.6997 55.7708 80.392 50.2681C82.7981 47.2629 87.2809 46.0398 90.2887 47.8694C88.9476 45.1375 84.0561 37.8028 80.1884 40.4024L80.188 40.4029Z" fill="#161616"/>
<path d="M99.5 39.0002L102.755 34.7373" stroke="#161616" stroke-width="1.5" stroke-linecap="round"/>
<path d="M101.147 50.5441L109.688 46.4148" stroke="#161616" stroke-width="1.5" stroke-linecap="round"/>
<path d="M103.852 59.1572L110.5 59.5001" stroke="#161616" stroke-width="1.5" stroke-linecap="round"/>
<path d="M102.992 66.5654L110.251 71.5278" stroke="#161616" stroke-width="1.5" stroke-linecap="round"/>
<path d="M80.5862 103L83.8572 109.503C84.1917 110.168 83.7082 110.952 82.9638 110.952H75.5862" stroke="#161616" stroke-width="1.5" stroke-linecap="round"/>
<path d="M53.9999 83C56.8609 86.4295 59.6331 89.3035 62.195 91.626C68.7409 97.5604 80.8356 85.5 72.0001 85.4999V85.4999C39.3467 85.4997 76.6855 106.904 83.0862 110" stroke="#161616" stroke-width="1.5" stroke-linecap="round"/>
</g>
<defs>
<filter id="filter0_f_3433_1332" x="31" y="19" width="87" height="78" filterUnits="userSpaceOnUse" color-interpolation-filters="sRGB">
<feFlood flood-opacity="0" result="BackgroundImageFix"/>
<feBlend mode="normal" in="SourceGraphic" in2="BackgroundImageFix" result="shape"/>
<feGaussianBlur stdDeviation="12" result="effect1_foregroundBlur_3433_1332"/>
</filter>
<clipPath id="clip0_3433_1332">
<rect width="112" height="112" fill="white"/>
</clipPath>
</defs>
</svg>
