<svg xmlns="http://www.w3.org/2000/svg" width="120" height="24" viewBox="0 0 120 24" fill="none"><path fill-rule="evenodd" clip-rule="evenodd" d="M24.3872 12.0006C24.3872 9.60349 24.9543 7.3551 26.2661 5.32891C27.8519 2.88092 30.088 1.29537 32.8817 0.485644C34.3349 0.0715783 35.8509 -0.0795759 37.3576 0.0393549C39.7113 0.181344 41.9697 1.0163 43.8466 2.43839C45.6377 3.78607 46.9811 5.63875 47.7025 7.7562C48.234 9.29401 48.4674 10.9184 48.3906 12.543C48.2904 15.0418 47.5683 17.3373 46.0486 19.3503C44.425 21.4989 42.2683 22.8735 39.6769 23.5721C38.247 23.9546 36.7605 24.0821 35.286 23.9488C32.7836 23.7668 30.4025 22.8035 28.4814 21.1957C26.6755 19.6869 25.3914 17.6507 24.8106 15.3751C24.5194 14.2741 24.377 13.1392 24.3872 12.0006ZM30.7609 12.3584C30.7698 12.4265 30.7786 12.5101 30.7887 12.6045C30.8149 12.8522 30.8492 13.1747 30.9121 13.4883C31.19 14.8931 31.8723 16.053 33.0726 16.8665C33.7348 17.3259 34.4868 17.641 35.2796 17.7913C36.0723 17.9415 36.888 17.9235 37.6733 17.7384C39.605 17.3354 40.9735 16.2056 41.6445 14.3225C42.1075 12.9879 42.1653 11.5469 41.8109 10.1797C41.5446 8.95305 40.8306 7.8686 39.8073 7.13667C39.1342 6.64638 38.3614 6.30915 37.5433 6.14875C36.7252 5.98834 35.8817 6.00868 35.0724 6.20831C34.3118 6.35718 33.5944 6.67397 32.9729 7.13541C32.3514 7.59685 31.8416 8.19119 31.4811 8.87474C30.9178 9.88972 30.7515 11.0045 30.7609 12.3584ZM68.9121 0.481873V6.43051H75.6071V23.5044H81.7823V6.43051H88.4924V0.481873H68.9121ZM52.9951 0.521418V23.4949H68.5664V17.5632H59.1873V0.513885L52.9951 0.521418ZM92.5713 23.5194V0.49884H99.4931L106.676 12.0082V0.521437H112.819V23.5194H106.676L98.737 10.8558V23.5194H92.5713ZM13.2501 7.30237L18.7543 0.481873H23.8483L14.8851 23.4554H8.97833L0 0.481873H10.1068L6.87835 9.01409H10.8477L8.99535 15.2019L16.2668 7.30237H13.2501Z" fill="#161616"></path></svg>