<svg width="112" height="112" viewBox="0 0 112 112" fill="none" xmlns="http://www.w3.org/2000/svg">
<g clip-path="url(#clip0_3433_1825)">
<path d="M79.1111 100L83.3564 108.642C83.6663 109.273 83.2459 110.018 82.5458 110.079L72 111" stroke="#161616" stroke-width="1.5" stroke-linecap="round"/>
<rect x="27.75" y="0.75" width="54.5" height="96.5" rx="7.25" fill="#161616" stroke="#161616" stroke-width="1.5"/>
<rect x="27.75" y="0.75" width="54.5" height="94.5" rx="7.25" fill="white" stroke="#161616" stroke-width="1.5"/>
<g filter="url(#filter0_f_3433_1825)">
<rect x="42" y="53" width="39" height="30" fill="#98C292"/>
</g>
<rect x="39" y="71" width="32" height="1.5" rx="0.75" fill="#161616"/>
<rect x="47" y="75" width="16" height="1.5" rx="0.75" fill="#161616"/>
<path d="M57.5896 79.4769C50.1495 80.6888 49.0802 84.8439 52.3712 88.7889C56.8384 94.1439 60.6212 99.0315 64.7657 101.084C72.8015 105.064 73.1802 83.5046 65.5283 88.1802V88.1802C29 110.5 76.5993 105.905 83 109" stroke="#161616" stroke-width="1.5" stroke-linecap="round"/>
<path fill-rule="evenodd" clip-rule="evenodd" d="M53.3345 14.8909C53.3383 15.2196 53.0942 15.5009 52.7622 15.5503L52.7621 15.5503C52.5767 15.5716 52.391 15.5145 52.2513 15.3933C52.1115 15.2721 52.0312 15.0984 52.0304 14.9156C52.0292 14.1803 52.3124 13.4716 52.8233 12.9322C53.3339 12.3927 54.0342 12.0627 54.7833 12.008C55.5324 11.9534 56.275 12.1785 56.8616 12.638C57.4483 13.0974 57.8356 13.7573 57.9457 14.4848C58.0556 15.2123 57.8803 15.9538 57.4551 16.5598C57.0296 17.1661 56.3857 17.5922 55.6525 17.7525L55.6522 18.9475L58.6549 19.6816C58.7686 19.7063 58.8631 19.783 58.9088 19.8876C58.9548 19.9923 58.9467 20.1122 58.8869 20.2099L58.5935 20.7098C58.5137 20.8545 58.3427 20.9265 58.1805 20.8837H58.1807L54.9933 20.1036L51.806 20.8837C51.6438 20.9265 51.473 20.8545 51.3931 20.7098L51.1069 20.2099C51.0516 20.1135 51.0455 19.9972 51.0902 19.8958C51.1349 19.7942 51.2254 19.719 51.335 19.6922L54.3378 18.9581V17.1851C54.3398 16.8301 54.6343 16.5432 54.9969 16.5432C55.4362 16.5432 55.8579 16.3728 56.1694 16.0693C56.4809 15.766 56.657 15.3539 56.6591 14.9238C56.6613 14.4937 56.4895 14.0801 56.181 13.7736C55.8728 13.4669 55.4529 13.2925 55.0136 13.2881C54.5742 13.2839 54.1508 13.4498 53.8362 13.7504C53.5214 14.0506 53.341 14.4608 53.3345 14.8909ZM45.858 30.0886V43.2905L45.8579 43.2906C45.8579 43.4818 45.9367 43.6649 46.0764 43.7984C46.2164 43.932 46.4051 44.0045 46.6004 43.9998H63.4172C63.6095 43.9998 63.7937 43.9251 63.9296 43.792C64.0653 43.6592 64.1416 43.4786 64.1416 43.2906L64.1418 30.0849L65.116 31.1169C65.2534 31.2697 65.4513 31.3571 65.6592 31.3571C65.8671 31.3571 66.0649 31.2697 66.2026 31.1169L69.799 27.259C69.9352 27.1195 70.0075 26.932 69.9994 26.7393C69.9911 26.5466 69.9031 26.3655 69.7556 26.2377L63.7977 20.8016L60.7915 20.2095L59.8316 21.9043C59.1869 23.0295 58.1536 23.8928 56.9171 24.339C55.6809 24.7852 54.3225 24.7852 53.0863 24.339C51.8498 23.8928 50.8165 23.0296 50.1718 21.9043V21.9046L49.2011 20.2095L46.1878 20.8123L40.2369 26.2376C40.0939 26.365 40.0088 26.5431 40.0007 26.7323C39.9923 26.9216 40.0618 27.1058 40.1934 27.2446L43.7972 31.1206C43.9347 31.2732 44.1327 31.3605 44.3404 31.3605C44.5483 31.3605 44.7464 31.2732 44.8838 31.1206L45.858 30.0886Z" fill="#161616"/>
<path d="M48 1H62C62 2.65685 60.6569 4 59 4H51C49.3431 4 48 2.65685 48 1Z" fill="#161616"/>
<path d="M45.5 60L49.3492 62.4907C51.5561 63.9186 52.6595 64.6326 53.8155 64.4328C54.9714 64.2329 55.7711 63.1899 57.3704 61.1039L65.5 50.5" stroke="#161616" stroke-width="1.5" stroke-linecap="round"/>
<path d="M2.1796 75.444C2.31594 73.6716 2.41409 72.415 2.61293 71.4647C2.80736 70.5355 3.07934 70.0012 3.49591 69.6154C3.91249 69.2296 4.46614 68.9994 5.40752 68.8769C6.37027 68.7515 7.63068 68.75 9.40825 68.75H14.5918C16.3693 68.75 17.6297 68.7515 18.5925 68.8769C19.5339 68.9994 20.0875 69.2296 20.5041 69.6154C20.9207 70.0012 21.1926 70.5355 21.3871 71.4647C21.5859 72.415 21.6841 73.6716 21.8204 75.4439L22.5896 85.4439C22.7464 87.4823 22.8564 88.9335 22.7894 90.0382C22.7237 91.1212 22.4927 91.7464 22.0651 92.2082C21.6375 92.67 21.0318 92.9482 19.957 93.0968C18.8607 93.2483 17.4054 93.25 15.361 93.25H8.63902C6.59464 93.25 5.13927 93.2483 4.043 93.0968C2.96819 92.9482 2.36253 92.67 1.93491 92.2082C1.50729 91.7464 1.27632 91.1212 1.21064 90.0382C1.14364 88.9335 1.25358 87.4823 1.41037 85.444L2.1796 75.444Z" stroke="#161616" stroke-width="1.5"/>
<path d="M2.19913 75.4644C2.33079 73.6871 2.42564 72.4269 2.62242 71.4737C2.81484 70.5417 3.08622 70.0057 3.50308 69.6185C3.91993 69.2314 4.47455 69.0004 5.41825 68.8773C6.38333 68.7515 7.64712 68.75 9.42933 68.75H14.5707C16.3529 68.75 17.6167 68.7515 18.5817 68.8773C19.5255 69.0004 20.0801 69.2314 20.4969 69.6185C20.9138 70.0057 21.1852 70.5417 21.3776 71.4737C21.5744 72.4269 21.6692 73.6871 21.8009 75.4644L22.6157 86.4644C22.7663 88.498 22.8719 89.9457 22.802 91.0475C22.7336 92.1277 22.5017 92.7513 22.0742 93.2116C21.6467 93.6719 21.042 93.9492 19.9698 94.0973C18.8762 94.2483 17.4246 94.25 15.3855 94.25H8.61451C6.57537 94.25 5.12385 94.2483 4.03018 94.0973C2.95798 93.9492 2.35328 93.6719 1.92579 93.2116C1.49829 92.7513 1.2664 92.1277 1.19796 91.0475C1.12814 89.9457 1.23368 88.498 1.38432 86.4644L2.19913 75.4644Z" stroke="#161616" stroke-width="1.5"/>
<path d="M7.42816 72.8335C7.72105 73.1264 8.19592 73.1264 8.48882 72.8336C8.78172 72.5407 8.78172 72.0658 8.48883 71.7729L7.42816 72.8335ZM7.9585 72.3032C8.48883 71.7729 8.48902 71.7731 8.48919 71.7733C8.48922 71.7733 8.48937 71.7734 8.48944 71.7735C8.48956 71.7736 8.48961 71.7737 8.48959 71.7737C8.48955 71.7736 8.4892 71.7733 8.48857 71.7726C8.48731 71.7714 8.48489 71.7689 8.48136 71.7653C8.4743 71.758 8.46281 71.7461 8.44727 71.7298C8.4162 71.697 8.36902 71.6463 8.30884 71.579C8.18839 71.4441 8.01654 71.2431 7.81798 70.9857C7.41934 70.469 6.92107 69.7351 6.51318 68.861C5.69586 67.1096 5.27876 64.8939 6.6017 62.689L5.31546 61.9173C3.6384 64.7124 4.22126 67.4968 5.1539 69.4953C5.62099 70.4963 6.18519 71.3249 6.63029 71.9019C6.8536 72.1914 7.04892 72.4201 7.19019 72.5783C7.26087 72.6574 7.31818 72.719 7.35888 72.7619C7.37924 72.7834 7.39545 72.8002 7.40713 72.8122C7.41297 72.8182 7.41767 72.823 7.42119 72.8265C7.42295 72.8283 7.42442 72.8298 7.42558 72.831C7.42616 72.8315 7.42667 72.8321 7.4271 72.8325C7.42731 72.8327 7.42758 72.833 7.42769 72.8331C7.42793 72.8333 7.42816 72.8335 7.9585 72.3032ZM6.6017 62.689C6.95742 62.0962 7.21456 61.8522 7.35184 61.7711C7.4077 61.7381 7.41232 61.7508 7.37773 61.75C7.3405 61.7491 7.32474 61.7343 7.34098 61.7457C7.4031 61.7892 7.53775 61.9417 7.69763 62.3058C7.84784 62.648 7.98387 63.0915 8.10351 63.6C8.34228 64.6147 8.49465 65.7953 8.58718 66.736C8.63315 67.2034 8.6638 67.6057 8.68291 67.8906C8.69247 68.0329 8.69913 68.1457 8.70338 68.2224C8.7055 68.2607 8.70702 68.29 8.70799 68.3094C8.70848 68.3192 8.70883 68.3264 8.70906 68.3311C8.70917 68.3334 8.70925 68.3351 8.7093 68.3361C8.70932 68.3367 8.70934 68.337 8.70935 68.3372C8.70935 68.3373 8.70935 68.3373 8.70935 68.3374C8.70935 68.3373 8.70935 68.3373 9.45858 68.3032C10.2078 68.2692 10.2078 68.269 10.2078 68.2688C10.2078 68.2687 10.2078 68.2685 10.2078 68.2682C10.2077 68.2678 10.2077 68.2671 10.2077 68.2663C10.2076 68.2647 10.2075 68.2624 10.2073 68.2595C10.2071 68.2536 10.2067 68.2451 10.2061 68.2342C10.205 68.2123 10.2034 68.1804 10.2011 68.1394C10.1965 68.0574 10.1895 67.9388 10.1795 67.7901C10.1596 67.4929 10.1278 67.0749 10.08 66.5892C9.985 65.6236 9.82488 64.3667 9.56364 63.2564C9.43329 62.7024 9.27244 62.1615 9.07109 61.7029C8.87941 61.2662 8.60781 60.8015 8.20118 60.5169C7.98304 60.3642 7.71728 60.2576 7.41345 60.2504C7.11226 60.2432 6.83368 60.335 6.58875 60.4797C6.12448 60.7541 5.70974 61.2601 5.31546 61.9173L6.6017 62.689Z" fill="#161616"/>
<path d="M15.4282 72.8335C15.721 73.1264 16.1959 73.1264 16.4888 72.8336C16.7817 72.5407 16.7817 72.0658 16.4888 71.7729L15.4282 72.8335ZM15.9585 72.3032C16.4888 71.7729 16.489 71.7731 16.4892 71.7733C16.4892 71.7733 16.4894 71.7734 16.4894 71.7735C16.4896 71.7736 16.4896 71.7737 16.4896 71.7737C16.4895 71.7736 16.4892 71.7733 16.4886 71.7726C16.4873 71.7714 16.4849 71.7689 16.4814 71.7653C16.4743 71.758 16.4628 71.7461 16.4473 71.7298C16.4162 71.697 16.369 71.6463 16.3088 71.579C16.1884 71.4441 16.0165 71.2431 15.818 70.9857C15.4193 70.469 14.9211 69.7351 14.5132 68.861C13.6959 67.1096 13.2788 64.8939 14.6017 62.689L13.3155 61.9173C11.6384 64.7124 12.2213 67.4968 13.1539 69.4953C13.621 70.4963 14.1852 71.3249 14.6303 71.9019C14.8536 72.1914 15.0489 72.4201 15.1902 72.5783C15.2609 72.6574 15.3182 72.719 15.3589 72.7619C15.3792 72.7834 15.3955 72.8002 15.4071 72.8122C15.413 72.8182 15.4177 72.823 15.4212 72.8265C15.423 72.8283 15.4244 72.8298 15.4256 72.831C15.4262 72.8315 15.4267 72.8321 15.4271 72.8325C15.4273 72.8327 15.4276 72.833 15.4277 72.8331C15.4279 72.8333 15.4282 72.8335 15.9585 72.3032ZM14.6017 62.689C14.9574 62.0962 15.2146 61.8522 15.3518 61.7711C15.4077 61.7381 15.4123 61.7508 15.3777 61.75C15.3405 61.7491 15.3247 61.7343 15.341 61.7457C15.4031 61.7892 15.5377 61.9417 15.6976 62.3058C15.8478 62.648 15.9839 63.0915 16.1035 63.6C16.3423 64.6147 16.4946 65.7953 16.5872 66.736C16.6332 67.2034 16.6638 67.6057 16.6829 67.8906C16.6925 68.0329 16.6991 68.1457 16.7034 68.2224C16.7055 68.2607 16.707 68.29 16.708 68.3094C16.7085 68.3192 16.7088 68.3264 16.7091 68.3311C16.7092 68.3334 16.7092 68.3351 16.7093 68.3361C16.7093 68.3367 16.7093 68.337 16.7093 68.3372C16.7093 68.3373 16.7094 68.3373 16.7094 68.3374C16.7094 68.3373 16.7093 68.3373 17.4586 68.3032C18.2078 68.2692 18.2078 68.269 18.2078 68.2688C18.2078 68.2687 18.2078 68.2685 18.2078 68.2682C18.2077 68.2678 18.2077 68.2671 18.2077 68.2663C18.2076 68.2647 18.2075 68.2624 18.2073 68.2595C18.2071 68.2536 18.2067 68.2451 18.2061 68.2342C18.205 68.2123 18.2034 68.1804 18.2011 68.1394C18.1965 68.0574 18.1895 67.9388 18.1795 67.7901C18.1596 67.4929 18.1278 67.0749 18.08 66.5892C17.985 65.6236 17.8249 64.3667 17.5636 63.2564C17.4333 62.7024 17.2724 62.1615 17.0711 61.7029C16.8794 61.2662 16.6078 60.8015 16.2012 60.5169C15.983 60.3642 15.7173 60.2576 15.4135 60.2504C15.1123 60.2432 14.8337 60.335 14.5888 60.4797C14.1245 60.7541 13.7097 61.2601 13.3155 61.9173L14.6017 62.689Z" fill="#161616"/>
<rect x="8" y="88" width="8" height="1.5" rx="0.75" fill="#161616"/>
<rect x="72.75" y="32.75" width="38.5" height="24.5" rx="3.25" fill="#161616" stroke="#161616" stroke-width="1.5"/>
<rect x="72.75" y="32.75" width="38.5" height="22.5" rx="3.25" fill="white" stroke="#161616" stroke-width="1.5"/>
<rect x="72" y="37" width="39" height="4" fill="#161616"/>
<circle cx="103" cy="48" r="3.5" fill="#161616" stroke="white"/>
<circle cx="98" cy="48" r="3.5" fill="#161616" stroke="white"/>
</g>
<defs>
<filter id="filter0_f_3433_1825" x="18" y="29" width="87" height="78" filterUnits="userSpaceOnUse" color-interpolation-filters="sRGB">
<feFlood flood-opacity="0" result="BackgroundImageFix"/>
<feBlend mode="normal" in="SourceGraphic" in2="BackgroundImageFix" result="shape"/>
<feGaussianBlur stdDeviation="12" result="effect1_foregroundBlur_3433_1825"/>
</filter>
<clipPath id="clip0_3433_1825">
<rect width="112" height="112" fill="white"/>
</clipPath>
</defs>
</svg>
