<svg width="112" height="112" viewBox="0 0 112 112" fill="none" xmlns="http://www.w3.org/2000/svg">
<mask id="path-1-inside-1_3433_1695" fill="white">
<path fill-rule="evenodd" clip-rule="evenodd" d="M28.3431 6.34315C26 8.68629 26 12.4575 26 20V59H31V101.229C33.3833 102 36.7929 102 42 102H66C73.5425 102 77.3137 102 79.6569 99.6569C82 97.3137 82 93.5425 82 86V20C82 12.4575 82 8.68629 79.6569 6.34315C77.3137 4 73.5425 4 66 4H42C34.4575 4 30.6863 4 28.3431 6.34315Z"/>
</mask>
<path fill-rule="evenodd" clip-rule="evenodd" d="M28.3431 6.34315C26 8.68629 26 12.4575 26 20V59H31V101.229C33.3833 102 36.7929 102 42 102H66C73.5425 102 77.3137 102 79.6569 99.6569C82 97.3137 82 93.5425 82 86V20C82 12.4575 82 8.68629 79.6569 6.34315C77.3137 4 73.5425 4 66 4H42C34.4575 4 30.6863 4 28.3431 6.34315Z" fill="#161616"/>
<path d="M26 59H24.5V60.5H26V59ZM31 59H32.5V57.5H31V59ZM31 101.229H29.5V102.32L30.5383 102.656L31 101.229ZM79.6569 99.6569L78.5962 98.5962L79.6569 99.6569ZM79.6569 6.34315L78.5962 7.40381V7.40381L79.6569 6.34315ZM27.5 20C27.5 16.1864 27.5032 13.477 27.7795 11.4217C28.05 9.40952 28.5574 8.25023 29.4038 7.40381L27.2825 5.28249C25.7858 6.77921 25.1215 8.67711 24.8063 11.022C24.4968 13.3236 24.5 16.2712 24.5 20H27.5ZM27.5 59V20H24.5V59H27.5ZM26 60.5H31V57.5H26V60.5ZM29.5 59V101.229H32.5V59H29.5ZM42 100.5C39.3827 100.5 37.2736 100.5 35.5212 100.406C33.7648 100.312 32.4689 100.128 31.4617 99.8018L30.5383 102.656C31.9144 103.101 33.5149 103.303 35.3609 103.401C37.211 103.5 39.4103 103.5 42 103.5V100.5ZM66 100.5H42V103.5H66V100.5ZM78.5962 98.5962C77.7498 99.4426 76.5905 99.95 74.5783 100.22C72.523 100.497 69.8136 100.5 66 100.5V103.5C69.7288 103.5 72.6764 103.503 74.978 103.194C77.3229 102.878 79.2208 102.214 80.7175 100.718L78.5962 98.5962ZM80.5 86C80.5 89.8136 80.4968 92.523 80.2205 94.5783C79.95 96.5905 79.4426 97.7498 78.5962 98.5962L80.7175 100.718C82.2142 99.2208 82.8785 97.3229 83.1937 94.978C83.5032 92.6764 83.5 89.7288 83.5 86H80.5ZM80.5 20V86H83.5V20H80.5ZM78.5962 7.40381C79.4426 8.25023 79.95 9.40952 80.2205 11.4217C80.4968 13.477 80.5 16.1864 80.5 20H83.5C83.5 16.2712 83.5032 13.3236 83.1937 11.022C82.8785 8.67711 82.2142 6.77921 80.7175 5.28249L78.5962 7.40381ZM66 5.5C69.8136 5.5 72.523 5.50319 74.5783 5.77952C76.5905 6.05005 77.7498 6.55739 78.5962 7.40381L80.7175 5.28249C79.2208 3.78576 77.3229 3.12153 74.978 2.80627C72.6764 2.49681 69.7288 2.5 66 2.5V5.5ZM42 5.5H66V2.5H42V5.5ZM29.4038 7.40381C30.2502 6.55739 31.4095 6.05005 33.4217 5.77952C35.477 5.50319 38.1864 5.5 42 5.5V2.5C38.2712 2.5 35.3236 2.49681 33.022 2.80627C30.6771 3.12153 28.7792 3.78576 27.2825 5.28249L29.4038 7.40381Z" fill="#161616" mask="url(#path-1-inside-1_3433_1695)"/>
<path d="M85.1111 100L89.3564 108.642C89.6663 109.273 89.2459 110.018 88.5458 110.079L78 111" stroke="#161616" stroke-width="1.5" stroke-linecap="round"/>
<path d="M26 20C26 12.4575 26 8.68629 28.3431 6.34315C30.6863 4 34.4575 4 42 4H66C73.5425 4 77.3137 4 79.6569 6.34315C82 8.68629 82 12.4575 82 20V84C82 91.5425 82 95.3137 79.6569 97.6569C77.3137 100 73.5425 100 66 100H42C34.4575 100 30.6863 100 28.3431 97.6569C26 95.3137 26 91.5425 26 84V20Z" fill="white"/>
<g filter="url(#filter0_f_3433_1695)">
<rect x="49" y="44" width="39" height="30" fill="#98C292"/>
</g>
<path d="M52.9998 75.0001C45.5598 76.2119 42.7088 83.055 45.9998 87.0001C49.0048 90.6023 53.4121 93.4769 58.0616 95.478C70.2973 100.744 78.8428 71.4026 66.9996 77.5001V77.5001C16.4998 103.5 82.5993 106.405 89 109.5" stroke="#161616" stroke-width="1.5" stroke-linecap="round"/>
<path d="M47 5H61C61 6.65685 59.6569 8 58 8H50C48.3431 8 47 6.65685 47 5Z" fill="#161616"/>
<path fill-rule="evenodd" clip-rule="evenodd" d="M66 5.5H42C38.1864 5.5 35.477 5.50319 33.4217 5.77952C31.4095 6.05005 30.2502 6.55739 29.4038 7.40381C28.5574 8.25023 28.05 9.40952 27.7795 11.4217C27.5032 13.477 27.5 16.1864 27.5 20V68H26V20C26 12.4575 26 8.68629 28.3431 6.34315C30.6863 4 34.4575 4 42 4H66C73.5425 4 77.3137 4 79.6569 6.34315C82 8.68629 82 12.4575 82 20V33H80.5V20C80.5 16.1864 80.4968 13.477 80.2205 11.4217C79.95 9.40952 79.4426 8.25023 78.5962 7.40381C77.7498 6.55739 76.5905 6.05005 74.5783 5.77952C72.523 5.50319 69.8136 5.5 66 5.5ZM33 99.6759C35.2075 100 38.0994 100 42 100H66C73.5425 100 77.3137 100 79.6569 97.6569C82 95.3137 82 91.5425 82 84V67H80.5V84C80.5 87.8136 80.4968 90.523 80.2205 92.5783C79.95 94.5905 79.4426 95.7498 78.5962 96.5962C77.7498 97.4426 76.5905 97.95 74.5783 98.2205C72.523 98.4968 69.8136 98.5 66 98.5H42C38.1864 98.5 35.477 98.4968 33.4217 98.2205C33.2768 98.201 33.1363 98.1803 33 98.1583V99.6759Z" fill="#161616"/>
<path d="M13.1796 82.444C13.3159 80.6716 13.4141 79.415 13.6129 78.4647C13.8074 77.5355 14.0793 77.0012 14.4959 76.6154C14.9125 76.2296 15.4661 75.9994 16.4075 75.8769C17.3703 75.7515 18.6307 75.75 20.4082 75.75H25.5918C27.3693 75.75 28.6297 75.7515 29.5925 75.8769C30.5339 75.9994 31.0875 76.2296 31.5041 76.6154C31.9207 77.0012 32.1926 77.5355 32.3871 78.4647C32.5859 79.415 32.6841 80.6716 32.8204 82.4439L33.5896 92.4439C33.7464 94.4823 33.8564 95.9335 33.7894 97.0382C33.7237 98.1212 33.4927 98.7464 33.0651 99.2082C32.6375 99.67 32.0318 99.9482 30.957 100.097C29.8607 100.248 28.4054 100.25 26.361 100.25H19.639C17.5946 100.25 16.1393 100.248 15.043 100.097C13.9682 99.9482 13.3625 99.67 12.9349 99.2082C12.5073 98.7464 12.2763 98.1212 12.2106 97.0382C12.1436 95.9335 12.2536 94.4823 12.4104 92.444L13.1796 82.444Z" stroke="#161616" stroke-width="1.5"/>
<path d="M13.1991 82.4644C13.3308 80.6871 13.4256 79.4269 13.6224 78.4737C13.8148 77.5417 14.0862 77.0057 14.5031 76.6185C14.9199 76.2314 15.4745 76.0004 16.4183 75.8773C17.3833 75.7515 18.6471 75.75 20.4293 75.75H25.5707C27.3529 75.75 28.6167 75.7515 29.5817 75.8773C30.5255 76.0004 31.0801 76.2314 31.4969 76.6185C31.9138 77.0057 32.1852 77.5417 32.3776 78.4737C32.5744 79.4269 32.6692 80.6871 32.8009 82.4644L33.6157 93.4644C33.7663 95.498 33.8719 96.9457 33.802 98.0475C33.7336 99.1277 33.5017 99.7513 33.0742 100.212C32.6467 100.672 32.042 100.949 30.9698 101.097C29.8762 101.248 28.4246 101.25 26.3855 101.25H19.6145C17.5754 101.25 16.1238 101.248 15.0302 101.097C13.958 100.949 13.3533 100.672 12.9258 100.212C12.4983 99.7513 12.2664 99.1277 12.198 98.0475C12.1281 96.9457 12.2337 95.498 12.3843 93.4644L13.1991 82.4644Z" stroke="#161616" stroke-width="1.5"/>
<path d="M18.4282 79.8335C18.721 80.1264 19.1959 80.1264 19.4888 79.8336C19.7817 79.5407 19.7817 79.0658 19.4888 78.7729L18.4282 79.8335ZM18.9585 79.3032C19.4888 78.7729 19.489 78.7731 19.4892 78.7733C19.4892 78.7733 19.4894 78.7734 19.4894 78.7735C19.4896 78.7736 19.4896 78.7737 19.4896 78.7737C19.4895 78.7736 19.4892 78.7733 19.4886 78.7726C19.4873 78.7714 19.4849 78.7689 19.4814 78.7653C19.4743 78.758 19.4628 78.7461 19.4473 78.7298C19.4162 78.697 19.369 78.6463 19.3088 78.579C19.1884 78.4441 19.0165 78.2431 18.818 77.9857C18.4193 77.469 17.9211 76.7351 17.5132 75.861C16.6959 74.1096 16.2788 71.8939 17.6017 69.689L16.3155 68.9173C14.6384 71.7124 15.2213 74.4968 16.1539 76.4953C16.621 77.4963 17.1852 78.3249 17.6303 78.9019C17.8536 79.1914 18.0489 79.4201 18.1902 79.5783C18.2609 79.6574 18.3182 79.719 18.3589 79.7619C18.3792 79.7834 18.3955 79.8002 18.4071 79.8122C18.413 79.8182 18.4177 79.823 18.4212 79.8265C18.423 79.8283 18.4244 79.8298 18.4256 79.831C18.4262 79.8315 18.4267 79.8321 18.4271 79.8325C18.4273 79.8327 18.4276 79.833 18.4277 79.8331C18.4279 79.8333 18.4282 79.8335 18.9585 79.3032ZM17.6017 69.689C17.9574 69.0962 18.2146 68.8522 18.3518 68.7711C18.4077 68.7381 18.4123 68.7508 18.3777 68.75C18.3405 68.7491 18.3247 68.7343 18.341 68.7457C18.4031 68.7892 18.5377 68.9417 18.6976 69.3058C18.8478 69.648 18.9839 70.0915 19.1035 70.6C19.3423 71.6147 19.4946 72.7953 19.5872 73.736C19.6332 74.2034 19.6638 74.6057 19.6829 74.8906C19.6925 75.0329 19.6991 75.1457 19.7034 75.2224C19.7055 75.2607 19.707 75.29 19.708 75.3094C19.7085 75.3192 19.7088 75.3264 19.7091 75.3311C19.7092 75.3334 19.7092 75.3351 19.7093 75.3361C19.7093 75.3367 19.7093 75.337 19.7093 75.3372C19.7093 75.3373 19.7094 75.3373 19.7094 75.3374C19.7094 75.3373 19.7093 75.3373 20.4586 75.3032C21.2078 75.2692 21.2078 75.269 21.2078 75.2688C21.2078 75.2687 21.2078 75.2685 21.2078 75.2682C21.2077 75.2678 21.2077 75.2671 21.2077 75.2663C21.2076 75.2647 21.2075 75.2624 21.2073 75.2595C21.2071 75.2536 21.2067 75.2451 21.2061 75.2342C21.205 75.2123 21.2034 75.1804 21.2011 75.1394C21.1965 75.0574 21.1895 74.9388 21.1795 74.7901C21.1596 74.4929 21.1278 74.0749 21.08 73.5892C20.985 72.6236 20.8249 71.3667 20.5636 70.2564C20.4333 69.7024 20.2724 69.1615 20.0711 68.7029C19.8794 68.2662 19.6078 67.8015 19.2012 67.5169C18.983 67.3642 18.7173 67.2576 18.4135 67.2504C18.1123 67.2432 17.8337 67.335 17.5888 67.4797C17.1245 67.7541 16.7097 68.2601 16.3155 68.9173L17.6017 69.689Z" fill="#161616"/>
<path d="M26.4282 79.8335C26.721 80.1264 27.1959 80.1264 27.4888 79.8336C27.7817 79.5407 27.7817 79.0658 27.4888 78.7729L26.4282 79.8335ZM26.9585 79.3032C27.4888 78.7729 27.489 78.7731 27.4892 78.7733C27.4892 78.7733 27.4894 78.7734 27.4894 78.7735C27.4896 78.7736 27.4896 78.7737 27.4896 78.7737C27.4895 78.7736 27.4892 78.7733 27.4886 78.7726C27.4873 78.7714 27.4849 78.7689 27.4814 78.7653C27.4743 78.758 27.4628 78.7461 27.4473 78.7298C27.4162 78.697 27.369 78.6463 27.3088 78.579C27.1884 78.4441 27.0165 78.2431 26.818 77.9857C26.4193 77.469 25.9211 76.7351 25.5132 75.861C24.6959 74.1096 24.2788 71.8939 25.6017 69.689L24.3155 68.9173C22.6384 71.7124 23.2213 74.4968 24.1539 76.4953C24.621 77.4963 25.1852 78.3249 25.6303 78.9019C25.8536 79.1914 26.0489 79.4201 26.1902 79.5783C26.2609 79.6574 26.3182 79.719 26.3589 79.7619C26.3792 79.7834 26.3955 79.8002 26.4071 79.8122C26.413 79.8182 26.4177 79.823 26.4212 79.8265C26.423 79.8283 26.4244 79.8298 26.4256 79.831C26.4262 79.8315 26.4267 79.8321 26.4271 79.8325C26.4273 79.8327 26.4276 79.833 26.4277 79.8331C26.4279 79.8333 26.4282 79.8335 26.9585 79.3032ZM25.6017 69.689C25.9574 69.0962 26.2146 68.8522 26.3518 68.7711C26.4077 68.7381 26.4123 68.7508 26.3777 68.75C26.3405 68.7491 26.3247 68.7343 26.341 68.7457C26.4031 68.7892 26.5377 68.9417 26.6976 69.3058C26.8478 69.648 26.9839 70.0915 27.1035 70.6C27.3423 71.6147 27.4946 72.7953 27.5872 73.736C27.6332 74.2034 27.6638 74.6057 27.6829 74.8906C27.6925 75.0329 27.6991 75.1457 27.7034 75.2224C27.7055 75.2607 27.707 75.29 27.708 75.3094C27.7085 75.3192 27.7088 75.3264 27.7091 75.3311C27.7092 75.3334 27.7092 75.3351 27.7093 75.3361C27.7093 75.3367 27.7093 75.337 27.7093 75.3372C27.7093 75.3373 27.7094 75.3373 27.7094 75.3374C27.7094 75.3373 27.7093 75.3373 28.4586 75.3032C29.2078 75.2692 29.2078 75.269 29.2078 75.2688C29.2078 75.2687 29.2078 75.2685 29.2078 75.2682C29.2077 75.2678 29.2077 75.2671 29.2077 75.2663C29.2076 75.2647 29.2075 75.2624 29.2073 75.2595C29.2071 75.2536 29.2067 75.2451 29.2061 75.2342C29.205 75.2123 29.2034 75.1804 29.2011 75.1394C29.1965 75.0574 29.1895 74.9388 29.1795 74.7901C29.1596 74.4929 29.1278 74.0749 29.08 73.5892C28.985 72.6236 28.8249 71.3667 28.5636 70.2564C28.4333 69.7024 28.2724 69.1615 28.0711 68.7029C27.8794 68.2662 27.6078 67.8015 27.2012 67.5169C26.983 67.3642 26.7173 67.2576 26.4135 67.2504C26.1123 67.2432 25.8337 67.335 25.5888 67.4797C25.1245 67.7541 24.7097 68.2601 24.3155 68.9173L25.6017 69.689Z" fill="#161616"/>
<rect x="19" y="95" width="8" height="1.5" rx="0.75" fill="#161616"/>
<path fill-rule="evenodd" clip-rule="evenodd" d="M40.6456 52.5587C44.8277 50.2982 61.6691 40.6909 71.616 35.4912C69.5815 38.3169 69.3555 43.1772 70.1467 48.716C70.4856 50.5246 72.4072 49.3941 72.5202 48.0378C71.6161 41.3689 72.2943 36.2822 74.8936 33.7955C76.8152 32.8913 78.2846 32.2132 78.9627 32.1002C85.8576 30.7439 90.1525 43.5163 91.17 48.6029C92.0742 53.5762 92.9786 67.1397 86.0838 68.4967C84.2752 68.8356 75.9106 67.9315 66.7558 66.9144C62.1215 74.8268 49.1234 73.131 46.2972 64.4276C44.4886 64.2017 43.1322 63.9754 42.2281 63.8624C39.9676 60.5844 39.4024 56.4023 40.6458 52.5595L40.6456 52.5587ZM63.591 66.5747C58.6178 65.8965 53.5309 65.3313 49.4618 64.7661C52.1746 69.9657 59.8604 70.9827 63.591 66.5747ZM77.3807 35.9429C82.6932 29.6133 88.2319 46.1161 88.6836 49.0545C90.6052 57.3057 87.7795 73.6954 79.9802 61.6003C76.9285 56.74 75.9111 51.3149 75.6851 45.6634C78.6238 43.1766 83.2582 42.8377 85.8583 45.2112C85.0672 42.2725 81.6763 34.1346 77.3811 35.9425L77.3807 35.9429Z" fill="#161616"/>
<path d="M98.9509 85.5126C100.155 86.039 100.697 87.4561 100.09 88.8428C98.8773 91.6162 95.2127 91.9013 93.9623 92.0624C93.2318 91.0349 90.9534 88.1506 92.1664 85.3772C92.7729 83.9905 94.1965 83.4332 95.3851 83.953C96.1221 84.2753 96.5985 84.9557 96.8215 85.5252C97.3909 85.3023 98.214 85.1903 98.9509 85.5126Z" fill="#161616"/>
<circle cx="40" cy="21" r="5.25" stroke="#161616" stroke-width="1.5"/>
<circle cx="40" cy="24" r="3" fill="#161616"/>
<circle cx="40.5" cy="19.5" r="1.5" fill="#161616"/>
<rect x="50" y="19" width="16" height="1.5" rx="0.75" fill="#161616"/>
<rect x="50" y="22" width="8" height="1.5" rx="0.75" fill="#161616"/>
<path d="M93 40.3758L100.616 34.7192" stroke="#161616" stroke-width="1.5" stroke-linecap="round"/>
<path d="M96 49.9225L105.175 47.5115" stroke="#161616" stroke-width="1.5" stroke-linecap="round"/>
<path d="M97 58.895L106 60.985" stroke="#161616" stroke-width="1.5" stroke-linecap="round"/>
<path d="M94.7324 66L102.903 72.2648" stroke="#161616" stroke-width="1.5" stroke-linecap="round"/>
<circle cx="15" cy="39" r="13.25" fill="white" stroke="#161616" stroke-width="1.5"/>
<circle cx="98" cy="14" r="13.25" fill="white" stroke="#161616" stroke-width="1.5"/>
<path d="M98 6C100.174 6 100.445 6.008 101.298 6.048C102.15 6.088 102.73 6.2216 103.24 6.42C103.768 6.6232 104.213 6.8984 104.658 7.3424C105.064 7.74232 105.379 8.22607 105.58 8.76C105.778 9.2696 105.912 9.8504 105.952 10.7024C105.99 11.5552 106 11.8264 106 14C106 16.1736 105.992 16.4448 105.952 17.2976C105.912 18.1496 105.778 18.7296 105.58 19.24C105.38 19.7742 105.065 20.2581 104.658 20.6576C104.258 21.0643 103.774 21.379 103.24 21.58C102.73 21.7776 102.15 21.912 101.298 21.952C100.445 21.9896 100.174 22 98 22C95.8264 22 95.5552 21.992 94.7024 21.952C93.8504 21.912 93.2704 21.7776 92.76 21.58C92.2259 21.3796 91.742 21.0648 91.3424 20.6576C90.9355 20.2577 90.6207 19.774 90.42 19.24C90.2216 18.7304 90.088 18.1496 90.048 17.2976C90.0104 16.4448 90 16.1736 90 14C90 11.8264 90.008 11.5552 90.048 10.7024C90.088 9.8496 90.2216 9.2704 90.42 8.76C90.6202 8.22574 90.935 7.74186 91.3424 7.3424C91.7421 6.93538 92.2259 6.62058 92.76 6.42C93.2704 6.2216 93.8496 6.088 94.7024 6.048C95.5552 6.0104 95.8264 6 98 6ZM98 10C96.9391 10 95.9217 10.4214 95.1716 11.1716C94.4214 11.9217 94 12.9391 94 14C94 15.0609 94.4214 16.0783 95.1716 16.8284C95.9217 17.5786 96.9391 18 98 18C99.0609 18 100.078 17.5786 100.828 16.8284C101.579 16.0783 102 15.0609 102 14C102 12.9391 101.579 11.9217 100.828 11.1716C100.078 10.4214 99.0609 10 98 10ZM103.2 9.8C103.2 9.53478 103.095 9.28043 102.907 9.09289C102.72 8.90536 102.465 8.8 102.2 8.8C101.935 8.8 101.68 8.90536 101.493 9.09289C101.305 9.28043 101.2 9.53478 101.2 9.8C101.2 10.0652 101.305 10.3196 101.493 10.5071C101.68 10.6946 101.935 10.8 102.2 10.8C102.465 10.8 102.72 10.6946 102.907 10.5071C103.095 10.3196 103.2 10.0652 103.2 9.8ZM98 11.6C98.6365 11.6 99.247 11.8529 99.6971 12.3029C100.147 12.753 100.4 13.3635 100.4 14C100.4 14.6365 100.147 15.247 99.6971 15.6971C99.247 16.1471 98.6365 16.4 98 16.4C97.3635 16.4 96.753 16.1471 96.3029 15.6971C95.8529 15.247 95.6 14.6365 95.6 14C95.6 13.3635 95.8529 12.753 96.3029 12.3029C96.753 11.8529 97.3635 11.6 98 11.6Z" fill="#161616"/>
<path d="M15.0487 31C10.6034 31 7 34.6034 7 39.0487C7 43.0658 9.94341 46.3955 13.7915 47V41.3748H11.7471V39.0487H13.7915V37.2756C13.7915 35.2586 14.9924 34.1446 16.8315 34.1446C17.712 34.1446 18.6328 34.3016 18.6328 34.3016V36.2816H17.6186C16.6182 36.2816 16.3067 36.9021 16.3067 37.5388V39.0487H18.5386L18.1821 41.3748H16.3067V47C20.154 46.3963 23.0974 43.065 23.0974 39.0487C23.0974 34.6034 19.494 31 15.0487 31Z" fill="#161616"/>
<defs>
<filter id="filter0_f_3433_1695" x="25" y="20" width="87" height="78" filterUnits="userSpaceOnUse" color-interpolation-filters="sRGB">
<feFlood flood-opacity="0" result="BackgroundImageFix"/>
<feBlend mode="normal" in="SourceGraphic" in2="BackgroundImageFix" result="shape"/>
<feGaussianBlur stdDeviation="12" result="effect1_foregroundBlur_3433_1695"/>
</filter>
</defs>
</svg>
